<?xml version="1.0" encoding="utf-8"?>
<!-- Generator: Adobe Illustrator 23.0.1, SVG Export Plug-In . SVG Version: 6.00 Build 0)  -->
<svg version="1.1" id="Layer_1" xmlns="http://www.w3.org/2000/svg" xmlns:xlink="http://www.w3.org/1999/xlink" x="0px" y="0px"
	 viewBox="0 0 1024 768" style="enable-background:new 0 0 1024 768;" xml:space="preserve">
<style type="text/css">
	.st0{fill:#FFFFFF;}
	.st1{opacity:0.75;}
	.st2{fill:#BCBEC0;}
	.st3{fill:#E6E7E8;}
	.st4{display:none;opacity:0.3;fill:#BCBEC0;enable-background:new    ;}
</style>
<title>gdn_</title>
<g id="Layer_11">
	<path class="st0" d="M0,0v768h1024V0H0z M599.6,601.3h-320v-100h320V601.3z"/>
	<g class="st1">
		<rect x="30.4" y="21.9" class="st2" width="464.2" height="68.9"/>
		<rect x="30.4" y="113.8" class="st2" width="564.6" height="196.9"/>
		<rect x="30.4" y="323.6" class="st2" width="202.2" height="51.3"/>
		<rect x="30.4" y="391.8" class="st2" width="202.2" height="10.7"/>
		<rect x="30.4" y="408.8" class="st3" width="202.2" height="10.7"/>
		<rect x="30.4" y="425.8" class="st3" width="202.2" height="10.7"/>
		<rect x="30.4" y="442.8" class="st3" width="202.2" height="10.7"/>
		<rect x="30.4" y="459.8" class="st3" width="202.2" height="10.7"/>
		<rect x="30.4" y="476.8" class="st3" width="145.6" height="10.7"/>
		<rect x="646.3" y="552.6" class="st2" width="339.2" height="10.7"/>
		<rect x="646.3" y="569.6" class="st3" width="339.2" height="10.7"/>
		<rect x="646.3" y="586.6" class="st3" width="339.2" height="10.7"/>
		<rect x="646.3" y="603.6" class="st3" width="339.2" height="10.7"/>
		<rect x="646.3" y="620.6" class="st3" width="339.2" height="10.7"/>
		<rect x="646.3" y="637.6" class="st3" width="251.1" height="10.7"/>
		<rect x="646.3" y="262.7" class="st2" width="339.2" height="10.7"/>
		<rect x="646.3" y="279.7" class="st3" width="339.2" height="10.7"/>
		<rect x="646.3" y="296.8" class="st3" width="339.2" height="10.7"/>
		<rect x="646.3" y="313.8" class="st3" width="339.2" height="10.7"/>
		<rect x="646.3" y="330.8" class="st3" width="339.2" height="10.7"/>
		<rect x="646.3" y="347.8" class="st3" width="251.1" height="10.7"/>
		<rect x="646.3" y="660.2" class="st2" width="339.2" height="10.7"/>
		<rect x="646.3" y="677.2" class="st3" width="339.2" height="10.7"/>
		<rect x="646.3" y="694.2" class="st3" width="339.2" height="10.7"/>
		<rect x="646.3" y="711.2" class="st3" width="339.2" height="10.7"/>
		<rect x="646.3" y="728.2" class="st2" width="339.2" height="10.7"/>
		<rect x="279.6" y="391.8" class="st2" width="319" height="10.7"/>
		<rect x="279.6" y="408.8" class="st3" width="319" height="10.7"/>
		<rect x="279.6" y="425.8" class="st3" width="319" height="10.7"/>
		<rect x="279.6" y="442.8" class="st3" width="319" height="10.7"/>
		<rect x="279.6" y="459.8" class="st3" width="319" height="10.7"/>
		<rect x="279.6" y="477" class="st3" width="179" height="10.7"/>
		<rect x="279.6" y="689.8" class="st2" width="319" height="10.7"/>
		<rect x="279.6" y="707.8" class="st3" width="319" height="10.7"/>
		<rect x="279.6" y="724.2" class="st3" width="132.5" height="10.7"/>
		<rect x="30.4" y="507.9" class="st2" width="202.2" height="10.7"/>
		<rect x="30.4" y="524.9" class="st3" width="202.2" height="10.7"/>
		<rect x="30.4" y="541.9" class="st3" width="202.2" height="10.7"/>
		<rect x="30.4" y="558.9" class="st3" width="202.2" height="10.7"/>
		<rect x="30.4" y="575.9" class="st3" width="110.6" height="10.7"/>
		<rect x="30.4" y="606.3" class="st2" width="202.2" height="128.7"/>
		<rect x="280.6" y="622.3" class="st2" width="318" height="52.1"/>
		<rect x="277" y="323.6" class="st2" width="318" height="51.3"/>
		<rect x="646.3" y="113.9" class="st2" width="339.2" height="131.7"/>
		<rect x="646.3" y="399.3" class="st2" width="339.2" height="131.7"/>
		<rect x="516" y="21.9" class="st2" width="469.5" height="68.9"/>
	</g>
	<polygon class="st4" points="0,0 1024,768 0,768 	"/>
</g>
</svg>
