<?xml version="1.0" encoding="utf-8"?>
<!-- Generator: Adobe Illustrator 23.0.1, SVG Export Plug-In . SVG Version: 6.00 Build 0)  -->
<svg version="1.1" id="Layer_1" xmlns="http://www.w3.org/2000/svg" xmlns:xlink="http://www.w3.org/1999/xlink" x="0px" y="0px"
	 viewBox="0 0 1024 768" style="enable-background:new 0 0 1024 768;" xml:space="preserve">
<style type="text/css">
	.st0{fill:#FFFFFF;}
	.st1{opacity:0.75;}
	.st2{fill:#BCBEC0;}
	.st3{fill:#E6E7E8;}
	.st4{display:none;opacity:0.3;fill:#BCBEC0;enable-background:new    ;}
</style>
<title>gdn_</title>
<g id="Layer_5">
	<path class="st0" d="M0,0v768h1024V0H0z M985.5,714.2h-120v-600h120V714.2z"/>
	<g class="st1">
		<rect x="30.4" y="21.9" class="st2" width="464.2" height="68.9"/>
		<rect x="30.4" y="113.8" class="st2" width="811.7" height="196.9"/>
		<rect x="30.4" y="323.6" class="st2" width="415.4" height="51.3"/>
		<rect x="30.4" y="391.8" class="st2" width="415.4" height="10.7"/>
		<rect x="30.4" y="408.8" class="st3" width="415.4" height="10.7"/>
		<rect x="30.4" y="425.8" class="st3" width="415.4" height="10.7"/>
		<rect x="30.4" y="442.8" class="st3" width="415.4" height="10.7"/>
		<rect x="30.4" y="459.8" class="st3" width="415.4" height="10.7"/>
		<rect x="30.4" y="476.8" class="st3" width="299.1" height="10.7"/>
		<rect x="469.6" y="391.8" class="st2" width="372.5" height="10.7"/>
		<rect x="469.6" y="408.8" class="st3" width="372.5" height="10.7"/>
		<rect x="469.6" y="425.8" class="st3" width="372.5" height="10.7"/>
		<rect x="469.6" y="442.8" class="st3" width="372.5" height="10.7"/>
		<rect x="469.6" y="459.8" class="st3" width="372.5" height="10.7"/>
		<rect x="469.6" y="476.8" class="st3" width="372.5" height="10.7"/>
		<rect x="469.6" y="494" class="st3" width="372.5" height="10.7"/>
		<rect x="469.6" y="511" class="st3" width="268.3" height="10.7"/>
		<rect x="469.6" y="609.3" class="st2" width="372.5" height="10.7"/>
		<rect x="469.6" y="626.3" class="st3" width="372.5" height="10.7"/>
		<rect x="469.6" y="643.3" class="st3" width="372.5" height="10.7"/>
		<rect x="469.6" y="660.4" class="st3" width="132.5" height="10.7"/>
		<rect x="469.6" y="697.4" class="st2" width="372.5" height="10.7"/>
		<rect x="469.6" y="714.6" class="st3" width="372.5" height="10.7"/>
		<rect x="469.6" y="731.6" class="st3" width="268.3" height="10.7"/>
		<rect x="30.4" y="507.9" class="st2" width="415.4" height="10.7"/>
		<rect x="30.4" y="524.9" class="st3" width="415.4" height="10.7"/>
		<rect x="30.4" y="541.9" class="st3" width="415.4" height="10.7"/>
		<rect x="30.4" y="558.9" class="st3" width="415.4" height="10.7"/>
		<rect x="30.4" y="575.9" class="st3" width="227.1" height="10.7"/>
		<rect x="30.4" y="606.3" class="st2" width="415.4" height="128.7"/>
		<rect x="467" y="541.9" class="st2" width="371.5" height="52.1"/>
		<rect x="467" y="323.6" class="st2" width="375.1" height="51.3"/>
		<rect x="516" y="21.9" class="st2" width="469.5" height="68.9"/>
	</g>
	<polygon class="st4" points="0,0 1024,768 0,768 	"/>
</g>
</svg>
