<?xml version="1.0" encoding="utf-8"?>
<!-- Generator: Adobe Illustrator 23.0.1, SVG Export Plug-In . SVG Version: 6.00 Build 0)  -->
<svg version="1.1" id="Layer_1" xmlns="http://www.w3.org/2000/svg" xmlns:xlink="http://www.w3.org/1999/xlink" x="0px" y="0px"
	 viewBox="0 0 434 768" style="enable-background:new 0 0 434 768;" xml:space="preserve">
<style type="text/css">
	.st0{fill:#FFFFFF;}
	.st1{opacity:0.75;}
	.st2{fill:#BCBEC0;}
	.st3{fill:#E6E7E8;}
	.st4{display:none;opacity:0.3;fill:#BCBEC0;enable-background:new    ;}
</style>
<title>gdn_</title>
<g id="Layer_9">
	<path class="st0" d="M0,0v768h434V0H0z M377,380.9H57v-52h320V380.9z"/>
	<g class="st1">
		<rect x="32" y="23.9" class="st2" width="370" height="65.1"/>
		<rect x="32" y="109.6" class="st2" width="370" height="197.1"/>
		<rect x="32" y="399" class="st2" width="370" height="53.6"/>
		<rect x="32" y="468" class="st2" width="370" height="8.9"/>
		<rect x="32" y="490.8" class="st3" width="370" height="8.9"/>
		<rect x="32" y="506.1" class="st3" width="370" height="8.9"/>
		<rect x="32" y="521.4" class="st3" width="370" height="8.9"/>
		<rect x="32" y="536.7" class="st3" width="370" height="8.9"/>
		<rect x="32" y="585.4" class="st2" width="370" height="8.9"/>
		<rect x="32" y="608.2" class="st3" width="370" height="8.9"/>
		<rect x="32" y="623.6" class="st3" width="370" height="8.9"/>
		<rect x="32" y="638.9" class="st3" width="370" height="8.9"/>
		<rect x="32" y="654.2" class="st3" width="370" height="8.9"/>
		<rect x="32" y="673.1" class="st3" width="370" height="8.9"/>
		<rect x="32" y="693" class="st3" width="194.6" height="8.9"/>
		<rect x="32" y="553.4" class="st3" width="276.4" height="8.9"/>
	</g>
	<polygon class="st4" points="0,0 0,768 434,768 	"/>
</g>
</svg>
