<?xml version="1.0" encoding="utf-8"?>
<!-- Generator: Adobe Illustrator 23.0.1, SVG Export Plug-In . SVG Version: 6.00 Build 0)  -->
<svg version="1.1" id="Layer_1" xmlns="http://www.w3.org/2000/svg" xmlns:xlink="http://www.w3.org/1999/xlink" x="0px" y="0px"
	 viewBox="0 0 1024 768" style="enable-background:new 0 0 1024 768;" xml:space="preserve">
<style type="text/css">
	.st0{fill:#FFFFFF;}
	.st1{opacity:0.75;}
	.st2{fill:#BCBEC0;}
	.st3{fill:#E6E7E8;}
	.st4{display:none;opacity:0.3;fill:#BCBEC0;enable-background:new    ;}
</style>
<title>gdn_</title>
<path class="st0" d="M0,0v768h1024V0H0z M986.5,368.8H686V117.9h300.5V368.8z"/>
<g class="st1">
	<rect x="30.4" y="21.9" class="st2" width="464.2" height="68.9"/>
	<rect x="30.4" y="113.8" class="st2" width="618.1" height="196.9"/>
	<rect x="30.4" y="323.6" class="st2" width="202.2" height="51.3"/>
	<rect x="30.4" y="391.8" class="st2" width="202.2" height="10.7"/>
	<rect x="30.4" y="408.8" class="st3" width="202.2" height="10.7"/>
	<rect x="30.4" y="425.8" class="st3" width="202.2" height="10.7"/>
	<rect x="30.4" y="442.8" class="st3" width="202.2" height="10.7"/>
	<rect x="30.4" y="459.8" class="st3" width="202.2" height="10.7"/>
	<rect x="30.4" y="476.8" class="st3" width="145.6" height="10.7"/>
	<rect x="686" y="552.6" class="st2" width="299.5" height="10.7"/>
	<rect x="686" y="569.6" class="st3" width="299.5" height="10.7"/>
	<rect x="686" y="586.6" class="st3" width="299.5" height="10.7"/>
	<rect x="686" y="603.6" class="st3" width="299.5" height="10.7"/>
	<rect x="686" y="620.6" class="st3" width="299.5" height="10.7"/>
	<rect x="686" y="637.6" class="st3" width="211.3" height="10.7"/>
	<rect x="686" y="660.2" class="st2" width="299.5" height="10.7"/>
	<rect x="686" y="677.2" class="st3" width="299.5" height="10.7"/>
	<rect x="686" y="694.2" class="st3" width="299.5" height="10.7"/>
	<rect x="686" y="711.2" class="st3" width="299.5" height="10.7"/>
	<rect x="686" y="728.2" class="st2" width="299.5" height="10.7"/>
	<rect x="279.6" y="391.8" class="st2" width="372.5" height="10.7"/>
	<rect x="279.6" y="408.8" class="st3" width="372.5" height="10.7"/>
	<rect x="279.6" y="425.8" class="st3" width="372.5" height="10.7"/>
	<rect x="279.6" y="442.8" class="st3" width="372.5" height="10.7"/>
	<rect x="279.6" y="459.8" class="st3" width="372.5" height="10.7"/>
	<rect x="279.6" y="476.8" class="st3" width="372.5" height="10.7"/>
	<rect x="279.6" y="494" class="st3" width="372.5" height="10.7"/>
	<rect x="279.6" y="511" class="st3" width="268.3" height="10.7"/>
	<rect x="279.6" y="609.3" class="st2" width="372.5" height="10.7"/>
	<rect x="279.6" y="626.3" class="st3" width="372.5" height="10.7"/>
	<rect x="279.6" y="643.3" class="st3" width="372.5" height="10.7"/>
	<rect x="279.6" y="660.4" class="st3" width="132.5" height="10.7"/>
	<rect x="279.6" y="697.4" class="st2" width="372.5" height="10.7"/>
	<rect x="279.6" y="714.6" class="st3" width="372.5" height="10.7"/>
	<rect x="279.6" y="731.6" class="st3" width="268.3" height="10.7"/>
	<rect x="30.4" y="507.9" class="st2" width="202.2" height="10.7"/>
	<rect x="30.4" y="524.9" class="st3" width="202.2" height="10.7"/>
	<rect x="30.4" y="541.9" class="st3" width="202.2" height="10.7"/>
	<rect x="30.4" y="558.9" class="st3" width="202.2" height="10.7"/>
	<rect x="30.4" y="575.9" class="st3" width="110.6" height="10.7"/>
	<rect x="30.4" y="606.3" class="st2" width="202.2" height="128.7"/>
	<rect x="277" y="541.9" class="st2" width="371.5" height="52.1"/>
	<rect x="277" y="323.6" class="st2" width="371.5" height="51.3"/>
	<rect x="686" y="391.8" class="st2" width="299.5" height="131.7"/>
	<rect x="516" y="21.9" class="st2" width="469.5" height="68.9"/>
</g>
<polygon class="st4" points="0,0 1024,768 0,768 "/>
</svg>
