<?xml version="1.0" encoding="utf-8"?>
<!-- Generator: Adobe Illustrator 23.0.1, SVG Export Plug-In . SVG Version: 6.00 Build 0)  -->
<svg version="1.1" id="Layer_1" xmlns="http://www.w3.org/2000/svg" xmlns:xlink="http://www.w3.org/1999/xlink" x="0px" y="0px"
	 viewBox="0 0 1024 768" style="enable-background:new 0 0 1024 768;" xml:space="preserve">
<style type="text/css">
	.st0{fill:#FFFFFF;}
	.st1{opacity:0.75;}
	.st2{fill:#BCBEC0;}
	.st3{fill:#E6E7E8;}
	.st4{display:none;opacity:0.3;fill:#BCBEC0;enable-background:new    ;}
</style>
<title>gdn_</title>
<g id="Layer_6">
	<path class="st0" d="M0,0v768h1024V0H0z M985.5,203.8h-728v-90h728V203.8z"/>
	<g class="st1">
		<rect x="30.4" y="21.9" class="st2" width="464.2" height="68.9"/>
		<rect x="30.4" y="113.8" class="st2" width="207.7" height="196.9"/>
		<rect x="30.4" y="323.6" class="st2" width="207.7" height="51.3"/>
		<rect x="30.4" y="391.8" class="st2" width="207.7" height="10.7"/>
		<rect x="30.4" y="408.8" class="st3" width="207.7" height="10.7"/>
		<rect x="30.4" y="425.8" class="st3" width="207.7" height="10.7"/>
		<rect x="30.4" y="442.8" class="st3" width="207.7" height="10.7"/>
		<rect x="30.4" y="459.8" class="st3" width="207.7" height="10.7"/>
		<rect x="30.4" y="476.8" class="st3" width="149.6" height="10.7"/>
		<rect x="260" y="292.7" class="st2" width="372.5" height="10.7"/>
		<rect x="260" y="309.8" class="st3" width="372.5" height="10.7"/>
		<rect x="260" y="326.8" class="st3" width="372.5" height="10.7"/>
		<rect x="260" y="343.8" class="st3" width="372.5" height="10.7"/>
		<rect x="260" y="569.6" class="st3" width="372.5" height="10.7"/>
		<rect x="260" y="586.6" class="st3" width="372.5" height="10.7"/>
		<rect x="260" y="603.6" class="st3" width="372.5" height="10.7"/>
		<rect x="260" y="625.7" class="st3" width="372.5" height="10.7"/>
		<rect x="260" y="642.7" class="st3" width="372.5" height="10.7"/>
		<rect x="260" y="659.7" class="st3" width="172" height="10.7"/>
		<rect x="260" y="360.8" class="st3" width="372.5" height="10.7"/>
		<rect x="260" y="377.8" class="st3" width="372.5" height="10.7"/>
		<rect x="260" y="395" class="st3" width="372.5" height="10.7"/>
		<rect x="260" y="412" class="st3" width="268.3" height="10.7"/>
		<rect x="260" y="516.1" class="st2" width="372.5" height="10.7"/>
		<rect x="260" y="533.1" class="st3" width="372.5" height="10.7"/>
		<rect x="260" y="550.1" class="st3" width="372.5" height="10.7"/>
		<rect x="260" y="697.4" class="st2" width="372.5" height="10.7"/>
		<rect x="260" y="714.6" class="st3" width="372.5" height="10.7"/>
		<rect x="260" y="731.6" class="st3" width="268.3" height="10.7"/>
		<rect x="30.4" y="507.9" class="st2" width="207.7" height="10.7"/>
		<rect x="30.4" y="524.9" class="st3" width="207.7" height="10.7"/>
		<rect x="30.4" y="541.9" class="st3" width="207.7" height="10.7"/>
		<rect x="30.4" y="558.9" class="st3" width="207.7" height="10.7"/>
		<rect x="30.4" y="575.9" class="st3" width="113.6" height="10.7"/>
		<rect x="30.4" y="609.3" class="st2" width="207.7" height="132.9"/>
		<rect x="257.5" y="448.7" class="st2" width="371.5" height="52.1"/>
		<rect x="257.5" y="224.6" class="st2" width="375.1" height="51.3"/>
		<rect x="651.2" y="377.6" class="st2" width="334.2" height="10.7"/>
		<rect x="651.2" y="394.7" class="st3" width="334.2" height="10.7"/>
		<rect x="651.2" y="411.7" class="st3" width="334.2" height="10.7"/>
		<rect x="651.2" y="428.7" class="st3" width="334.2" height="10.7"/>
		<rect x="651.2" y="654.5" class="st3" width="160" height="10.7"/>
		<rect x="651.2" y="445.7" class="st3" width="334.2" height="10.7"/>
		<rect x="651.2" y="462.7" class="st3" width="334.2" height="10.7"/>
		<rect x="651.2" y="479.9" class="st3" width="334.2" height="10.7"/>
		<rect x="651.2" y="496.9" class="st3" width="240.7" height="10.7"/>
		<rect x="651.2" y="601" class="st2" width="334.2" height="10.7"/>
		<rect x="651.2" y="618" class="st3" width="334.2" height="10.7"/>
		<rect x="651.2" y="635" class="st3" width="334.2" height="10.7"/>
		<rect x="651.2" y="697.4" class="st2" width="334.2" height="10.7"/>
		<rect x="651.2" y="714.6" class="st3" width="334.2" height="10.7"/>
		<rect x="651.2" y="731.6" class="st3" width="240.7" height="10.7"/>
		<rect x="648.9" y="531.6" class="st2" width="333.3" height="52.1"/>
		<rect x="648.9" y="224.6" class="st2" width="336.5" height="129.9"/>
		<rect x="516" y="21.9" class="st2" width="469.5" height="68.9"/>
	</g>
	<polygon class="st4" points="0,0 257.5,193.1 257.5,203.8 271.7,203.8 1024,768 0,768 	"/>
</g>
</svg>
