<svg xmlns="http://www.w3.org/2000/svg" xmlns:xlink="http://www.w3.org/1999/xlink" viewBox="0 0 1014.43 841.83">
  <defs>
    <style>
      .cls-1 {
        mask: url(#mask);
        filter: url(#luminosity-noclip-4);
      }

      .cls-15, .cls-2, .cls-4, .cls-6 {
        mix-blend-mode: multiply;
      }

      .cls-2 {
        fill: url(#linear-gradient);
      }

      .cls-3 {
        mask: url(#mask-2);
        filter: url(#luminosity-noclip-5);
      }

      .cls-4 {
        fill: url(#linear-gradient-2);
      }

      .cls-5 {
        mask: url(#mask-3);
        filter: url(#luminosity-noclip-6);
      }

      .cls-6 {
        fill: url(#linear-gradient-3);
      }

      .cls-7 {
        isolation: isolate;
      }

      .cls-8 {
        fill: url(#linear-gradient-4);
      }

      .cls-9 {
        fill: url(#linear-gradient-5);
      }

      .cls-10 {
        mask: url(#mask-4);
      }

      .cls-11 {
        opacity: 0.7;
        fill: url(#linear-gradient-6);
      }

      .cls-12 {
        fill: #010101;
      }

      .cls-13 {
        fill: url(#linear-gradient-7);
      }

      .cls-14 {
        mask: url(#mask-5);
      }

      .cls-15 {
        fill: url(#linear-gradient-8);
      }

      .cls-16 {
        fill: #303030;
      }

      .cls-17 {
        fill: #797979;
      }

      .cls-18 {
        mask: url(#mask-6);
      }

      .cls-19 {
        opacity: 0.3;
        fill: url(#linear-gradient-9);
      }

      .cls-20 {
        filter: url(#luminosity-noclip-3);
      }

      .cls-21 {
        filter: url(#luminosity-noclip-2);
      }

      .cls-22 {
        filter: url(#luminosity-noclip);
      }
    </style>
    <filter id="luminosity-noclip" x="354.32" y="-9399.4" width="305.78" height="32766" filterUnits="userSpaceOnUse" color-interpolation-filters="sRGB">
      <feFlood flood-color="#fff" result="bg"/>
      <feBlend in="SourceGraphic" in2="bg"/>
    </filter>
    <mask id="mask" x="354.32" y="-9399.4" width="305.78" height="32766" maskUnits="userSpaceOnUse">
      <g class="cls-22"/>
    </mask>
    <linearGradient id="linear-gradient" x1="507.21" y1="841.83" x2="507.21" y2="832.65" gradientUnits="userSpaceOnUse">
      <stop offset="0" stop-color="#fff"/>
      <stop offset="0.01" stop-color="#f6f6f6"/>
      <stop offset="0.05" stop-color="#c8c8c8"/>
      <stop offset="0.09" stop-color="#9d9d9d"/>
      <stop offset="0.14" stop-color="#777"/>
      <stop offset="0.2" stop-color="#575757"/>
      <stop offset="0.25" stop-color="#3b3b3b"/>
      <stop offset="0.32" stop-color="#252525"/>
      <stop offset="0.4" stop-color="#141414"/>
      <stop offset="0.49" stop-color="#090909"/>
      <stop offset="0.63" stop-color="#020202"/>
      <stop offset="1"/>
    </linearGradient>
    <filter id="luminosity-noclip-2" x="6.17" y="-9399.4" width="1002.09" height="32766" filterUnits="userSpaceOnUse" color-interpolation-filters="sRGB">
      <feFlood flood-color="#fff" result="bg"/>
      <feBlend in="SourceGraphic" in2="bg"/>
    </filter>
    <mask id="mask-2" x="6.17" y="-9399.4" width="1002.09" height="32766" maskUnits="userSpaceOnUse">
      <g class="cls-21"/>
    </mask>
    <linearGradient id="linear-gradient-2" x1="507.21" y1="700.1" x2="507.21" y2="691.84" gradientUnits="userSpaceOnUse">
      <stop offset="0" stop-color="#1a1a1a"/>
      <stop offset="0.55" stop-color="#0e0e0e"/>
      <stop offset="1"/>
    </linearGradient>
    <filter id="luminosity-noclip-3" x="201.33" y="-9399.4" width="813.09" height="32766" filterUnits="userSpaceOnUse" color-interpolation-filters="sRGB">
      <feFlood flood-color="#fff" result="bg"/>
      <feBlend in="SourceGraphic" in2="bg"/>
    </filter>
    <mask id="mask-3" x="201.33" y="-9399.4" width="813.09" height="32766" maskUnits="userSpaceOnUse">
      <g class="cls-20"/>
    </mask>
    <linearGradient id="linear-gradient-3" x1="607.88" y1="606.52" x2="607.88" gradientUnits="userSpaceOnUse">
      <stop offset="0.2"/>
      <stop offset="0.5" stop-color="#020202"/>
      <stop offset="0.6" stop-color="#090909"/>
      <stop offset="0.68" stop-color="#141414"/>
      <stop offset="0.74" stop-color="#252525"/>
      <stop offset="0.8" stop-color="#3b3b3b"/>
      <stop offset="0.84" stop-color="#575757"/>
      <stop offset="0.89" stop-color="#777"/>
      <stop offset="0.93" stop-color="#9d9d9d"/>
      <stop offset="0.96" stop-color="#c8c8c8"/>
      <stop offset="0.99" stop-color="#f6f6f6"/>
      <stop offset="1" stop-color="#fff"/>
    </linearGradient>
    <linearGradient id="linear-gradient-4" x1="354.32" y1="837.24" x2="660.1" y2="837.24" gradientUnits="userSpaceOnUse">
      <stop offset="0" stop-color="#313131"/>
      <stop offset="0.07" stop-color="#3b3b3b"/>
      <stop offset="0.16" stop-color="#4f4f4f"/>
      <stop offset="0.27" stop-color="#6a6a6a"/>
      <stop offset="0.39" stop-color="#818181"/>
      <stop offset="0.65" stop-color="#7d8080"/>
      <stop offset="0.75" stop-color="#6c6e6e"/>
      <stop offset="0.94" stop-color="#3f3f3f"/>
      <stop offset="1" stop-color="#313131"/>
    </linearGradient>
    <linearGradient id="linear-gradient-5" x1="507.21" y1="838.02" x2="507.21" y2="691.72" gradientUnits="userSpaceOnUse">
      <stop offset="0" stop-color="#535353"/>
      <stop offset="0.16" stop-color="#575858"/>
      <stop offset="0.19" stop-color="#4a4b4b"/>
      <stop offset="0.24" stop-color="#343434"/>
      <stop offset="0.27" stop-color="#3e3e3e"/>
      <stop offset="0.33" stop-color="#595959"/>
      <stop offset="0.39" stop-color="#797979"/>
      <stop offset="0.65" stop-color="#6a6b6d"/>
      <stop offset="0.76" stop-color="#59595b"/>
      <stop offset="0.97" stop-color="#2d2c2c"/>
      <stop offset="1" stop-color="#272626"/>
    </linearGradient>
    <filter id="luminosity-noclip-4" x="354.32" y="832.65" width="305.78" height="9.18" filterUnits="userSpaceOnUse" color-interpolation-filters="sRGB">
      <feFlood flood-color="#fff" result="bg"/>
      <feBlend in="SourceGraphic" in2="bg"/>
    </filter>
    <mask id="mask-4" x="354.32" y="832.65" width="305.78" height="9.18" maskUnits="userSpaceOnUse">
      <g class="cls-1">
        <path class="cls-2" d="M356.13,832.65h-1.81v4a5.28,5.28,0,0,0,5.34,5.17h295.1a5.27,5.27,0,0,0,5.34-5.17v-4Z"/>
      </g>
    </mask>
    <linearGradient id="linear-gradient-6" x1="507.21" y1="841.83" x2="507.21" y2="832.65" gradientUnits="userSpaceOnUse">
      <stop offset="0" stop-color="#313131"/>
      <stop offset="0.06" stop-color="#393939"/>
      <stop offset="0.21" stop-color="#444"/>
      <stop offset="0.42" stop-color="#4b4b4b"/>
      <stop offset="1" stop-color="#4d4d4d"/>
    </linearGradient>
    <linearGradient id="linear-gradient-7" y1="653.31" x2="1014.42" y2="653.31" gradientUnits="userSpaceOnUse">
      <stop offset="0" stop-color="#4b4b4d"/>
      <stop offset="1" stop-color="#727272"/>
    </linearGradient>
    <filter id="luminosity-noclip-5" x="6.17" y="691.84" width="1002.09" height="8.27" filterUnits="userSpaceOnUse" color-interpolation-filters="sRGB">
      <feFlood flood-color="#fff" result="bg"/>
      <feBlend in="SourceGraphic" in2="bg"/>
    </filter>
    <mask id="mask-5" x="6.17" y="691.84" width="1002.09" height="8.27" maskUnits="userSpaceOnUse">
      <g class="cls-3">
        <path class="cls-4" d="M1008.26,691.84a24.45,24.45,0,0,1-18.36,8.26H24.52a24.41,24.41,0,0,1-18.35-8.26Z"/>
      </g>
    </mask>
    <linearGradient id="linear-gradient-8" x1="507.21" y1="700.1" x2="507.21" y2="691.84" gradientUnits="userSpaceOnUse">
      <stop offset="0" stop-color="#010101"/>
      <stop offset="0.09" stop-color="#0d0d0d"/>
      <stop offset="0.25" stop-color="#2e2e2e"/>
      <stop offset="0.47" stop-color="#646464"/>
      <stop offset="0.73" stop-color="#aeaeae"/>
      <stop offset="1" stop-color="#fff"/>
    </linearGradient>
    <filter id="luminosity-noclip-6" x="201.33" y="0" width="813.09" height="606.52" filterUnits="userSpaceOnUse" color-interpolation-filters="sRGB">
      <feFlood flood-color="#fff" result="bg"/>
      <feBlend in="SourceGraphic" in2="bg"/>
    </filter>
    <mask id="mask-6" x="201.33" y="0" width="813.09" height="606.52" maskUnits="userSpaceOnUse">
      <g class="cls-5">
        <path class="cls-6" d="M1014.42,24.52v582H201.33L807.86,0h182A24.52,24.52,0,0,1,1014.42,24.52Z"/>
      </g>
    </mask>
    <linearGradient id="linear-gradient-9" x1="607.88" y1="606.52" x2="607.88" gradientUnits="userSpaceOnUse">
      <stop offset="0.2" stop-color="#fff"/>
      <stop offset="0.89" stop-color="#fff"/>
      <stop offset="1" stop-color="#fff"/>
    </linearGradient>
  </defs>
  <title>desktop-01</title>
  <g class="cls-7">
    <g id="Layer_1" data-name="Layer 1">
      <g>
        <path class="cls-8" d="M356.13,832.65h-1.81v4a5.28,5.28,0,0,0,5.34,5.17h295.1a5.27,5.27,0,0,0,5.34-5.17v-4Z"/>
        <path class="cls-9" d="M654.76,838H359.66a5.25,5.25,0,0,1-3.08-9.55l29.61-20.76A23.17,23.17,0,0,0,396,791l9.67-99.28H608.78L618.44,791a23.18,23.18,0,0,0,9.8,16.71l29.61,20.76A5.25,5.25,0,0,1,654.76,838Z"/>
        <g class="cls-10">
          <path class="cls-11" d="M356.13,832.65h-1.81v4a5.28,5.28,0,0,0,5.34,5.17h295.1a5.27,5.27,0,0,0,5.34-5.17v-4Z"/>
        </g>
        <path class="cls-12" d="M989.91.87H24.52A24.52,24.52,0,0,0,0,25.39v650.2A24.52,24.52,0,0,0,24.52,700.1H989.91a24.52,24.52,0,0,0,24.52-24.51V25.39A24.52,24.52,0,0,0,989.91.87ZM972,606.52H42.41V45.5H972Z"/>
        <path class="cls-13" d="M1014.42,606.52v69.07A24.51,24.51,0,0,1,989.9,700.1H24.52A24.53,24.53,0,0,1,0,675.59V606.52Z"/>
        <g class="cls-14">
          <path class="cls-15" d="M1008.26,691.84a24.45,24.45,0,0,1-18.36,8.26H24.52a24.41,24.41,0,0,1-18.35-8.26Z"/>
        </g>
        <path class="cls-16" d="M973,42.72H41.46a1.82,1.82,0,0,0-1.81,1.83v562h2.76V45.5H972v561h2.75v-562A1.82,1.82,0,0,0,973,42.72Z"/>
        <rect class="cls-17" y="606.52" width="1014.43" height="3.05"/>
        <g class="cls-18">
          <path class="cls-19" d="M1014.42,24.52v582H201.33L807.86,0h182A24.52,24.52,0,0,1,1014.42,24.52Z"/>
        </g>
      </g>
    </g>
  </g>
</svg>
