<svg xmlns="http://www.w3.org/2000/svg" xmlns:xlink="http://www.w3.org/1999/xlink" viewBox="0 0 1166.87 2371.61">
  <defs>
    <style>
      .cls-1 {
        fill: #ccc;
      }

      .cls-2, .cls-3 {
        fill: none;
        stroke-miterlimit: 10;
        stroke-width: 3px;
      }

      .cls-2 {
        stroke: #9b9b9b;
      }

      .cls-3 {
        stroke: #fff;
      }

      .cls-4 {
        fill: url(#linear-gradient);
      }

      .cls-5 {
        fill: url(#linear-gradient-2);
      }

      .cls-6 {
        fill: url(#linear-gradient-3);
      }

      .cls-7 {
        fill: url(#linear-gradient-4);
      }

      .cls-8 {
        fill: #3f3f3f;
      }

      .cls-9 {
        fill: url(#linear-gradient-5);
      }

      .cls-10 {
        fill: #010101;
      }

      .cls-11 {
        fill: url(#linear-gradient-6);
      }

      .cls-12 {
        fill: url(#linear-gradient-7);
      }

      .cls-13 {
        fill: url(#linear-gradient-8);
      }

      .cls-14 {
        fill: url(#linear-gradient-9);
      }

      .cls-15 {
        fill: url(#linear-gradient-10);
      }

      .cls-16 {
        fill: url(#linear-gradient-11);
      }
    </style>
    <linearGradient id="linear-gradient" x1="4.41" y1="1171.1" x2="21.38" y2="1171.1" gradientTransform="matrix(1, 0, 0, -1, 0, 2373.88)" gradientUnits="userSpaceOnUse">
      <stop offset="0" stop-color="#676767"/>
      <stop offset="0.05" stop-color="#727272"/>
      <stop offset="0.33" stop-color="#a9a8a8"/>
      <stop offset="0.57" stop-color="#d0cfcf"/>
      <stop offset="0.75" stop-color="#e8e7e7"/>
      <stop offset="0.87" stop-color="#f1f0f0"/>
      <stop offset="0.94" stop-color="#f7f6f6"/>
      <stop offset="1" stop-color="#fff"/>
    </linearGradient>
    <linearGradient id="linear-gradient-2" x1="1139.47" y1="1170.98" x2="1156.29" y2="1170.98" gradientTransform="matrix(1, 0, 0, -1, 0, 2373.88)" gradientUnits="userSpaceOnUse">
      <stop offset="0" stop-color="#fff"/>
      <stop offset="0.06" stop-color="#f7f6f6"/>
      <stop offset="0.13" stop-color="#f1f0f0"/>
      <stop offset="0.25" stop-color="#e8e7e7"/>
      <stop offset="0.43" stop-color="#d0cfcf"/>
      <stop offset="0.67" stop-color="#a9a8a8"/>
      <stop offset="0.95" stop-color="#727272"/>
      <stop offset="1" stop-color="#676767"/>
    </linearGradient>
    <linearGradient id="linear-gradient-3" x1="579.11" y1="6.73" x2="579.11" y2="141.09" gradientTransform="matrix(1, 0, 0, -1, 0, 2373.88)" gradientUnits="userSpaceOnUse">
      <stop offset="0" stop-color="#f1f0f0"/>
      <stop offset="0.11" stop-color="#e3e2e2"/>
      <stop offset="0.33" stop-color="#bfbebe"/>
      <stop offset="0.63" stop-color="#848383"/>
      <stop offset="0.99" stop-color="#333"/>
      <stop offset="1" stop-color="#303030"/>
    </linearGradient>
    <linearGradient id="linear-gradient-4" x1="579.11" y1="2206.6" x2="579.11" y2="2374.29" gradientTransform="matrix(1, 0, 0, -1, 0, 2373.88)" gradientUnits="userSpaceOnUse">
      <stop offset="0" stop-color="#303030"/>
      <stop offset="0.08" stop-color="#4c4c4c"/>
      <stop offset="0.26" stop-color="#828282"/>
      <stop offset="0.43" stop-color="#afafaf"/>
      <stop offset="0.59" stop-color="#d2d2d2"/>
      <stop offset="0.75" stop-color="#ebebeb"/>
      <stop offset="0.89" stop-color="#fafafa"/>
      <stop offset="1" stop-color="#fff"/>
    </linearGradient>
    <linearGradient id="linear-gradient-5" x1="1086.54" y1="1170.21" x2="1127.39" y2="1170.21" gradientTransform="matrix(1, 0, 0, -1, 0, 2373.88)" gradientUnits="userSpaceOnUse">
      <stop offset="0" stop-color="#f1f0f0"/>
      <stop offset="0.01" stop-color="#edecec"/>
      <stop offset="0.14" stop-color="#b4b4b4"/>
      <stop offset="0.28" stop-color="#858585"/>
      <stop offset="0.4" stop-color="#606060"/>
      <stop offset="0.52" stop-color="#464646"/>
      <stop offset="0.62" stop-color="#363636"/>
      <stop offset="0.7" stop-color="#303030"/>
    </linearGradient>
    <linearGradient id="linear-gradient-6" x1="54.24" y1="95.99" x2="1104" y2="95.99" gradientTransform="matrix(1, 0, 0, -1, 0, 2373.88)" gradientUnits="userSpaceOnUse">
      <stop offset="0" stop-color="#010101"/>
      <stop offset="0.1" stop-color="#131313"/>
      <stop offset="0.25" stop-color="#2b2b2b"/>
      <stop offset="0.4" stop-color="#3a3a3a"/>
      <stop offset="0.52" stop-color="#3f3f3f"/>
      <stop offset="0.63" stop-color="#383838"/>
      <stop offset="0.8" stop-color="#232323"/>
      <stop offset="1" stop-color="#010101"/>
    </linearGradient>
    <linearGradient id="linear-gradient-7" x1="54.24" y1="2244.36" x2="1127.42" y2="2244.36" xlink:href="#linear-gradient-6"/>
    <linearGradient id="linear-gradient-8" x1="30.8" y1="1170.92" x2="55.02" y2="1170.92" gradientTransform="matrix(1, 0, 0, -1, 0, 2373.88)" gradientUnits="userSpaceOnUse">
      <stop offset="0" stop-color="#3f3f3f"/>
      <stop offset="0.03" stop-color="#3d3d3d"/>
      <stop offset="0.67" stop-color="#141414"/>
      <stop offset="1" stop-color="#040404"/>
    </linearGradient>
    <linearGradient id="linear-gradient-9" x1="1086.41" y1="1170.07" x2="1127.39" y2="1170.07" gradientTransform="matrix(1, 0, 0, -1, 0, 2373.88)" gradientUnits="userSpaceOnUse">
      <stop offset="0" stop-color="#040404"/>
      <stop offset="0.33" stop-color="#141414"/>
      <stop offset="0.97" stop-color="#3d3d3d"/>
      <stop offset="1" stop-color="#3f3f3f"/>
    </linearGradient>
    <linearGradient id="linear-gradient-10" x1="508.32" y1="2250.03" x2="642.83" y2="2250.03" gradientTransform="matrix(1, 0, 0, -1, 0, 2373.88)" gradientUnits="userSpaceOnUse">
      <stop offset="0" stop-color="#303030"/>
      <stop offset="0.11" stop-color="#262626"/>
      <stop offset="0.3" stop-color="#191919"/>
      <stop offset="0.48" stop-color="#151515"/>
      <stop offset="0.78" stop-color="#171717"/>
      <stop offset="0.89" stop-color="#1e1e1e"/>
      <stop offset="0.97" stop-color="#292929"/>
      <stop offset="1" stop-color="#303030"/>
    </linearGradient>
    <linearGradient id="linear-gradient-11" x1="592.8" y1="110.49" x2="592.8" y2="2373.88" gradientTransform="matrix(1, 0, 0, -1, 0, 2373.88)" gradientUnits="userSpaceOnUse">
      <stop offset="0" stop-color="#fff"/>
      <stop offset="0.85" stop-color="#fff"/>
      <stop offset="1" stop-color="#fff"/>
    </linearGradient>
  </defs>
  <title>insta-story</title>
  <g id="Layer_8" data-name="Layer 8">
    <g>
      <path class="cls-1" d="M854.87,2273.62v-1H288.06a56.69,56.69,0,0,1-56.7-56.7h0a56.68,56.68,0,0,1,56.7-56.7H854.87a56.69,56.69,0,0,1,56.7,56.7h0a56.71,56.71,0,0,1-56.7,56.7v2a58.7,58.7,0,0,0,58.7-58.7h0a58.7,58.7,0,0,0-58.7-58.7H288.06a58.7,58.7,0,0,0-58.7,58.7h0a58.7,58.7,0,0,0,58.7,58.7H854.87Z"/>
      <circle class="cls-1" cx="855.12" cy="2202.18" r="4"/>
      <circle class="cls-1" cx="855.12" cy="2216.68" r="4"/>
      <circle class="cls-1" cx="855.12" cy="2231.18" r="4"/>
      <path class="cls-1" d="M968,2192.22v1h55.8l-33.68,18.23-21.43-20-.69.73v0l-.68.73,22,20.46a1,1,0,0,0,1.16.15l37.78-20.46a1,1,0,0,0-.47-1.88H968a1,1,0,0,0-.68,1.73Z"/>
      <path class="cls-1" d="M1027.72,2192.22l-.87-.5-28.64,49.45-7.12-28,37.1-20.08-.47-.88-.87-.5.87.5-.48-.88-37.79,20.46a1,1,0,0,0-.49,1.12l7.92,31.12a1,1,0,0,0,1.83.25l29.87-51.57a1,1,0,0,0-.15-1.2,1,1,0,0,0-1.19-.18Z"/>
      <path class="cls-1" d="M208.14,2215.92h-1A55.05,55.05,0,1,1,191,2177a54.89,54.89,0,0,1,16.12,38.92h2a57,57,0,1,0-57,57,57,57,0,0,0,57-57Z"/>
      <path class="cls-1" d="M179.47,2200.42a7.66,7.66,0,0,0-5.6-2.32H167l-1.58-4.2a5.72,5.72,0,0,0-2.15-2.61,5.46,5.46,0,0,0-3.2-1.1H144.18a5.46,5.46,0,0,0-3.2,1.1,5.79,5.79,0,0,0-2.15,2.61l-1.57,4.2h-6.93a7.92,7.92,0,0,0-7.92,7.92v27.71a7.92,7.92,0,0,0,7.92,7.92h43.54a7.92,7.92,0,0,0,7.92-7.92V2206A7.63,7.63,0,0,0,179.47,2200.42Zm-17.58,29.24a13.8,13.8,0,1,1,4.07-9.78A13.31,13.31,0,0,1,161.89,2229.66Z"/>
      <path class="cls-1" d="M152.1,2211a8.93,8.93,0,1,0,6.29,2.61A8.58,8.58,0,0,0,152.1,2211Z"/>
      <path class="cls-1" d="M271.87,2224a9,9,0,0,0,4.56,1.29c2.61,0,4.13-1.38,4.13-3.37,0-1.84-1.05-2.89-3.72-3.92-3.22-1.14-5.21-2.81-5.21-5.59,0-3.07,2.55-5.36,6.38-5.36a8.9,8.9,0,0,1,4.36,1l-.7,2.08a7.85,7.85,0,0,0-3.75-.94c-2.69,0-3.71,1.61-3.71,3,0,1.84,1.2,2.75,3.92,3.8,3.34,1.29,5,2.9,5,5.8s-2.25,5.68-6.9,5.68a10.24,10.24,0,0,1-5-1.26Z"/>
      <path class="cls-1" d="M288.17,2220.52c.06,3.48,2.28,4.92,4.86,4.92a9.28,9.28,0,0,0,3.92-.74l.44,1.85a11.48,11.48,0,0,1-4.71.88c-4.36,0-7-2.87-7-7.15s2.52-7.63,6.65-7.63c4.62,0,5.85,4.06,5.85,6.67a9.54,9.54,0,0,1-.09,1.2Zm7.55-1.85c0-1.63-.67-4.18-3.57-4.18-2.6,0-3.74,2.4-3.95,4.18Z"/>
      <path class="cls-1" d="M301.4,2216.8c0-1.46,0-2.66-.11-3.83h2.28l.15,2.34h0a5.22,5.22,0,0,1,4.69-2.66c2,0,5,1.17,5,6v8.46h-2.57V2219c0-2.29-.85-4.19-3.28-4.19a3.66,3.66,0,0,0-3.46,2.64,3.9,3.9,0,0,0-.17,1.2v8.51H301.4Z"/>
      <path class="cls-1" d="M329.88,2206.35v17.12c0,1.26,0,2.7.12,3.66h-2.31l-.12-2.46h-.06a5.24,5.24,0,0,1-4.83,2.79c-3.42,0-6.05-2.9-6.05-7.21,0-4.71,2.89-7.6,6.35-7.6a4.73,4.73,0,0,1,4.27,2.16h.06v-8.46Zm-2.57,12.38a4.42,4.42,0,0,0-.12-1.08,3.79,3.79,0,0,0-3.72-3c-2.66,0-4.24,2.35-4.24,5.48,0,2.87,1.41,5.24,4.19,5.24a3.87,3.87,0,0,0,3.77-3.08,4.34,4.34,0,0,0,.12-1.11Z"/>
      <path class="cls-1" d="M340.37,2216.8c0-1.46,0-2.66-.12-3.83h2.25l.12,2.28h.09a4.86,4.86,0,0,1,4.45-2.6,4.18,4.18,0,0,1,4,2.83h.06a5.91,5.91,0,0,1,1.58-1.84,4.87,4.87,0,0,1,3.14-1c1.87,0,4.65,1.22,4.65,6.14v8.34h-2.52v-8c0-2.72-1-4.36-3.07-4.36a3.33,3.33,0,0,0-3,2.34,4.2,4.2,0,0,0-.21,1.29v8.75h-2.52v-8.48c0-2.26-1-3.9-3-3.9a3.52,3.52,0,0,0-3.19,2.58,3.47,3.47,0,0,0-.21,1.26v8.54h-2.51Z"/>
      <path class="cls-1" d="M366.21,2220.52c.06,3.48,2.29,4.92,4.86,4.92a9.24,9.24,0,0,0,3.92-.74l.44,1.85a11.4,11.4,0,0,1-4.71.88c-4.36,0-7-2.87-7-7.15s2.51-7.63,6.64-7.63c4.62,0,5.85,4.06,5.85,6.67a9.54,9.54,0,0,1-.09,1.2Zm7.56-1.85c0-1.63-.68-4.18-3.58-4.18-2.6,0-3.74,2.4-3.95,4.18Z"/>
      <path class="cls-1" d="M379.09,2224.5a6.77,6.77,0,0,0,3.4,1c1.87,0,2.75-.93,2.75-2.1s-.73-1.91-2.63-2.61c-2.55-.91-3.75-2.31-3.75-4,0-2.28,1.84-4.15,4.89-4.15a7.17,7.17,0,0,1,3.48.87l-.64,1.88a5.54,5.54,0,0,0-2.9-.82c-1.52,0-2.37.88-2.37,1.93s.85,1.7,2.69,2.4c2.46.94,3.72,2.16,3.72,4.27,0,2.49-1.93,4.25-5.3,4.25a8.15,8.15,0,0,1-4-1Z"/>
      <path class="cls-1" d="M390.69,2224.5a6.7,6.7,0,0,0,3.39,1c1.87,0,2.75-.93,2.75-2.1s-.73-1.91-2.63-2.61c-2.55-.91-3.75-2.31-3.75-4,0-2.28,1.85-4.15,4.89-4.15a7.17,7.17,0,0,1,3.48.87l-.64,1.88a5.54,5.54,0,0,0-2.9-.82c-1.52,0-2.37.88-2.37,1.93s.85,1.7,2.69,2.4c2.46.94,3.72,2.16,3.72,4.27,0,2.49-1.93,4.25-5.3,4.25a8.15,8.15,0,0,1-4-1Z"/>
      <path class="cls-1" d="M410.47,2227.13l-.2-1.78h-.09a5.28,5.28,0,0,1-4.33,2.11,4,4,0,0,1-4.33-4.07c0-3.43,3-5.3,8.52-5.27v-.29c0-1.17-.33-3.28-3.22-3.28a7.08,7.08,0,0,0-3.69,1l-.59-1.7a8.81,8.81,0,0,1,4.66-1.25c4.33,0,5.38,2.95,5.38,5.79v5.3a19.36,19.36,0,0,0,.24,3.39Zm-.38-7.23c-2.81-.05-6,.44-6,3.19a2.28,2.28,0,0,0,2.43,2.46,3.53,3.53,0,0,0,3.43-2.37,2.57,2.57,0,0,0,.14-.82Z"/>
      <path class="cls-1" d="M428.94,2213c-.05,1-.11,2.16-.11,3.89v8.22c0,3.25-.65,5.24-2,6.47a7.51,7.51,0,0,1-5.15,1.7,9.13,9.13,0,0,1-4.71-1.17l.64-2a8.05,8.05,0,0,0,4.16,1.11c2.63,0,4.56-1.38,4.56-4.95v-1.58h-.06a5,5,0,0,1-4.5,2.37c-3.52,0-6-3-6-6.9,0-4.8,3.13-7.52,6.38-7.52a4.73,4.73,0,0,1,4.42,2.45h.05l.12-2.13Zm-2.66,5.59a3.57,3.57,0,0,0-.15-1.17,3.69,3.69,0,0,0-3.59-2.73c-2.46,0-4.22,2.08-4.22,5.36,0,2.78,1.41,5.09,4.19,5.09a3.76,3.76,0,0,0,3.57-2.63,4.7,4.7,0,0,0,.2-1.38Z"/>
      <path class="cls-1" d="M434.54,2220.52c.06,3.48,2.28,4.92,4.86,4.92a9.31,9.31,0,0,0,3.92-.74l.44,1.85a11.48,11.48,0,0,1-4.71.88c-4.37,0-7-2.87-7-7.15s2.52-7.63,6.64-7.63c4.63,0,5.86,4.06,5.86,6.67a9.54,9.54,0,0,1-.09,1.2Zm7.55-1.85c0-1.63-.67-4.18-3.57-4.18-2.61,0-3.75,2.4-3.95,4.18Z"/>
    </g>
    <circle class="cls-1" cx="143.16" cy="277.28" r="38.3"/>
    <rect class="cls-1" x="210.95" y="273.07" width="222.13" height="15.32"/>
    <rect class="cls-1" x="454.53" y="266.94" width="45.19" height="21.45"/>
    <line class="cls-2" x1="87.63" y1="215.62" x2="1068.82" y2="215.62"/>
    <line class="cls-3" x1="87.63" y1="215.62" x2="377.93" y2="215.62"/>
  </g>
  <g id="Phone">
    <g>
      <g>
        <g>
          <g>
            <path class="cls-4" d="M143,2351.79a30.14,30.14,0,0,1-3.69-.37h0c-2.42-.28-4.83-.65-7.19-1.05a152.45,152.45,0,0,1-41-13.14l-2.7-1.3c-2.29-1.2-4.52-2.41-6.75-3.68l-3.1-1.8a151.67,151.67,0,0,1-14.52-10l-2.48-1.95c-2.45-2-4.86-4-7.15-6.2l-2.26-2.13c-.87-.84-1.74-1.65-2.58-2.51s-1.67-1.68-2.47-2.54l-1.61-1.68-2.05-2.26a149.83,149.83,0,0,1-11-13.78c-.62-.84-1.21-1.73-1.8-2.57-1.86-2.69-3.56-5.45-5.2-8.24-.62-1-1.21-2-1.77-3.1A149.88,149.88,0,0,1,13,2249.68c-.41-1.15-.81-2.26-1.15-3.41a145,145,0,0,1-4.52-17.53c-.25-1.21-.5-2.39-.68-3.59a155.42,155.42,0,0,1-2.2-25.93V206.77a153.37,153.37,0,0,1,146-153A138.76,138.76,0,0,0,19.09,192V2214A138.75,138.75,0,0,0,143,2351.79Z"/>
            <path class="cls-5" d="M1153.75,206.77V2199.38a152.38,152.38,0,0,1-7.41,47c-.34,1.15-.71,2.3-1.14,3.41s-.78,2.26-1.21,3.38-.62,1.67-1,2.51c-1,2.47-2,4.92-3.1,7.37-.49,1.08-1,2.17-1.52,3.09s-1.45,3-2.23,4.4-1,2-1.58,3.1-1.14,2-1.76,3.1c-1.64,2.78-3.38,5.57-5.24,8.3-.58.83-1.17,1.73-1.79,2.57s-1.36,1.89-2.08,2.85-1.39,1.89-2.1,2.78l-2.17,2.76-2.29,2.73c-1.52,1.76-3.1,3.53-4.68,5.23-2.45,2.63-5,5.17-7.65,7.65l-2.42,2.17c-1.82,1.64-3.71,3.1-5.6,4.8l-2.51,2c-2.79,2.17-5.67,4.21-8.58,6.2l-2.94,1.95c-2,1.27-4,2.47-6.2,3.65-1,.59-2,1.15-3.09,1.67-3.32,1.83-6.66,3.53-10.13,5.05-.9.44-1.8.81-2.73,1.21s-2.13.93-3.25,1.36L1054,2343c-2.48.93-5,1.8-7.56,2.61l-2.66.8c-3.35,1-6.79,1.86-10.23,2.63l-3.62.78c-1.27.25-2.54.49-3.87.68-2.39.4-4.77.77-7.19,1.05h0c-1.2,0-2.44.28-3.68.37a138.79,138.79,0,0,0,123.89-137.79V192A138.77,138.77,0,0,0,1011.49,53.92,153.32,153.32,0,0,1,1153.75,206.77Z"/>
            <path class="cls-6" d="M1153.75,2199.38V2214a153.31,153.31,0,0,1-153.16,153.15H157.66A153.33,153.33,0,0,1,4.47,2214v-14.62a155.21,155.21,0,0,0,2.2,25.92c.19,1.21.43,2.39.68,3.59a144.49,144.49,0,0,0,4.52,17.53c.34,1.15.75,2.27,1.15,3.41a149.63,149.63,0,0,0,10.72,23.85c.55,1.05,1.14,2.09,1.76,3.1,1.64,2.78,3.35,5.54,5.2,8.24.59.83,1.18,1.73,1.8,2.57a150.48,150.48,0,0,0,10.9,13.62l2,2.2,1.62,1.68c.8.86,1.67,1.7,2.47,2.53s1.71,1.68,2.57,2.51l2.26,2.14c2.3,2.11,4.71,4.15,7.16,6.19l2.48,2a151.67,151.67,0,0,0,14.52,10l3.1,1.8c2.23,1.27,4.46,2.47,6.75,3.68l2.7,1.3a152,152,0,0,0,41,13.13c2.36.41,4.77.78,7.19,1.06h0c2.45.31,4.89.52,7.4.71l3.78.22c2.38,0,4.77.18,7.22.18h843c2.42,0,4.77,0,7.15-.18l3.78-.22c2.05-.16,4-.34,6-.56h1.39c2.42-.28,4.84-.65,7.19-1.05,1.33-.19,2.6-.43,3.87-.68l3.63-.78c3.43-.77,6.87-1.64,10.22-2.63l2.66-.8c2.57-.81,5.08-1.68,7.56-2.61l3.34-1.3c1.12-.43,2.2-.86,3.25-1.36s1.83-.77,2.73-1.21a94.62,94.62,0,0,0,10.13-5.05c1-.52,2-1.05,3.09-1.67,2.05-1.18,4.06-2.38,6.2-3.65,1-.62,2-1.27,2.94-1.95,2.91-2,5.79-4,8.58-6.2l2.51-2c1.89-1.58,3.78-3.1,5.61-4.8.83-.71,1.61-1.43,2.41-2.17,2.63-2.48,5.2-5,7.65-7.65,1.61-1.7,3.1-3.47,4.68-5.23l2.29-2.73c.74-.9,1.49-1.83,2.17-2.76s1.45-1.85,2.1-2.78,1.43-1.89,2.08-2.85,1.21-1.74,1.8-2.57c1.85-2.73,3.59-5.52,5.23-8.3.62-1,1.21-2.07,1.76-3.1a29.9,29.9,0,0,0,1.58-3.1c.5-1.14,1.52-2.91,2.23-4.4s1.06-2.13,1.52-3.09c1.12-2.45,2.17-4.9,3.1-7.37.37-.84.68-1.68,1-2.51s.84-2.23,1.21-3.38.8-2.26,1.14-3.41A152.35,152.35,0,0,0,1153.75,2199.38Z"/>
          </g>
          <path class="cls-7" d="M1153.75,192v14.65A153.32,153.32,0,0,0,1015.24,54.23l-3.72-.31-3.78-.25h0c-2.38,0-4.7-.15-7.12-.15h-843c-2.42,0-4.77,0-7.13.15h0A153.38,153.38,0,0,0,4.47,206.77V184.16A64.23,64.23,0,0,1,5,176.85a30.66,30.66,0,0,1,.4-3.72,15.33,15.33,0,0,1,.25-2c.09-.68.22-1.58.37-2.39s.37-2.5.59-3.77c.4-2.2.83-4.37,1.33-6.48.22-1.08.5-2.13.74-3.09.78-3.1,1.65-6.2,2.64-9.3.34-1,.65-2,1-2.91s.8-2.38,1.24-3.56l1.11-2.94c.31-.81.62-1.58,1-2.39l1.21-2.85c.31-.74.62-1.45,1-2.13s.93-2.08,1.46-3.1c.86-1.83,1.76-3.65,2.72-5.42.47-.9,1-1.83,1.49-2.73s1.17-2.1,1.79-3.09A157.86,157.86,0,0,1,39.69,94.46L42,91.74c.87-1,1.76-2,2.69-3.1,1.52-1.64,3.1-3.25,4.62-4.8s3.4-3.31,5.17-4.92,3.56-3.1,5.42-4.68c.9-.77,1.83-1.52,2.79-2.26,1.86-1.46,3.75-2.91,5.73-4.31s3.87-2.72,5.88-4,4.06-2.54,6.2-3.75c1-.62,2.07-1.21,3.09-1.8s2.11-1.11,3.1-1.67l3.1-1.64,3.28-1.58c2.17-1,4.4-2,6.66-2.88l3.1-1.27h.31l3.28-1.21c1.08-.34,2.17-.71,3.1-1.11l3.71-1.15,3.53-1,4.06-1.24c1.21-.28,2.39-.59,3.59-.84,2.42-.55,4.87-1,7.31-1.45,1.21-.19,2.42-.4,3.66-.56,2.63-.4,5.3-.71,8-1,2.1-.18,4.24-.34,6.38-.46h858.08c2.5,0,5,.31,7.4.52h0l3.81.65a24.16,24.16,0,0,1,3.71.5l3.69.56L1030,42h0l3.6.77,3.28.71.68.19,3.1.81,4.24,1.23,2.88.9c2.14.72,4.24,1.46,6.35,2.23,1.43.5,2.82,1.06,4.21,1.64s2,.84,3.1,1.31,2.2,1,3.31,1.48l3.26,1.55A148.53,148.53,0,0,1,1090,68c.84.56,1.68,1.18,2.51,1.83,3.1,2.29,6,4.65,8.8,7.13,1.27,1.08,2.48,2.19,3.68,3.34A147.51,147.51,0,0,1,1118.78,95c.78.93,1.53,1.86,2.23,2.79,1.58,2,3.1,3.9,4.43,5.91.74,1,1.42,2,2.1,3.1,1.21,1.7,2.36,3.5,3.44,5.3l1.64,2.69c1,1.74,2,3.47,2.94,5.24.47.86.93,1.7,1.34,2.6,1.55,2.94,2.94,5.91,4.3,9,.31.8.68,1.58,1,2.42q1.9,4.64,3.47,9.29c.44,1.17.81,2.32,1.15,3.47a154.4,154.4,0,0,1,4.92,20.47,16.27,16.27,0,0,0,.34,2.29c.13.81.37,2.45.5,3.69s.31,2.47.4,3.71.25,2.54.37,3.78c.16,2.32.25,4.62.31,7C1153.71,189.16,1153.75,190.6,1153.75,192Z"/>
        </g>
        <path class="cls-8" d="M1007.74,53.77h0c-2.35,0-4.7-.16-7.12-.16h-843c-2.42,0-4.77,0-7.13.16h0A138.75,138.75,0,0,0,19.09,192V2214a138.72,138.72,0,0,0,127.57,138.13l3.78.22c2.39,0,4.77.18,7.22.18h842.93c2.42,0,4.77,0,7.15-.18l3.78-.22A138.75,138.75,0,0,0,1139.13,2214V192A138.75,138.75,0,0,0,1007.74,53.77ZM1127.42,2214a127.42,127.42,0,0,1-116.7,126.46c-1.18,0-2.39.18-3.56.21H151a18.55,18.55,0,0,1-3.44-.21A127.42,127.42,0,0,1,30.8,2214V192a126.78,126.78,0,0,1,120-126.56h.34c2.14,0,4.34-.15,6.54-.15h842.93c2.2,0,4.4,0,6.53.15h.19A126.71,126.71,0,0,1,1127.42,192Z"/>
        <path class="cls-9" d="M1127.42,193V2214.83a125.8,125.8,0,0,1-16.57,62.35c-1,1.7-2,3.34-3.1,5-1.58,2.47-3.09,4.86-4.92,7.21a133.84,133.84,0,0,1-16.32,18.31,131.85,131.85,0,0,0,17.43-65.57V165.67a132.28,132.28,0,0,0-17.47-66A126.56,126.56,0,0,1,1127.42,193Z"/>
        <g>
          <path class="cls-10" d="M1006.63,77.15H151.09A115.16,115.16,0,0,0,42.47,192V2213.87a115.69,115.69,0,0,0,106.05,114.82l2.79.18h855.57l2.91-.22a115.61,115.61,0,0,0,105.92-114.78V192A115.05,115.05,0,0,0,1006.63,77.15ZM1084.93,2214a84.16,84.16,0,0,1-17.5,51.29l-1.83,2.26a83,83,0,0,1-5.85,6.44c-1.83,1.77-3.75,3.53-5.73,5.17h0a84.14,84.14,0,0,1-7.81,5.73,80.72,80.72,0,0,1-8.42,4.83h0c-1.46.75-2.91,1.43-4.43,2.05h0c-1.49.65-3.1,1.24-4.59,1.79a84.73,84.73,0,0,1-9.5,2.79,89.86,89.86,0,0,1-12,1.8H150.94A84.84,84.84,0,0,1,73.2,2214V192a84.48,84.48,0,0,1,78.85-84.15h853.77a9.52,9.52,0,0,1,2.45.21,7,7,0,0,1,1.12,0,18,18,0,0,1,2.19.28,21.23,21.23,0,0,1,2.64.37h0c1.27.16,2.51.41,3.74.65a2.94,2.94,0,0,0,.72.19c1.05.18,2,.46,3.09.74l4.43,1.3c1.15.34,2.33.75,3.47,1.18s2.48.93,3.69,1.46a77.61,77.61,0,0,1,7.34,3.43c2.1,1.12,4.15,2.36,6.19,3.66a16.18,16.18,0,0,0,1.37.9l2.41,1.73c1.07.73,2.11,1.52,3.1,2.35,2,1.68,4,3.38,5.82,5.18a33.77,33.77,0,0,1,2.7,2.78c.9,1,1.77,1.93,2.6,2.88a84.22,84.22,0,0,1,9,12.73c1.3,2.27,2.48,4.59,3.59,7s2.08,4.8,3.1,7.31c.46,1.27.87,2.51,1.21,3.78a78.27,78.27,0,0,1,2,8.39c.22,1.12.43,2.23.56,3.38a85.56,85.56,0,0,1,.9,12.39Z"/>
          <path class="cls-10" d="M298.61,146.65c-.31-.59-.56-1.14-.8-1.73a4.85,4.85,0,0,1-.25-.62C297.9,145.1,298.24,145.88,298.61,146.65Z"/>
          <path class="cls-10" d="M860.66,144.3c0,.18-.19.4-.25.62a17.41,17.41,0,0,1-.8,1.73C860,145.88,860.32,145.1,860.66,144.3Z"/>
        </g>
        <path class="cls-10" d="M878.93,107.72a14.1,14.1,0,0,0-13.29,12.61v1.85a54.75,54.75,0,0,1-.8,7.56,11.6,11.6,0,0,1-.47,2.54h0c-.21,1.05-.43,2.05-.71,3.1s-.46,1.79-.74,2.69l-.19.65-.24.68a3.24,3.24,0,0,1-.16.53,3.56,3.56,0,0,1-.31.9,8.5,8.5,0,0,1-.37,1,22,22,0,0,1-.93,2.45c-.34.8-.68,1.58-1.05,2.35a1.61,1.61,0,0,1,0,.31v.19c-.31.65-.65,1.3-1,1.95s-.56,1.11-.87,1.67a2.17,2.17,0,0,1-.31.53,3.24,3.24,0,0,1-.47.83,10.68,10.68,0,0,1-.65,1.15,1.92,1.92,0,0,0-.18.31L856,154c-.19.28-.31.5-.49.75s-.35.55-.53.83l-.47.72a2.88,2.88,0,0,1-.27.34l-.56.86c0,.19-.28.41-.44.56a4.55,4.55,0,0,1-.62.84v.21a.28.28,0,0,1-.18,0c-.19.31-.43.59-.65.9a1,1,0,0,1-.28.34,7.9,7.9,0,0,1-.77,1h0l-1,1.18a10,10,0,0,1-1.05,1.21h0a7.6,7.6,0,0,1-.68.71,6.54,6.54,0,0,1-.77.81,4.77,4.77,0,0,1-.75.74c-.43.46-.86.9-1.36,1.36l-1.08,1-.65.62-1.65,1.36-1.58,1.27-1,.75a13.27,13.27,0,0,1-1.14.83h0l-1.15.78a2,2,0,0,1-.49.37c-.62.4-1.27.84-1.92,1.21a10.92,10.92,0,0,1-1.49.93,18.55,18.55,0,0,1-2,1.08l-.75.43h-.15l-1.46.75a12.59,12.59,0,0,1-1.64.93l-1.18.52-.65.28-.52.22h0c-1.06.43-2,.84-3.1,1.21l-2.88,1-3.1.9c-2.13.52-4.36,1-6.56,1.33-.9,0-1.86.28-2.79.37h-.59l-2.35.19h-448l-2.39-.19h-.55a17.33,17.33,0,0,1-2.79-.37c-2.2-.34-4.43-.81-6.57-1.33l-3.1-.9c-1-.31-1.92-.65-2.88-1s-2-.78-3.09-1.21h0l-.53-.22-.65-.28-1.24-.52a13.13,13.13,0,0,1-1.3-.65c-.5-.25-1-.47-1.46-.75h0l-.74-.43a18.55,18.55,0,0,1-1.95-1.08,13.71,13.71,0,0,1-1.52-.93l-1.89-1.21a2.73,2.73,0,0,1-.52-.37,10.68,10.68,0,0,1-1.12-.78h0c-.4-.28-.77-.52-1.14-.83l-1-.75-1.57-1.27-1.65-1.36-.65-.62-1.08-1-1.39-1.36a5.66,5.66,0,0,1-.72-.75,5.83,5.83,0,0,1-.77-.8,7.6,7.6,0,0,1-.68-.71h0a6.54,6.54,0,0,1-.53-.65c-.56-.62-1.05-1.21-1.55-1.83h0a5.89,5.89,0,0,1-.77-1,1,1,0,0,1-.28-.34l-.68-.9h0v-.22a5,5,0,0,1-.62-.83s-.28-.38-.44-.56l-.55-.87a1.3,1.3,0,0,1-.28-.34l-1-.9a5.56,5.56,0,0,1-.53-.83l-.5-.75-.24-.43a2,2,0,0,0-.19-.31,12.71,12.71,0,0,1-.65-1.15,3.2,3.2,0,0,1-.46-.83,4.07,4.07,0,0,1-.31-.53c-.31-.56-.62-1.11-.87-1.67s-.68-1.3-1-1.95V147a.81.81,0,0,1,0-.31c-.37-.77-.71-1.55-1.06-2.35a24.1,24.1,0,0,1-.92-2.45c-.16-.34-.25-.68-.38-1s-.21-.59-.31-.9a4.61,4.61,0,0,1-.15-.53,3.06,3.06,0,0,1-.25-.68l-.18-.65c-.28-.9-.56-1.79-.75-2.69s-.52-2-.71-3.1h0a21.8,21.8,0,0,1-.46-2.54,56.36,56.36,0,0,1-.81-7.56v-1.85a14.1,14.1,0,0,0-13.29-12.61Z"/>
        <path class="cls-10" d="M296.63,141.85h0a6.82,6.82,0,0,1-.31-.9A5.38,5.38,0,0,0,296.63,141.85Z"/>
        <path class="cls-10" d="M298.61,146.65c-.31-.59-.56-1.14-.8-1.73a4.85,4.85,0,0,1-.25-.62C297.9,145.1,298.24,145.88,298.61,146.65Z"/>
        <path class="cls-10" d="M306.85,160.19c-.31-.34-.56-.72-.84-1.06h0Z"/>
        <path class="cls-10" d="M309.48,163.31a12.36,12.36,0,0,1-1-1.14,6.13,6.13,0,0,1-.56-.68h0C308.43,162.11,308.92,162.7,309.48,163.31Z"/>
        <path class="cls-10" d="M310.72,164.68A7.93,7.93,0,0,1,310,164h0A7.93,7.93,0,0,0,310.72,164.68Z"/>
        <path class="cls-10" d="M318.56,171.83c-.53-.37-1.06-.8-1.58-1.24a9.35,9.35,0,0,1-.93-.8,5.92,5.92,0,0,0-.71-.59l1.64,1.36Z"/>
        <path class="cls-10" d="M319.55,172.58c.37.31.74.55,1.14.83l-.34-.18A8.4,8.4,0,0,1,319.55,172.58Z"/>
        <path class="cls-10" d="M324.26,175.8l-1.12-.68h0l-.68-.5Z"/>
        <path class="cls-10" d="M336.86,181.93c-.87-.31-1.73-.59-2.6-1l-.5-.25C334.82,181.15,335.81,181.56,336.86,181.93Z"/>
        <path class="cls-10" d="M339.74,182.92l3.1.9-2.17-.59-1-.28-1.43-.46c-.49-.19-1-.34-1.45-.56A26.5,26.5,0,0,0,339.74,182.92Z"/>
        <path class="cls-10" d="M349.5,185.15c.9,0,1.86.28,2.79.37a20.49,20.49,0,0,1-2.48-.31h-.31l-1.12-.18a11.15,11.15,0,0,1-2.2-.41L343.4,184h-.47C345.07,184.34,347.3,184.81,349.5,185.15Z"/>
        <path class="cls-10" d="M803,185.83l2.35-.18h-2.2Z"/>
        <path class="cls-10" d="M808.72,185.15c2.2-.34,4.43-.81,6.56-1.33h-.46l-2.79.65a18.11,18.11,0,0,0-2.2.4l-1.11.19h-.31a23,23,0,0,1-2.48.31A12.37,12.37,0,0,0,808.72,185.15Z"/>
        <path class="cls-10" d="M821.35,181.93c-.46.22-1,.37-1.45.56l-1.43.46-1.05.28-2.14.59,3.1-.9Z"/>
        <path class="cls-10" d="M821.35,181.93c1.06-.37,2-.78,3.1-1.21L824,181C823.06,181.34,822.22,181.62,821.35,181.93Z"/>
        <path class="cls-10" d="M833.93,175.8c.65-.38,1.3-.81,1.92-1.21l-.71.49h0A9.89,9.89,0,0,1,833.93,175.8Z"/>
        <path class="cls-10" d="M838.67,172.58a10,10,0,0,1-.81.65l-.34.18C837.92,173.13,838.3,172.89,838.67,172.58Z"/>
        <path class="cls-10" d="M842.88,169.2c-.25.19-.43.4-.71.59a11,11,0,0,0-.93.8c-.28.25-1,.87-1.58,1.24l1.58-1.27Z"/>
        <path class="cls-10" d="M848.21,164a7.93,7.93,0,0,1-.71.71,7.6,7.6,0,0,0,.68-.71Z"/>
        <path class="cls-10" d="M850.31,161.49a5.11,5.11,0,0,1-.55.68,3.63,3.63,0,0,1-.47.49l1-1.17Z"/>
        <path class="cls-10" d="M852.2,159.13l-.83,1.06c.21-.31.46-.59.65-.9A.31.31,0,0,0,852.2,159.13Z"/>
        <path class="cls-10" d="M860.66,144.3c0,.18-.19.4-.25.62a17.41,17.41,0,0,1-.8,1.73C860,145.88,860.32,145.1,860.66,144.3Z"/>
        <path class="cls-10" d="M862,140.83c-.09.3-.19.6-.31.9h0C861.74,141.51,861.84,141.17,862,140.83Z"/>
        <g>
          <path class="cls-11" d="M1104,2218.8v23.32a131.85,131.85,0,0,1-17.43,65.57,126.14,126.14,0,0,1-75.79,33.38c-1.18,0-2.39.19-3.56.22H151.06a17.62,17.62,0,0,1-3.44-.22,47.35,47.35,0,0,1-4.83-.49,126.09,126.09,0,0,1-71-32.86,132.09,132.09,0,0,1-17.56-65.82v-27.41a103.48,103.48,0,0,0,36.43,78.58,102.22,102.22,0,0,0,58.84,24.53h2.85c1.8,0,3.59.15,5.42.15h842.87c1.77,0,3.53,0,5.3-.15H1009A103.85,103.85,0,0,0,1104,2218.8Z"/>
          <path class="cls-12" d="M1127.42,193v-.22A126.71,126.71,0,0,0,1007.31,66.09H150.84c-2.75.16-5.45.38-8.14.72a126.12,126.12,0,0,0-71,32.64,132.38,132.38,0,0,0-17.47,66v27.29A103.42,103.42,0,0,1,151.49,89.48h854.64A103.38,103.38,0,0,1,1104,188.59V165.67a132.37,132.37,0,0,0-17.46-66A126.56,126.56,0,0,1,1127.42,193Z"/>
          <path class="cls-13" d="M71.77,2307.1a127,127,0,0,1-41-93.1V192a126.65,126.65,0,0,1,40.85-93.2,132.41,132.41,0,0,0-17.47,66V2241.28A131.78,131.78,0,0,0,71.77,2307.1Z"/>
          <path class="cls-14" d="M1127.42,193V2214.83a125.8,125.8,0,0,1-16.57,62.35c-1,1.7-2,3.34-3.1,5a78.51,78.51,0,0,1-4.92,7.21,124.92,124.92,0,0,1-16.48,18.59l.16-.22a131.85,131.85,0,0,0,17.43-65.57V165.67a132.28,132.28,0,0,0-17.47-66A126.56,126.56,0,0,1,1127.42,193Z"/>
        </g>
        <rect class="cls-15" x="508.32" y="116.8" width="134.51" height="14.12" rx="1.02"/>
      </g>
      <path class="cls-16" d="M58.89,2176.74a.66.66,0,0,0,0-.44c0,.16,0,.28.28.44Zm22.33,37.32h.28c.28,0,.59.71.87,1.14a5.54,5.54,0,0,1-1.27-1.14Zm54.14,40,1.55.44c.15,0,.28,0,.43.28a9.22,9.22,0,0,0-2.11-.72Zm912.18,9.29h.16a4.06,4.06,0,0,0,1.39,0,4.21,4.21,0,0,0-1.67,0ZM1122.74.71a2.23,2.23,0,0,0-.55-.71,15.89,15.89,0,0,0,1.54,1.42A2.35,2.35,0,0,0,1122.74.71Zm1.86,2226.88c.4-.43.68-.83,1.12-1.27a4.64,4.64,0,0,1,1-.83c-.72.55-1.43,1.39-2.11,2Z"/>
    </g>
  </g>
</svg>
