<?xml version="1.0" encoding="utf-8"?>
<!-- Generator: Adobe Illustrator 23.0.0, SVG Export Plug-In . SVG Version: 6.00 Build 0)  -->
<svg version="1.1" id="Layer_1" xmlns="http://www.w3.org/2000/svg" xmlns:xlink="http://www.w3.org/1999/xlink" x="0px" y="0px"
	 viewBox="0 0 1166.9 2371.6" style="enable-background:new 0 0 1166.9 2371.6;" xml:space="preserve">
<style type="text/css">
	.st0{fill:#FFFFFF;}
	.st1{opacity:0.4;}
	.st2{fill:#E2E2E2;}
	.st3{fill:#EC4956;}
	.st4{fill:none;}
	.st5{fill:#262626;}
	.st6{fill:#1D1E1E;}
	.st7{fill:none;stroke:#DDDDDD;stroke-width:2;stroke-miterlimit:10;}
	.st8{opacity:0.5;}
	.st9{fill:#AAAAAA;}
	.st10{fill-rule:evenodd;clip-rule:evenodd;fill:#FFFFFF;}
	.st11{fill:url(#SVGID_1_);}
	.st12{fill:url(#SVGID_2_);}
	.st13{fill:url(#SVGID_3_);}
	.st14{fill:url(#SVGID_4_);}
	.st15{fill:#3F3F3F;}
	.st16{fill:url(#SVGID_5_);}
	.st17{fill:#010101;}
	.st18{fill:url(#SVGID_6_);}
	.st19{fill:url(#SVGID_7_);}
	.st20{fill:url(#SVGID_8_);}
	.st21{fill:url(#SVGID_9_);}
	.st22{fill:url(#SVGID_10_);}
	.st23{fill:url(#SVGID_11_);}
	.st24{display:none;opacity:0.2;fill:url(#SVGID_12_);enable-background:new    ;}
</style>
<g>
	<path class="st0" d="M1106.8,652.3l-2.8-486.6l-37.9-53l-46.2-34c0,0-868.8-1.5-918.9,13.2s-61.9,54.9-61.9,54.9l-2.1,505.6H1106.8
		z"/>
	<polygon class="st0" points="32.9,1663.4 30.8,2176.3 39.1,2258.9 90.7,2293.1 148.5,2328.7 991.9,2328.9 1055.9,2308 
		1091.7,2263.3 1115.7,2213.9 1112.6,1663.4 	"/>
</g>
<g id="BG" class="st1">
	
		<image style="overflow:visible;enable-background:new    ;" width="304" height="86" id="Vector_Smart_Object_Image" xlink:href="70832FEC.png"  transform="matrix(0.6622 0 0 0.6622 475.4542 210.81)">
	</image>
	
		<image style="overflow:visible;enable-background:new    ;" width="78" height="70" id="Vector_Smart_Object_Image-2" xlink:href="70832FE2.png"  transform="matrix(0.6604 0 0 0.6604 103.5783 206.77)">
	</image>
	
		<image style="overflow:visible;enable-background:new    ;" width="77" height="56" id="Vector_Smart_Object_Image-3" xlink:href="70832FE0.png"  transform="matrix(0.658 0 0 0.658 999.4656 214.18)">
	</image>
	<g id="Rectangle_1">
		<rect x="70.5" y="276.2" class="st2" width="1012.4" height="2"/>
	</g>
	<g id="Shape_1">
		<path class="st3" d="M1050.6,207.5c-2.9,0-5.3,2.4-5.3,5.3s2.4,5.3,5.3,5.3s5.3-2.4,5.3-5.3
			C1055.9,209.9,1053.5,207.5,1050.6,207.5L1050.6,207.5z"/>
	</g>
	<g id="Ellipse_3_Post_Profile_Image_Clipping_Path">
		
			<ellipse transform="matrix(0.9981 -6.209376e-02 6.209376e-02 0.9981 -36.5643 9.4136)" class="st4" cx="133.2" cy="593" rx="29.7" ry="29.7"/>
	</g>
	<g id="Ellipse_4">
		<path class="st5" d="M1008.4,589c-1.7,0-3,1.3-3,3s1.3,3,3,3s3-1.3,3-3S1010.1,589,1008.4,589z"/>
	</g>
	<g id="Ellipse_4_copy">
		<path class="st5" d="M1019.9,589c-1.7,0-3,1.3-3,3s1.3,3,3,3s3-1.3,3-3S1021.6,589,1019.9,589z"/>
	</g>
	<g id="Ellipse_4_copy_2">
		<path class="st5" d="M1031.4,589c-1.7,0-3,1.3-3,3s1.3,3,3,3s3-1.3,3-3S1033,589,1031.4,589z"/>
	</g>
	
		<image style="overflow:visible;enable-background:new    ;" width="71" height="61" id="Vector_Smart_Object_Image-4" xlink:href="70832FE1.png"  transform="matrix(0.659 0 0 0.659 107.6449 1692.36)">
	</image>
	
		<image style="overflow:visible;enable-background:new    ;" width="66" height="65" id="Vector_Smart_Object_Image-5" xlink:href="70832FFE.png"  transform="matrix(0.6597 0 0 0.6597 197.9152 1692.36)">
	</image>
	
		<image style="overflow:visible;enable-background:new    ;" width="56" height="70" id="Vector_Smart_Object_Image-6" xlink:href="70832FFF.png"  transform="matrix(0.658 0 0 0.658 1004.74 1689.7438)">
	</image>
	<g>
		<path class="st6" d="M105.2,319.9l4-0.4c0.1,1.1,0.6,2.2,1.5,2.9c0.8,0.7,1.9,1,3,0.9c1.1,0.1,2.1-0.2,3-0.8c0.6-0.5,1-1.2,1-2
			c0-0.4-0.1-0.9-0.4-1.2c-0.4-0.4-0.9-0.7-1.5-0.9c-0.5-0.2-1.6-0.5-3.3-0.9c-1.7-0.3-3.3-1-4.6-2c-1.2-1-1.9-2.5-1.9-4.1
			c0-1,0.3-2,0.9-2.9c0.6-0.9,1.5-1.6,2.5-2.1c1.3-0.5,2.6-0.7,4-0.7c2.6,0,4.5,0.6,5.8,1.7c1.3,1.1,2,2.8,2,4.5l-4.1,0.2
			c-0.1-0.8-0.5-1.6-1.1-2.2c-0.8-0.5-1.7-0.8-2.6-0.7c-1-0.1-2,0.2-2.8,0.7c-0.4,0.3-0.7,0.8-0.7,1.3c0,0.5,0.2,0.9,0.6,1.2
			c1.2,0.7,2.4,1.1,3.8,1.4c1.5,0.3,3,0.8,4.4,1.5c0.9,0.5,1.7,1.2,2.2,2.1c0.6,1,0.9,2.1,0.8,3.2c0,1.2-0.4,2.3-1,3.3
			c-0.7,1-1.6,1.8-2.8,2.3c-1.4,0.5-2.9,0.8-4.4,0.7c-2.1,0.1-4.2-0.5-5.9-1.8C106.3,323.8,105.4,321.9,105.2,319.9z"/>
		<path class="st6" d="M131.9,311.8v3.1h-2.7v5.9c0,0.7,0,1.4,0.1,2.1c0,0.2,0.2,0.4,0.3,0.5c0.2,0.1,0.4,0.2,0.7,0.2
			c0.5,0,1.1-0.2,1.6-0.4l0.3,3c-1,0.4-2,0.6-3.1,0.6c-0.7,0-1.3-0.1-1.9-0.4c-0.5-0.2-0.9-0.5-1.2-0.9c-0.3-0.5-0.5-1-0.6-1.5
			c-0.1-0.9-0.1-1.8-0.1-2.7v-6.4h-1.8v-3.1h1.8v-2.9l3.9-2.3v5.2L131.9,311.8z"/>
		<path class="st6" d="M133.7,318.9c0-1.3,0.4-2.6,1-3.7c0.6-1.2,1.5-2.1,2.7-2.8c1.2-0.6,2.6-1,3.9-1c2-0.1,4,0.7,5.5,2.2
			c2.9,3.1,2.9,7.9,0,11c-1.4,1.5-3.4,2.2-5.4,2.2c-1.3,0-2.7-0.3-3.9-0.9c-1.2-0.6-2.2-1.5-2.8-2.7
			C134.1,321.9,133.7,320.4,133.7,318.9z M137.7,319.1c-0.1,1.2,0.3,2.4,1,3.3c0.6,0.8,1.6,1.2,2.6,1.2c1,0,1.9-0.4,2.6-1.2
			c0.7-1,1.1-2.2,1-3.4c0.1-1.2-0.3-2.4-1-3.3c-0.6-0.7-1.6-1.2-2.6-1.2c-1,0-1.9,0.4-2.6,1.2C138,316.8,137.6,317.9,137.7,319.1
			L137.7,319.1z"/>
		<path class="st6" d="M155.7,326.5h-3.9v-14.7h3.6v2.1c0.4-0.8,1-1.4,1.7-2c0.5-0.3,1.1-0.5,1.7-0.5c0.9,0,1.8,0.3,2.6,0.7
			l-1.2,3.4c-0.5-0.4-1.2-0.6-1.8-0.6c-0.5,0-1,0.1-1.4,0.5c-0.5,0.4-0.8,1-0.9,1.6c-0.3,1.6-0.4,3.3-0.3,4.9L155.7,326.5z"/>
		<path class="st6" d="M163,309.8v-3.6h3.9v3.6H163z M163,326.5v-14.7h3.9v14.7L163,326.5z"/>
		<path class="st6" d="M179.4,321.8l3.9,0.6c-0.4,1.3-1.2,2.4-2.4,3.2c-1.2,0.8-2.6,1.2-4,1.1c-2.2,0.2-4.3-0.8-5.7-2.5
			c-1-1.5-1.5-3.3-1.5-5.1c-0.1-2.1,0.6-4.1,1.9-5.7c1.2-1.4,3-2.1,4.8-2.1c2-0.1,3.9,0.7,5.2,2.2c1.3,1.4,1.9,3.6,1.8,6.6h-9.8
			c0,1,0.3,1.9,0.9,2.7c0.6,0.6,1.4,1,2.3,1c0.6,0,1.1-0.2,1.5-0.5C179,323,179.3,322.4,179.4,321.8z M179.7,317.9
			c0-0.9-0.3-1.8-0.9-2.6c-0.5-0.6-1.2-0.9-2-0.9c-0.8,0-1.6,0.3-2.1,0.9c-0.6,0.7-0.9,1.6-0.8,2.5H179.7z"/>
		<path class="st6" d="M185.3,322.3l3.9-0.6c0.1,0.7,0.5,1.3,1,1.7c0.6,0.4,1.4,0.6,2.1,0.6c0.8,0.1,1.6-0.1,2.3-0.5
			c0.3-0.2,0.5-0.6,0.5-1c0-0.3-0.1-0.5-0.3-0.7c-0.4-0.3-0.8-0.4-1.3-0.5c-3.1-0.7-5.1-1.3-6-1.9c-1.1-0.7-1.8-2-1.8-3.3
			c0-1.2,0.5-2.4,1.5-3.2c1.4-1,3-1.4,4.7-1.3c1.6-0.1,3.1,0.2,4.5,1c1,0.7,1.7,1.7,2,2.9l-3.7,0.7c-0.1-0.5-0.5-1-0.9-1.3
			c-0.6-0.3-1.2-0.5-1.9-0.5c-0.8-0.1-1.5,0.1-2.2,0.4c-0.3,0.2-0.4,0.5-0.4,0.8c0,0.3,0.2,0.5,0.4,0.7c1.2,0.5,2.4,0.9,3.6,1.1
			c1.6,0.3,3,0.8,4.4,1.7c0.8,0.7,1.3,1.8,1.2,2.9c0,1.4-0.6,2.6-1.7,3.5c-1.4,1.1-3.2,1.6-5,1.5c-1.7,0.1-3.3-0.3-4.8-1.2
			C186.4,324.9,185.6,323.7,185.3,322.3z"/>
	</g>
	<g>
		<path class="st6" d="M930.8,326.5l-4.8-20.3h4.2l3.1,13.9l3.7-13.9h4.9l3.6,14.2l3.1-14.2h4.1l-4.9,20.3h-4.3l-4-15.1l-4,15.1
			H930.8z"/>
		<path class="st6" d="M956.6,316.3l-3.5-0.6c0.3-1.3,1-2.4,2-3.1c1.3-0.8,2.8-1.1,4.3-1c1.3-0.1,2.6,0.1,3.9,0.6
			c0.7,0.3,1.4,0.9,1.8,1.6c0.4,1.1,0.6,2.3,0.5,3.5v4.5c0,1,0,1.9,0.2,2.9c0.1,0.7,0.4,1.4,0.7,2h-3.9c-0.1-0.3-0.2-0.6-0.4-1.1
			c-0.1-0.2-0.1-0.4-0.1-0.5c-0.6,0.6-1.3,1.1-2.1,1.5c-0.8,0.3-1.6,0.5-2.4,0.5c-1.3,0.1-2.6-0.4-3.6-1.2c-0.9-0.8-1.3-1.9-1.3-3.1
			c0-0.8,0.2-1.5,0.6-2.2c0.4-0.6,1-1.2,1.7-1.5c1-0.4,2-0.7,3.1-0.9c1.3-0.2,2.6-0.5,3.8-1v-0.4c0.1-0.6-0.1-1.2-0.6-1.6
			c-0.6-0.4-1.4-0.6-2.1-0.5c-0.6,0-1.1,0.1-1.6,0.4C957.1,315.3,956.7,315.7,956.6,316.3z M961.8,319.4c-0.5,0.2-1.3,0.4-2.4,0.6
			c-0.7,0.1-1.5,0.3-2.1,0.7c-0.5,0.3-0.8,0.8-0.8,1.4c0,0.5,0.2,1,0.6,1.4c0.4,0.4,1,0.6,1.5,0.6c0.7,0,1.4-0.3,2-0.7
			c0.4-0.3,0.8-0.8,0.9-1.3c0.1-0.6,0.2-1.3,0.2-1.9L961.8,319.4z"/>
		<path class="st6" d="M976.2,311.8v3.1h-2.7v5.9c0,0.7,0,1.4,0.1,2.1c0,0.2,0.2,0.4,0.3,0.5c0.2,0.1,0.4,0.2,0.7,0.2
			c0.5,0,1.1-0.2,1.6-0.4l0.3,3c-1,0.4-2,0.6-3.1,0.6c-0.6,0-1.3-0.1-1.9-0.4c-0.5-0.2-0.9-0.5-1.3-0.9c-0.3-0.5-0.5-1-0.5-1.5
			c-0.1-0.9-0.2-1.8-0.1-2.7v-6.4h-1.8v-3.1h1.8v-2.9l3.9-2.3v5.2L976.2,311.8z"/>
		<path class="st6" d="M991.7,316.1l-3.8,0.7c-0.1-0.7-0.4-1.3-0.9-1.7c-0.5-0.4-1.1-0.6-1.8-0.6c-0.9,0-1.7,0.3-2.3,1
			c-0.7,1-1,2.2-0.9,3.4c-0.1,1.3,0.2,2.6,0.9,3.7c0.6,0.7,1.5,1.1,2.4,1.1c0.7,0,1.3-0.2,1.8-0.6c0.6-0.6,0.9-1.4,1-2.2l3.8,0.6
			c-0.3,1.6-1.1,3-2.3,4c-1.3,0.9-2.9,1.4-4.5,1.3c-1.9,0.1-3.8-0.6-5.2-2c-2.6-3.3-2.6-8,0-11.3c1.4-1.4,3.3-2.1,5.2-2
			c1.5-0.1,3,0.3,4.3,1.1C990.6,313.6,991.4,314.8,991.7,316.1z"/>
		<path class="st6" d="M998.6,306.2v7.5c1.7-2.1,4.5-2.8,6.9-1.7c0.6,0.3,1.2,0.7,1.6,1.3c0.4,0.5,0.6,1.1,0.7,1.7
			c0.2,1,0.2,1.9,0.2,2.9v8.6h-3.9v-7.8c0.1-1,0-2-0.2-2.9c-0.1-0.4-0.4-0.8-0.8-1c-0.4-0.3-0.9-0.4-1.4-0.4c-0.6,0-1.2,0.2-1.7,0.5
			c-0.5,0.3-0.9,0.8-1.1,1.4c-0.3,0.9-0.4,1.8-0.3,2.8v7.4h-3.9v-20.3H998.6z"/>
		<path class="st6" d="M1037.2,326.5h-4.5l-1.8-4.6h-8.1l-1.7,4.6h-4.4l7.9-20.3h4.3L1037.2,326.5z M1029.7,318.5l-2.8-7.5l-2.7,7.5
			H1029.7z"/>
		<path class="st6" d="M1039.4,326.5v-20.3h3.9v20.3H1039.4z"/>
		<path class="st6" d="M1047.3,326.5v-20.3h3.9v20.3H1047.3z"/>
	</g>
	<g id="Rectangle_1_copy">
		<rect x="70.5" y="531" class="st2" width="1012.4" height="2"/>
	</g>
	
		<image style="overflow:visible;enable-background:new    ;" width="1409" height="113" id="Layer_27_Image" xlink:href="70832FF9.png"  transform="matrix(0.6641 0 0 0.6641 100.9871 2215.52)">
	</image>
	<line class="st7" x1="73.2" y1="2199.4" x2="1082.6" y2="2199.4"/>
</g>
<g id="grey_layer">
	<g class="st8">
		<path class="st9" d="M328.5,350.7c33.7,0,60.9,27.3,61,60.9s-27.3,60.9-60.9,61s-60.9-27.3-61-60.9c0,0,0,0,0,0
			C267.6,378,294.8,350.8,328.5,350.7 M328.5,347.7c-35.3,0-63.9,28.6-63.9,63.9s28.6,63.9,63.9,63.9s63.9-28.6,63.9-63.9
			c0,0,0,0,0,0C392.4,376.3,363.8,347.7,328.5,347.7C328.5,347.7,328.5,347.7,328.5,347.7z"/>
		<circle class="st9" cx="328.5" cy="411.6" r="55.3"/>
		<rect x="289.3" y="487.7" class="st9" width="78.3" height="18.8"/>
		<circle class="st9" cx="166.9" cy="411.6" r="55.3"/>
		<rect x="110.3" y="487.7" class="st9" width="113.2" height="18.8"/>
		<path class="st9" d="M488.8,350.7c33.7,0,60.9,27.3,60.9,60.9s-27.3,60.9-60.9,60.9s-60.9-27.3-60.9-60.9c0,0,0,0,0,0
			C427.9,378,455.1,350.8,488.8,350.7 M488.8,347.7c-35.3,0-63.9,28.6-64,63.9s28.6,63.9,63.9,64s63.9-28.6,64-63.9c0,0,0,0,0,0
			C552.7,376.3,524.1,347.7,488.8,347.7z"/>
		<circle class="st9" cx="488.8" cy="411.6" r="55.3"/>
		<rect x="449.6" y="487.7" class="st9" width="78.3" height="18.8"/>
		<path class="st9" d="M649.5,350.7c33.7,0,60.9,27.3,60.9,60.9s-27.3,60.9-60.9,60.9s-60.9-27.3-60.9-60.9c0,0,0,0,0,0
			C588.6,378,615.9,350.8,649.5,350.7 M649.5,347.7c-35.3,0-63.9,28.6-64,63.9c0,35.3,28.6,63.9,63.9,64c35.3,0,63.9-28.6,64-63.9
			c0,0,0,0,0,0C713.4,376.3,684.8,347.7,649.5,347.7z"/>
		<circle class="st9" cx="649.5" cy="411.6" r="55.3"/>
		<rect x="610.4" y="487.7" class="st9" width="78.3" height="18.8"/>
		<path class="st9" d="M809.9,350.7c33.7,0,60.9,27.3,60.9,60.9s-27.3,60.9-60.9,60.9S749,445.3,749,411.7c0,0,0,0,0,0
			C749,378,776.3,350.8,809.9,350.7 M809.9,347.7c-35.3,0-63.9,28.6-64,63.9c0,35.3,28.6,63.9,63.9,64c35.3,0,63.9-28.6,64-63.9
			c0,0,0,0,0,0C873.9,376.3,845.2,347.7,809.9,347.7z"/>
		<circle class="st9" cx="809.9" cy="411.6" r="55.3"/>
		<rect x="770.8" y="487.7" class="st9" width="78.3" height="18.8"/>
		<path class="st9" d="M970.7,350.7c33.7,0,60.9,27.3,60.9,60.9s-27.3,60.9-60.9,60.9s-60.9-27.3-60.9-60.9c0,0,0,0,0,0
			C909.8,378,937.1,350.8,970.7,350.7 M970.7,347.7c-35.3,0-63.9,28.6-64,63.9c0,35.3,28.6,63.9,63.9,64c35.3,0,63.9-28.6,64-63.9
			c0,0,0,0,0,0C1034.6,376.3,1006,347.7,970.7,347.7z"/>
		<circle class="st9" cx="970.7" cy="411.6" r="55.3"/>
		<rect x="931.5" y="487.7" class="st9" width="78.3" height="18.8"/>
		<circle class="st9" cx="205" cy="452.5" r="16.2"/>
		<path class="st0" d="M205,437.2c8.4,0,15.2,6.8,15.2,15.2s-6.8,15.2-15.2,15.2c-8.4,0-15.2-6.8-15.2-15.2c0,0,0,0,0,0
			C189.8,444.1,196.6,437.2,205,437.2 M205,435.2c-9.5,0-17.2,7.7-17.2,17.2s7.7,17.2,17.2,17.2c9.5,0,17.2-7.7,17.2-17.2
			C222.2,442.9,214.5,435.2,205,435.2C205,435.2,205,435.2,205,435.2z"/>
		<polygon class="st10" points="212.7,451.5 206,451.5 206,444.7 204,444.7 204,451.5 197.2,451.5 197.2,453.5 204,453.5 204,460.2 
			206,460.2 206,453.5 212.7,453.5 		"/>
		<rect x="189.8" y="587.1" class="st9" width="118.8" height="16.4"/>
		<rect x="104.2" y="1765.7" class="st9" width="32.7" height="20.1"/>
		<rect x="104.2" y="1812.6" class="st9" width="126.6" height="20.1"/>
		<rect x="104.2" y="1857.6" class="st9" width="230.8" height="20.1"/>
		<rect x="239" y="1812.6" class="st9" width="173.1" height="20.1"/>
		<rect x="183.5" y="1924.3" class="st9" width="126.7" height="20.1"/>
		<rect x="183.5" y="1969.3" class="st9" width="230.8" height="20.1"/>
		<rect x="318.4" y="1924.3" class="st9" width="173.1" height="20.1"/>
		<rect x="144.1" y="1765.7" class="st9" width="70" height="20.1"/>
		<circle class="st9" cx="133.3" cy="592.6" r="29.5"/>
		<circle class="st9" cx="131.2" cy="1943.9" r="29.5"/>
		<rect x="183.5" y="2032.6" class="st9" width="126.7" height="20.1"/>
		<rect x="183.5" y="2077.5" class="st9" width="180.8" height="20.1"/>
		<rect x="183.5" y="2122.6" class="st9" width="210.8" height="20.1"/>
		<rect x="318.4" y="2032.6" class="st9" width="253.1" height="20.1"/>
		<circle class="st9" cx="131.2" cy="2052.1" r="29.5"/>
	</g>
</g>
<g id="Phone">
	<g>
		<g>
			<g>
				<g>
					<g>
						
							<linearGradient id="SVGID_1_" gradientUnits="userSpaceOnUse" x1="4.45" y1="-329.2099" x2="21.42" y2="-329.2099" gradientTransform="matrix(1 0 0 1 0 1531.9899)">
							<stop  offset="0" style="stop-color:#676767"/>
							<stop  offset="5.000000e-02" style="stop-color:#727272"/>
							<stop  offset="0.33" style="stop-color:#A9A8A8"/>
							<stop  offset="0.57" style="stop-color:#D0CFCF"/>
							<stop  offset="0.75" style="stop-color:#E8E7E7"/>
							<stop  offset="0.87" style="stop-color:#F1F0F0"/>
							<stop  offset="0.94" style="stop-color:#F7F6F6"/>
							<stop  offset="1" style="stop-color:#FFFFFF"/>
						</linearGradient>
						<path class="st11" d="M143,2351.8c-1.2,0-2.5-0.2-3.7-0.4l0,0c-2.4-0.3-4.8-0.6-7.2-1.1c-14.2-2.4-28-6.8-41-13.1l-2.7-1.3
							c-2.3-1.2-4.5-2.4-6.8-3.7l-3.1-1.8c-5-3-9.9-6.4-14.5-10l-2.5-1.9c-2.5-2-4.9-4-7.2-6.2l-2.3-2.1c-0.9-0.8-1.7-1.6-2.6-2.5
							s-1.7-1.7-2.5-2.5l-1.6-1.7l-2-2.3c-3.9-4.4-7.6-9-11-13.8c-0.6-0.8-1.2-1.7-1.8-2.6c-1.9-2.7-3.6-5.4-5.2-8.2
							c-0.6-1-1.2-2-1.8-3.1c-4.2-7.6-7.8-15.6-10.7-23.8c-0.4-1.1-0.8-2.3-1.1-3.4c-1.9-5.7-3.4-11.6-4.5-17.5
							c-0.3-1.2-0.5-2.4-0.7-3.6c-1.5-8.6-2.2-17.2-2.2-25.9V206.8c0.1-81.8,64.3-149.1,146-153C76.9,57.7,19.3,118.4,19.1,192v2022
							C19.2,2284.8,72.6,2344.2,143,2351.8z"/>
						
							<linearGradient id="SVGID_2_" gradientUnits="userSpaceOnUse" x1="1139.47" y1="-329.0698" x2="1156.29" y2="-329.0698" gradientTransform="matrix(1 0 0 1 0 1531.9899)">
							<stop  offset="0" style="stop-color:#FFFFFF"/>
							<stop  offset="6.000000e-02" style="stop-color:#F7F6F6"/>
							<stop  offset="0.13" style="stop-color:#F1F0F0"/>
							<stop  offset="0.25" style="stop-color:#E8E7E7"/>
							<stop  offset="0.43" style="stop-color:#D0CFCF"/>
							<stop  offset="0.67" style="stop-color:#A9A8A8"/>
							<stop  offset="0.95" style="stop-color:#727272"/>
							<stop  offset="1" style="stop-color:#676767"/>
						</linearGradient>
						<path class="st12" d="M1153.8,206.8v1992.6c0,16-2.5,31.8-7.4,47c-0.3,1.1-0.7,2.3-1.1,3.4s-0.8,2.3-1.2,3.4s-0.6,1.7-1,2.5
							c-1,2.5-2,4.9-3.1,7.4c-0.5,1.1-1,2.2-1.5,3.1s-1.4,3-2.2,4.4s-1,2-1.6,3.1s-1.1,2-1.8,3.1c-1.6,2.8-3.4,5.6-5.2,8.3
							c-0.6,0.8-1.2,1.7-1.8,2.6s-1.4,1.9-2.1,2.9s-1.4,1.9-2.1,2.8l-2.2,2.8l-2.3,2.7c-1.5,1.8-3.1,3.5-4.7,5.2
							c-2.4,2.6-5,5.2-7.7,7.6l-2.4,2.2c-1.8,1.6-3.7,3.1-5.6,4.8l-2.5,2c-2.8,2.2-5.7,4.2-8.6,6.2l-2.9,1.9c-2,1.3-4,2.5-6.2,3.6
							c-1,0.6-2,1.1-3.1,1.7c-3.3,1.8-6.7,3.5-10.1,5.1c-0.9,0.4-1.8,0.8-2.7,1.2s-2.1,0.9-3.3,1.4l-3.4,1.3c-2.5,0.9-5,1.8-7.6,2.6
							l-2.7,0.8c-3.3,1-6.8,1.9-10.2,2.6l-3.6,0.8c-1.3,0.3-2.5,0.5-3.9,0.7c-2.4,0.4-4.8,0.8-7.2,1.1l0,0c-1.2,0-2.4,0.3-3.7,0.4
							c70.4-7.6,123.8-67,123.9-137.8V192c-0.1-72.2-55.6-132.3-127.6-138.1C1091.6,59.7,1153.7,126.4,1153.8,206.8z"/>
						
							<linearGradient id="SVGID_3_" gradientUnits="userSpaceOnUse" x1="579.1102" y1="835.16" x2="579.1102" y2="700.8" gradientTransform="matrix(1 0 0 1 0 1531.9899)">
							<stop  offset="0" style="stop-color:#F1F0F0"/>
							<stop  offset="0.11" style="stop-color:#E3E2E2"/>
							<stop  offset="0.33" style="stop-color:#BFBEBE"/>
							<stop  offset="0.63" style="stop-color:#848383"/>
							<stop  offset="0.99" style="stop-color:#333333"/>
							<stop  offset="1" style="stop-color:#303030"/>
						</linearGradient>
						<path class="st13" d="M1153.8,2199.4v14.6c-0.1,84.5-68.6,153.1-153.2,153.1H157.7C73.1,2367.1,4.6,2298.6,4.5,2214v-14.6
							c0,8.7,0.7,17.4,2.2,25.9c0.2,1.2,0.4,2.4,0.7,3.6c1.1,5.9,2.6,11.8,4.5,17.5c0.3,1.1,0.8,2.3,1.1,3.4
							c2.9,8.2,6.5,16.2,10.7,23.9c0.5,1.1,1.1,2.1,1.8,3.1c1.6,2.8,3.4,5.5,5.2,8.2c0.6,0.8,1.2,1.7,1.8,2.6
							c3.4,4.7,7,9.3,10.9,13.6l2,2.2l1.6,1.7c0.8,0.9,1.7,1.7,2.5,2.5s1.7,1.7,2.6,2.5l2.3,2.1c2.3,2.1,4.7,4.1,7.2,6.2l2.5,2
							c4.6,3.6,9.5,7,14.5,10l3.1,1.8c2.2,1.3,4.5,2.5,6.8,3.7l2.7,1.3c13,6.3,26.8,10.7,41,13.1c2.4,0.4,4.8,0.8,7.2,1.1l0,0
							c2.4,0.3,4.9,0.5,7.4,0.7l3.8,0.2c2.4,0,4.8,0.2,7.2,0.2h843c2.4,0,4.8,0,7.2-0.2l3.8-0.2c2-0.2,4-0.3,6-0.6h1.4
							c2.4-0.3,4.8-0.6,7.2-1.1c1.3-0.2,2.6-0.4,3.9-0.7l3.6-0.8c3.4-0.8,6.9-1.6,10.2-2.6l2.7-0.8c2.6-0.8,5.1-1.7,7.6-2.6l3.3-1.3
							c1.1-0.4,2.2-0.9,3.3-1.4s1.8-0.8,2.7-1.2c3.5-1.5,6.9-3.2,10.1-5.1c1-0.5,2-1.1,3.1-1.7c2.1-1.2,4.1-2.4,6.2-3.6
							c1-0.6,2-1.3,2.9-1.9c2.9-2,5.8-4,8.6-6.2l2.5-2c1.9-1.6,3.8-3.1,5.6-4.8c0.8-0.7,1.6-1.4,2.4-2.2c2.6-2.5,5.2-5,7.7-7.6
							c1.6-1.7,3.1-3.5,4.7-5.2l2.3-2.7c0.7-0.9,1.5-1.8,2.2-2.8s1.4-1.9,2.1-2.8s1.4-1.9,2.1-2.9s1.2-1.7,1.8-2.6
							c1.8-2.7,3.6-5.5,5.2-8.3c0.6-1,1.2-2.1,1.8-3.1c0.6-1,1.1-2,1.6-3.1c0.5-1.1,1.5-2.9,2.2-4.4s1.1-2.1,1.5-3.1
							c1.1-2.4,2.2-4.9,3.1-7.4c0.4-0.8,0.7-1.7,1-2.5s0.8-2.2,1.2-3.4s0.8-2.3,1.1-3.4C1151.3,2231.2,1153.8,2215.4,1153.8,2199.4z
							"/>
					</g>
					
						<linearGradient id="SVGID_4_" gradientUnits="userSpaceOnUse" x1="579.11" y1="-1364.7101" x2="579.11" y2="-1532.4202" gradientTransform="matrix(1 0 0 1 0 1531.9899)">
						<stop  offset="0" style="stop-color:#303030"/>
						<stop  offset="8.000000e-02" style="stop-color:#4C4C4C"/>
						<stop  offset="0.26" style="stop-color:#828282"/>
						<stop  offset="0.43" style="stop-color:#AFAFAF"/>
						<stop  offset="0.59" style="stop-color:#D2D2D2"/>
						<stop  offset="0.75" style="stop-color:#EBEBEB"/>
						<stop  offset="0.89" style="stop-color:#FAFAFA"/>
						<stop  offset="1" style="stop-color:#FFFFFF"/>
					</linearGradient>
					<path class="st14" d="M1153.8,192v14.6c-0.1-78.9-60-144.8-138.5-152.4l-3.7-0.3l-3.8-0.3l0,0c-2.4,0-4.7-0.2-7.1-0.2h-843
						c-2.4,0-4.8,0-7.1,0.2l0,0C68.8,57.6,4.5,125,4.5,206.8v-22.6c0-2.4,0.2-4.9,0.5-7.3c0.1-1.2,0.2-2.5,0.4-3.7
						c0-0.7,0.1-1.3,0.3-2c0.1-0.7,0.2-1.6,0.4-2.4s0.4-2.5,0.6-3.8c0.4-2.2,0.8-4.4,1.3-6.5c0.2-1.1,0.5-2.1,0.7-3.1
						c0.8-3.1,1.6-6.2,2.6-9.3c0.3-1,0.6-2,1-2.9s0.8-2.4,1.2-3.6l1.1-2.9c0.3-0.8,0.6-1.6,1-2.4l1.2-2.9c0.3-0.7,0.6-1.4,1-2.1
						s0.9-2.1,1.5-3.1c0.9-1.8,1.8-3.7,2.7-5.4c0.5-0.9,1-1.8,1.5-2.7s1.2-2.1,1.8-3.1c4.2-7.2,9-14.1,14.3-20.5l2.3-2.7
						c0.9-1,1.8-2,2.7-3.1c1.5-1.6,3.1-3.3,4.6-4.8s3.4-3.3,5.2-4.9s3.6-3.1,5.4-4.7c0.9-0.8,1.8-1.5,2.8-2.3
						c1.9-1.5,3.8-2.9,5.7-4.3s3.9-2.7,5.9-4s4.1-2.5,6.2-3.8c1-0.6,2.1-1.2,3.1-1.8s2.1-1.1,3.1-1.7l3.1-1.6l3.3-1.6
						c2.2-1,4.4-2,6.7-2.9l3.1-1.3h0.3l3.3-1.2c1.1-0.3,2.2-0.7,3.1-1.1l3.7-1.2l3.5-1l4.1-1.2c1.2-0.3,2.4-0.6,3.6-0.8
						c2.4-0.5,4.9-1,7.3-1.5c1.2-0.2,2.4-0.4,3.7-0.6c2.6-0.4,5.3-0.7,8-1c2.1-0.2,4.2-0.3,6.4-0.5h858.1c2.5,0,5,0.3,7.4,0.5l0,0
						l3.8,0.7c1.2,0.1,2.5,0.2,3.7,0.5l3.7,0.6l3.6,0.7l0,0l3.6,0.8l3.3,0.7l0.7,0.2l3.1,0.8l4.2,1.2l2.9,0.9
						c2.1,0.7,4.2,1.5,6.3,2.2c1.4,0.5,2.8,1.1,4.2,1.6s2,0.8,3.1,1.3s2.2,1,3.3,1.5l3.3,1.5c7.7,3.8,15.1,8.2,22,13.2
						c0.8,0.6,1.7,1.2,2.5,1.8c3.1,2.3,6,4.7,8.8,7.1c1.3,1.1,2.5,2.2,3.7,3.3c4.9,4.6,9.5,9.5,13.8,14.7c0.8,0.9,1.5,1.9,2.2,2.8
						c1.6,2,3.1,3.9,4.4,5.9c0.7,1,1.4,2,2.1,3.1c1.2,1.7,2.4,3.5,3.4,5.3l1.6,2.7c1,1.7,2,3.5,2.9,5.2c0.5,0.9,0.9,1.7,1.3,2.6
						c1.6,2.9,2.9,5.9,4.3,9c0.3,0.8,0.7,1.6,1,2.4c1.3,3.1,2.4,6.2,3.5,9.3c0.4,1.2,0.8,2.3,1.2,3.5c2.1,6.7,3.7,13.5,4.9,20.5
						c0.1,0.8,0.2,1.5,0.3,2.3c0.1,0.8,0.4,2.4,0.5,3.7s0.3,2.5,0.4,3.7s0.3,2.5,0.4,3.8c0.2,2.3,0.3,4.6,0.3,7
						C1153.7,189.2,1153.8,190.6,1153.8,192z"/>
				</g>
				<path class="st15" d="M1007.7,53.8L1007.7,53.8c-2.3,0-4.7-0.2-7.1-0.2h-843c-2.4,0-4.8,0-7.1,0.2l0,0
					C76.9,57.7,19.3,118.4,19.1,192v2022c0.1,72.2,55.6,132.3,127.6,138.1l3.8,0.2c2.4,0,4.8,0.2,7.2,0.2h842.9c2.4,0,4.8,0,7.2-0.2
					l3.8-0.2c72-5.8,127.5-65.9,127.6-138.1V192C1139,118.4,1081.3,57.7,1007.7,53.8z M1127.4,2214c-0.3,66-50.9,120.9-116.7,126.5
					c-1.2,0-2.4,0.2-3.6,0.2H151c-1.2,0-2.3,0-3.4-0.2C81.7,2334.9,31.1,2280,30.8,2214V192c0-67.4,52.7-123,120-126.6h0.3
					c2.1,0,4.3-0.2,6.5-0.2h842.9c2.2,0,4.4,0,6.5,0.2h0.2c67.3,3.5,120.1,59.1,120.1,126.6V2214z"/>
				
					<linearGradient id="SVGID_5_" gradientUnits="userSpaceOnUse" x1="1086.54" y1="-328.3048" x2="1127.39" y2="-328.3048" gradientTransform="matrix(1 0 0 1 0 1531.9899)">
					<stop  offset="0" style="stop-color:#F1F0F0"/>
					<stop  offset="1.000000e-02" style="stop-color:#EDECEC"/>
					<stop  offset="0.14" style="stop-color:#B4B4B4"/>
					<stop  offset="0.28" style="stop-color:#858585"/>
					<stop  offset="0.4" style="stop-color:#606060"/>
					<stop  offset="0.52" style="stop-color:#464646"/>
					<stop  offset="0.62" style="stop-color:#363636"/>
					<stop  offset="0.7" style="stop-color:#303030"/>
				</linearGradient>
				<path class="st16" d="M1127.4,193v2021.8c0,21.9-5.7,43.4-16.6,62.4c-1,1.7-2,3.3-3.1,5c-1.6,2.5-3.1,4.9-4.9,7.2
					c-4.9,6.6-10.3,12.7-16.3,18.3c11.4-20,17.4-42.6,17.4-65.6V165.7c0.1-23.1-6-45.9-17.5-66
					C1112.6,123.7,1127.5,157.5,1127.4,193z"/>
				<g>
					<path class="st17" d="M1006.6,77.1H151.1C90.2,80.6,42.5,131,42.5,192v2021.9c0.2,60,46.3,109.8,106.1,114.8l2.8,0.2h855.6
						l2.9-0.2c59.7-5,105.7-54.8,105.9-114.8V192C1115.7,130.8,1067.8,80.3,1006.6,77.1z M1084.9,2214c0,18.6-6.2,36.6-17.5,51.3
						l-1.8,2.3c-1.8,2.2-3.8,4.4-5.8,6.4c-1.8,1.8-3.8,3.5-5.7,5.2l0,0c-2.5,2.1-5.1,4-7.8,5.7c-2.7,1.8-5.5,3.4-8.4,4.8l0,0
						c-1.5,0.8-2.9,1.4-4.4,2.1l0,0c-1.5,0.6-3.1,1.2-4.6,1.8c-3.1,1.1-6.3,2-9.5,2.8c-4,0.9-8,1.5-12,1.8H150.9
						c-43.8-3.7-77.5-40.2-77.7-84.2V192c0.1-44.4,34.5-81.2,78.8-84.2h853.8c0.8,0,1.6,0,2.5,0.2c0.4,0,0.7,0,1.1,0
						c0.7,0,1.5,0.1,2.2,0.3c0.9,0.1,1.8,0.2,2.6,0.4l0,0c1.3,0.2,2.5,0.4,3.7,0.7c0.2,0.1,0.5,0.2,0.7,0.2c1,0.2,2,0.5,3.1,0.7
						l4.4,1.3c1.2,0.3,2.3,0.8,3.5,1.2s2.5,0.9,3.7,1.5c2.5,1,5,2.2,7.3,3.4c2.1,1.1,4.2,2.4,6.2,3.7c0.4,0.3,0.9,0.6,1.4,0.9
						l2.4,1.7c1.1,0.7,2.1,1.5,3.1,2.3c2,1.7,4,3.4,5.8,5.2c1,0.9,1.9,1.8,2.7,2.8c0.9,1,1.8,1.9,2.6,2.9c3.4,4,6.4,8.2,9,12.7
						c1.3,2.3,2.5,4.6,3.6,7s2.1,4.8,3.1,7.3c0.5,1.3,0.9,2.5,1.2,3.8c0.8,2.8,1.5,5.6,2,8.4c0.2,1.1,0.4,2.2,0.6,3.4
						c0.6,4.1,0.9,8.2,0.9,12.4L1084.9,2214z"/>
					<path class="st17" d="M298.6,146.6c-0.3-0.6-0.6-1.1-0.8-1.7c-0.1-0.2-0.2-0.4-0.3-0.6C297.9,145.1,298.2,145.9,298.6,146.6z"
						/>
					<path class="st17" d="M860.7,144.3c0,0.2-0.2,0.4-0.3,0.6c-0.2,0.6-0.5,1.2-0.8,1.7C860,145.9,860.3,145.1,860.7,144.3z"/>
				</g>
				<path class="st17" d="M878.9,107.7c-6.9,0.4-12.6,5.7-13.3,12.6v1.8c-0.1,2.5-0.4,5.1-0.8,7.6c-0.1,0.9-0.2,1.7-0.5,2.5l0,0
					c-0.2,1.1-0.4,2.1-0.7,3.1s-0.5,1.8-0.7,2.7l-0.2,0.6l-0.2,0.7c0,0.2-0.1,0.4-0.2,0.5c-0.1,0.3-0.2,0.6-0.3,0.9
					c-0.1,0.3-0.2,0.7-0.4,1c-0.3,0.8-0.6,1.7-0.9,2.4c-0.3,0.8-0.7,1.6-1,2.4c0,0.1,0,0.2,0,0.3v0.2c-0.3,0.6-0.7,1.3-1,1.9
					s-0.6,1.1-0.9,1.7c-0.1,0.2-0.2,0.4-0.3,0.5c-0.1,0.3-0.3,0.6-0.5,0.8c-0.2,0.4-0.4,0.8-0.7,1.1c-0.1,0.1-0.1,0.2-0.2,0.3
					L856,154c-0.2,0.3-0.3,0.5-0.5,0.8s-0.3,0.6-0.5,0.8l-0.5,0.7c-0.1,0.1-0.2,0.2-0.3,0.3l-0.6,0.9c0,0.2-0.3,0.4-0.4,0.6
					c-0.2,0.3-0.4,0.6-0.6,0.8v0.2c-0.1,0-0.1,0-0.2,0c-0.2,0.3-0.4,0.6-0.7,0.9c-0.1,0.1-0.2,0.2-0.3,0.3c-0.2,0.4-0.5,0.7-0.8,1
					l0,0l-1,1.2c-0.3,0.4-0.7,0.8-1,1.2l0,0c-0.2,0.3-0.4,0.5-0.7,0.7c-0.2,0.3-0.5,0.6-0.8,0.8c-0.2,0.3-0.5,0.5-0.8,0.7
					c-0.4,0.5-0.9,0.9-1.4,1.4l-1.1,1l-0.7,0.6l-1.7,1.4l-1.6,1.3l-1,0.8c-0.4,0.3-0.7,0.6-1.1,0.8l0,0l-1.2,0.8
					c-0.1,0.1-0.3,0.3-0.5,0.4c-0.6,0.4-1.3,0.8-1.9,1.2c-0.5,0.3-1,0.7-1.5,0.9c-0.6,0.4-1.3,0.8-2,1.1l-0.8,0.4h-0.2l-1.5,0.8
					c-0.5,0.4-1.1,0.7-1.6,0.9l-1.2,0.5l-0.7,0.3l-0.5,0.2l0,0c-1.1,0.4-2,0.8-3.1,1.2l-2.9,1l-3.1,0.9c-2.1,0.5-4.4,1-6.6,1.3
					c-0.9,0-1.9,0.3-2.8,0.4h-0.6l-2.3,0.2h-448l-2.4-0.2h-0.5c-0.9,0-1.9-0.2-2.8-0.4c-2.2-0.3-4.4-0.8-6.6-1.3l-3.1-0.9
					c-1-0.3-1.9-0.6-2.9-1s-2-0.8-3.1-1.2l0,0l-0.5-0.2l-0.6-0.3l-1.2-0.5c-0.4-0.2-0.9-0.4-1.3-0.6c-0.5-0.3-1-0.5-1.5-0.8l0,0
					l-0.7-0.4c-0.7-0.3-1.3-0.7-2-1.1c-0.5-0.3-1-0.6-1.5-0.9l-1.9-1.2c-0.2-0.1-0.4-0.2-0.5-0.4c-0.4-0.2-0.8-0.5-1.1-0.8l0,0
					c-0.4-0.3-0.8-0.5-1.1-0.8l-1-0.8l-1.6-1.3l-1.6-1.4l-0.6-0.6l-1.1-1l-1.4-1.4c-0.3-0.2-0.5-0.5-0.7-0.8
					c-0.3-0.2-0.5-0.5-0.8-0.8c-0.2-0.2-0.5-0.5-0.7-0.7l0,0c-0.2-0.2-0.4-0.4-0.5-0.6c-0.6-0.6-1-1.2-1.5-1.8l0,0
					c-0.3-0.3-0.5-0.6-0.8-1c-0.1-0.1-0.2-0.2-0.3-0.3l-0.7-0.9l0,0v-0.2c-0.2-0.3-0.4-0.5-0.6-0.8c0,0-0.3-0.4-0.4-0.6l-0.5-0.9
					c-0.1-0.1-0.2-0.2-0.3-0.3l-1-0.9c-0.2-0.3-0.4-0.5-0.5-0.8l-0.5-0.8l-0.2-0.4c-0.1-0.1-0.1-0.2-0.2-0.3
					c-0.2-0.4-0.5-0.8-0.6-1.1c-0.2-0.3-0.3-0.5-0.5-0.8c-0.1-0.2-0.2-0.3-0.3-0.5c-0.3-0.6-0.6-1.1-0.9-1.7s-0.7-1.3-1-1.9V147
					c0-0.1,0-0.2,0-0.3c-0.4-0.8-0.7-1.6-1.1-2.4c-0.4-0.8-0.7-1.6-0.9-2.4c-0.2-0.3-0.3-0.7-0.4-1s-0.2-0.6-0.3-0.9
					c-0.1-0.2-0.1-0.4-0.1-0.5c-0.1-0.2-0.2-0.4-0.3-0.7l-0.2-0.6c-0.3-0.9-0.6-1.8-0.8-2.7s-0.5-2-0.7-3.1l0,0
					c-0.2-0.8-0.4-1.7-0.5-2.5c-0.4-2.5-0.7-5-0.8-7.6v-1.8c-0.7-6.9-6.4-12.2-13.3-12.6L878.9,107.7z"/>
				<path class="st17" d="M296.6,141.8L296.6,141.8c-0.1-0.3-0.2-0.6-0.3-0.9C296.4,141.3,296.5,141.6,296.6,141.8z"/>
				<path class="st17" d="M298.6,146.6c-0.3-0.6-0.6-1.1-0.8-1.7c-0.1-0.2-0.2-0.4-0.3-0.6C297.9,145.1,298.2,145.9,298.6,146.6z"/>
				<path class="st17" d="M306.9,160.2c-0.3-0.3-0.6-0.7-0.8-1.1l0,0L306.9,160.2z"/>
				<path class="st17" d="M309.5,163.3c-0.4-0.4-0.7-0.7-1-1.1c-0.2-0.2-0.4-0.4-0.6-0.7l0,0C308.4,162.1,308.9,162.7,309.5,163.3z"
					/>
				<path class="st17" d="M310.7,164.7c-0.3-0.2-0.5-0.4-0.7-0.7l0,0C310.2,164.2,310.5,164.5,310.7,164.7z"/>
				<path class="st17" d="M318.6,171.8c-0.5-0.4-1.1-0.8-1.6-1.2c-0.3-0.2-0.6-0.5-0.9-0.8c-0.2-0.2-0.5-0.4-0.7-0.6l1.6,1.4
					L318.6,171.8z"/>
				<path class="st17" d="M319.5,172.6c0.4,0.3,0.7,0.6,1.1,0.8l-0.3-0.2C320.1,173,319.8,172.8,319.5,172.6z"/>
				<path class="st17" d="M324.3,175.8l-1.1-0.7l0,0l-0.7-0.5L324.3,175.8z"/>
				<path class="st17" d="M336.9,181.9c-0.9-0.3-1.7-0.6-2.6-1l-0.5-0.3C334.8,181.1,335.8,181.6,336.9,181.9z"/>
				<path class="st17" d="M339.7,182.9l3.1,0.9l-2.2-0.6L339.7,182.9l-1.5-0.4c-0.5-0.2-1-0.3-1.5-0.6
					C337.8,182.3,338.7,182.6,339.7,182.9z"/>
				<path class="st17" d="M349.5,185.1c0.9,0,1.9,0.3,2.8,0.4c-0.8-0.1-1.7-0.2-2.5-0.3L349.5,185.1l-1.1-0.1
					c-0.7-0.1-1.5-0.2-2.2-0.4l-2.8-0.6h-0.5C345.1,184.3,347.3,184.8,349.5,185.1z"/>
				<path class="st17" d="M803,185.8l2.3-0.2h-2.2L803,185.8z"/>
				<path class="st17" d="M808.7,185.1c2.2-0.3,4.4-0.8,6.6-1.3h-0.5l-2.8,0.6c-0.7,0.1-1.5,0.2-2.2,0.4L808.7,185.1l-0.3-0.1
					c-0.8,0.1-1.6,0.3-2.5,0.3C806.9,185.4,807.8,185.3,808.7,185.1z"/>
				<path class="st17" d="M821.3,181.9c-0.5,0.2-1,0.4-1.5,0.6l-1.4,0.5l-1,0.3l-2.1,0.6l3.1-0.9L821.3,181.9z"/>
				<path class="st17" d="M821.3,181.9c1.1-0.4,2-0.8,3.1-1.2L824,181C823.1,181.3,822.2,181.6,821.3,181.9z"/>
				<path class="st17" d="M833.9,175.8c0.7-0.4,1.3-0.8,1.9-1.2l-0.7,0.5l0,0C834.8,175.3,834.3,175.6,833.9,175.8z"/>
				<path class="st17" d="M838.7,172.6c-0.3,0.2-0.5,0.4-0.8,0.6l-0.3,0.2C837.9,173.1,838.3,172.9,838.7,172.6z"/>
				<path class="st17" d="M842.9,169.2c-0.3,0.2-0.4,0.4-0.7,0.6c-0.3,0.2-0.6,0.5-0.9,0.8c-0.3,0.3-1,0.9-1.6,1.2l1.6-1.3
					L842.9,169.2z"/>
				<path class="st17" d="M848.2,164c-0.2,0.3-0.5,0.5-0.7,0.7C847.7,164.5,848,164.3,848.2,164L848.2,164z"/>
				<path class="st17" d="M850.3,161.5c-0.2,0.2-0.3,0.5-0.5,0.7c-0.1,0.2-0.3,0.3-0.5,0.5L850.3,161.5L850.3,161.5z"/>
				<path class="st17" d="M852.2,159.1l-0.8,1.1c0.2-0.3,0.5-0.6,0.7-0.9C852.1,159.3,852.2,159.2,852.2,159.1z"/>
				<path class="st17" d="M860.7,144.3c0,0.2-0.2,0.4-0.3,0.6c-0.2,0.6-0.5,1.2-0.8,1.7C860,145.9,860.3,145.1,860.7,144.3z"/>
				<path class="st17" d="M862,140.8c-0.1,0.3-0.2,0.6-0.3,0.9l0,0C861.7,141.5,861.8,141.2,862,140.8z"/>
				<g>
					
						<linearGradient id="SVGID_6_" gradientUnits="userSpaceOnUse" x1="54.23" y1="745.9053" x2="1104" y2="745.9053" gradientTransform="matrix(1 0 0 1 0 1531.9899)">
						<stop  offset="0" style="stop-color:#010101"/>
						<stop  offset="0.1" style="stop-color:#131313"/>
						<stop  offset="0.25" style="stop-color:#2B2B2B"/>
						<stop  offset="0.4" style="stop-color:#3A3A3A"/>
						<stop  offset="0.52" style="stop-color:#3F3F3F"/>
						<stop  offset="0.63" style="stop-color:#383838"/>
						<stop  offset="0.8" style="stop-color:#232323"/>
						<stop  offset="1" style="stop-color:#010101"/>
					</linearGradient>
					<path class="st18" d="M1104,2218.8v23.3c0,23-6,45.6-17.4,65.6c-20.8,19.3-47.5,31.1-75.8,33.4c-1.2,0-2.4,0.2-3.6,0.2H151.1
						c-1.2,0-2.3,0-3.4-0.2c-1.6-0.1-3.2-0.2-4.8-0.5c-26.6-3.1-51.4-14.7-71-32.9c-11.5-20-17.6-42.7-17.6-65.8v-27.4
						c0.1,30.3,13.4,59,36.4,78.6c16.5,14.2,37.1,22.8,58.8,24.5h2.9c1.8,0,3.6,0.1,5.4,0.1h842.9c1.8,0,3.5,0,5.3-0.1h3.1
						C1061,2313.2,1101.6,2270.9,1104,2218.8z"/>
					
						<linearGradient id="SVGID_7_" gradientUnits="userSpaceOnUse" x1="54.2297" y1="-1402.4448" x2="1127.4202" y2="-1402.4448" gradientTransform="matrix(1 0 0 1 0 1531.9899)">
						<stop  offset="0" style="stop-color:#010101"/>
						<stop  offset="0.1" style="stop-color:#131313"/>
						<stop  offset="0.25" style="stop-color:#2B2B2B"/>
						<stop  offset="0.4" style="stop-color:#3A3A3A"/>
						<stop  offset="0.52" style="stop-color:#3F3F3F"/>
						<stop  offset="0.63" style="stop-color:#383838"/>
						<stop  offset="0.8" style="stop-color:#232323"/>
						<stop  offset="1" style="stop-color:#010101"/>
					</linearGradient>
					<path class="st19" d="M1127.4,193v-0.2c0.1-67.5-52.7-123.2-120.1-126.7H150.8c-2.8,0.2-5.4,0.4-8.1,0.7
						c-26.5,3.1-51.4,14.5-71,32.6c-11.5,20.1-17.5,42.9-17.5,66v27.3c0-54.7,42.6-100,97.3-103.3h854.6
						c53.3,2.8,95.7,45.8,97.9,99.1v-22.9c0.1-23.1-6-45.9-17.5-66C1112.6,123.7,1127.5,157.5,1127.4,193z"/>
					
						<linearGradient id="SVGID_8_" gradientUnits="userSpaceOnUse" x1="30.77" y1="-329.0398" x2="54.99" y2="-329.0398" gradientTransform="matrix(1 0 0 1 0 1531.9899)">
						<stop  offset="0" style="stop-color:#3F3F3F"/>
						<stop  offset="3.000000e-02" style="stop-color:#3D3D3D"/>
						<stop  offset="0.67" style="stop-color:#141414"/>
						<stop  offset="1" style="stop-color:#040404"/>
					</linearGradient>
					<path class="st20" d="M71.8,2307.1c-26-24-40.9-57.7-41-93.1V192c0-35.4,14.8-69.2,40.8-93.2c-11.5,20.1-17.5,42.9-17.5,66
						v2076.5C54.2,2264.4,60.2,2287.1,71.8,2307.1z"/>
					
						<linearGradient id="SVGID_9_" gradientUnits="userSpaceOnUse" x1="1086.41" y1="-328.1648" x2="1127.39" y2="-328.1648" gradientTransform="matrix(1 0 0 1 0 1531.9899)">
						<stop  offset="0" style="stop-color:#040404"/>
						<stop  offset="0.33" style="stop-color:#141414"/>
						<stop  offset="0.97" style="stop-color:#3D3D3D"/>
						<stop  offset="1" style="stop-color:#3F3F3F"/>
					</linearGradient>
					<path class="st21" d="M1127.4,193v2021.8c0,21.9-5.7,43.4-16.6,62.4c-1,1.7-2,3.3-3.1,5c-1.5,2.5-3.1,4.9-4.9,7.2
						c-4.9,6.7-10.4,13-16.5,18.6l0.2-0.2c11.4-20,17.4-42.6,17.4-65.6V165.7c0.1-23.1-6-45.9-17.5-66
						C1112.6,123.7,1127.5,157.5,1127.4,193z"/>
				</g>
				
					<linearGradient id="SVGID_10_" gradientUnits="userSpaceOnUse" x1="508.32" y1="-1408.1299" x2="642.83" y2="-1408.1299" gradientTransform="matrix(1 0 0 1 0 1531.9899)">
					<stop  offset="0" style="stop-color:#303030"/>
					<stop  offset="0.11" style="stop-color:#262626"/>
					<stop  offset="0.3" style="stop-color:#191919"/>
					<stop  offset="0.48" style="stop-color:#151515"/>
					<stop  offset="0.78" style="stop-color:#171717"/>
					<stop  offset="0.89" style="stop-color:#1E1E1E"/>
					<stop  offset="0.97" style="stop-color:#292929"/>
					<stop  offset="1" style="stop-color:#303030"/>
				</linearGradient>
				<path class="st22" d="M509.3,116.8h132.5c0.6,0,1,0.5,1,1v12.1c0,0.6-0.5,1-1,1H509.3c-0.6,0-1-0.5-1-1v-12.1
					C508.3,117.3,508.8,116.8,509.3,116.8z"/>
			</g>
			
				<linearGradient id="SVGID_11_" gradientUnits="userSpaceOnUse" x1="592.805" y1="731.4201" x2="592.805" y2="-1531.9899" gradientTransform="matrix(1 0 0 1 0 1531.9899)">
				<stop  offset="0" style="stop-color:#FFFFFF"/>
				<stop  offset="0.85" style="stop-color:#FFFFFF"/>
				<stop  offset="1" style="stop-color:#FFFFFF"/>
			</linearGradient>
			<path class="st23" d="M58.9,2176.7c0.1-0.1,0.1-0.3,0-0.4c0,0.2,0,0.3,0.3,0.4H58.9z M81.2,2214.1h0.3c0.3,0,0.6,0.7,0.9,1.1
				c-0.5-0.3-0.9-0.7-1.3-1.1H81.2z M135.4,2254.1l1.6,0.4c0.1,0,0.3,0,0.4,0.3c-0.7-0.3-1.4-0.6-2.1-0.7H135.4z M1047.5,2263.4h0.2
				c0.5,0.1,0.9,0.1,1.4,0c-0.6-0.1-1.1-0.1-1.7,0H1047.5z M1122.7,0.7c-0.1-0.3-0.3-0.5-0.6-0.7c0.5,0.5,1,1,1.5,1.4
				C1123.5,1.1,1123.1,0.9,1122.7,0.7z M1124.6,2227.6c0.4-0.4,0.7-0.8,1.1-1.3c0.3-0.3,0.6-0.6,1-0.8c-0.7,0.6-1.4,1.4-2.1,2
				L1124.6,2227.6z"/>
		</g>
		
			<linearGradient id="SVGID_12_" gradientUnits="userSpaceOnUse" x1="583.3809" y1="839.5902" x2="583.3809" y2="-1497.3899" gradientTransform="matrix(1 0 0 1 0 1531.9899)">
			<stop  offset="0.2" style="stop-color:#FFFFFF"/>
			<stop  offset="0.89" style="stop-color:#FFFFFF"/>
			<stop  offset="1" style="stop-color:#FFFFFF"/>
		</linearGradient>
		<path class="st24" d="M1165.4,575.5c-0.8-0.7-1.8-1.1-2.8-1.1c-2.4,0-4.4,2-4.4,4.4V192.2c0-87-70.5-157.6-157.5-157.6
			c0,0,0,0,0,0h-59L0,976.2V2214c0,87,70.5,157.6,157.5,157.6c0,0,0,0,0,0h842.9c87,0,157.6-70.5,157.6-157.5V838.4
			c0,2.4,2,4.4,4.4,4.4c1.1,0,2.1-0.4,2.8-1.2c1-0.8,1.5-2,1.5-3.3V578.7C1166.8,577.5,1166.3,576.3,1165.4,575.5z"/>
	</g>
</g>
</svg>
