<?xml version="1.0" encoding="utf-8"?>
<!-- Generator: Adobe Illustrator 23.0.0, SVG Export Plug-In . SVG Version: 6.00 Build 0)  -->
<svg version="1.1" id="Layer_1" xmlns="http://www.w3.org/2000/svg" xmlns:xlink="http://www.w3.org/1999/xlink" x="0px" y="0px"
	 viewBox="0 0 376.8 765.7" style="enable-background:new 0 0 376.8 765.7;" xml:space="preserve">
<style type="text/css">
	.st0{display:none;}
	.st1{display:inline;}
	.st2{fill-rule:evenodd;clip-rule:evenodd;fill:#FFFFFF;}
	.st3{fill-rule:evenodd;clip-rule:evenodd;fill:#90939B;}
	.st4{fill-rule:evenodd;clip-rule:evenodd;fill:#EA3323;}
	.st5{fill:#FFFFFF;}
	.st6{font-family:'ArialNarrow';}
	.st7{font-size:10.5914px;}
	.st8{fill-rule:evenodd;clip-rule:evenodd;fill:#658FF7;}
	.st9{display:inline;fill-rule:evenodd;clip-rule:evenodd;fill:#FFFFFF;}
	.st10{fill-rule:evenodd;clip-rule:evenodd;fill:#9296A1;}
	.st11{fill:#9296A1;}
	.st12{font-family:'ArialMT';}
	.st13{fill-rule:evenodd;clip-rule:evenodd;fill:#DCDDE0;}
	.st14{fill:#A0A4AE;}
	.st15{fill:#151822;}
	.st16{font-size:12.3567px;}
	.st17{fill:#54689E;}
	.st18{fill-rule:evenodd;clip-rule:evenodd;fill:#BEC1C8;}
	.st19{fill:#9297A2;}
	.st20{font-size:9.7088px;}
	.st21{fill:#1C1F28;}
	.st22{font-family:'Arial-BoldMT';}
	.st23{font-size:11.474px;}
	.st24{fill:#282B31;}
	.st25{font-size:9.2675px;}
	.st26{fill-rule:evenodd;clip-rule:evenodd;fill:#507DF7;}
	.st27{display:inline;fill-rule:evenodd;clip-rule:evenodd;fill:#DCDDE0;}
	.st28{fill-rule:evenodd;clip-rule:evenodd;fill:#DCDDDF;}
	.st29{display:inline;fill-rule:evenodd;clip-rule:evenodd;fill:#4167B2;}
	.st30{display:inline;opacity:0.3;fill-rule:evenodd;clip-rule:evenodd;enable-background:new    ;}
	.st31{display:inline;opacity:0.5;fill:#FFFFFF;enable-background:new    ;}
	.st32{display:inline;opacity:0.3;fill-rule:evenodd;clip-rule:evenodd;fill:#FFFFFF;enable-background:new    ;}
	.st33{fill:url(#SVGID_1_);}
	.st34{fill:url(#SVGID_2_);}
	.st35{fill:url(#SVGID_3_);}
	.st36{fill:url(#SVGID_4_);}
	.st37{fill:#3F3F3F;}
	.st38{fill:url(#SVGID_5_);}
	.st39{fill:#010101;}
	.st40{fill:url(#SVGID_6_);}
	.st41{fill:url(#SVGID_7_);}
	.st42{fill:url(#SVGID_8_);}
	.st43{fill:url(#SVGID_9_);}
	.st44{fill:url(#SVGID_10_);}
	.st45{fill:url(#SVGID_11_);}
</style>
<title>mobile</title>
<g class="st0">
	
		<image style="display:inline;overflow:visible;enable-background:new    ;" width="750" height="1334" id="Background" xlink:href="78A2DB1E.png"  transform="matrix(0.4413 0 0 0.5228 24.0426 41.91)">
	</image>
	<g class="st1">
		<path id="bg" class="st2" d="M355.5,703.8h-331v38.8h331V703.8z"/>
		<path id="profile_bt" class="st3" d="M311.8,717.9c0,1-0.8,1.8-1.8,1.8c-1,0-1.8-0.8-1.8-1.8s0.8-1.8,1.8-1.8
			C311,716.1,311.8,716.9,311.8,717.9z M317.1,717.9c0,1-0.8,1.8-1.8,1.8c-1,0-1.8-0.8-1.8-1.8s0.8-1.8,1.8-1.8
			C316.3,716.1,317.1,716.9,317.1,717.9z M322.4,717.9c0,1-0.8,1.8-1.8,1.8c-1,0-1.8-0.8-1.8-1.8s0.8-1.8,1.8-1.8
			C321.6,716.1,322.4,716.9,322.4,717.9z M311.8,723.2c0,1-0.8,1.8-1.8,1.8c-1,0-1.8-0.8-1.8-1.8s0.8-1.8,1.8-1.8
			C311,721.4,311.8,722.2,311.8,723.2z M317.1,723.2c0,1-0.8,1.8-1.8,1.8c-1,0-1.8-0.8-1.8-1.8s0.8-1.8,1.8-1.8
			C316.3,721.4,317.1,722.2,317.1,723.2z M322.4,723.2c0,1-0.8,1.8-1.8,1.8c-1,0-1.8-0.8-1.8-1.8s0.8-1.8,1.8-1.8
			C321.6,721.4,322.4,722.2,322.4,723.2z M311.8,728.5c0,1-0.8,1.8-1.8,1.8c-1,0-1.8-0.8-1.8-1.8s0.8-1.8,1.8-1.8
			C311,726.7,311.8,727.5,311.8,728.5z M317.1,728.5c0,1-0.8,1.8-1.8,1.8c-1,0-1.8-0.8-1.8-1.8s0.8-1.8,1.8-1.8
			C316.3,726.7,317.1,727.5,317.1,728.5z M322.4,728.5c0,1-0.8,1.8-1.8,1.8c-1,0-1.8-0.8-1.8-1.8s0.8-1.8,1.8-1.8
			C321.6,726.7,322.4,727.5,322.4,728.5z"/>
		<path id="notifications_bt" class="st3" d="M226.1,719.5c-0.2,0.7-0.3,1.4,0.4,2.8c0.3,0.6,0.9,1,1.6,1.1c0.1,0.2,0.3,0.3,0.5,0.3
			c0.2,0,0.3,0,0.5,0c0,0.1,0,0.1,0.1,0.2c0.1,0.2,0.2,0.3,0.3,0.5c0.2,0.2,0.5,0.4,0.8,0.5c0.2,0.1,0.3,0.1,0.5,0.2
			c-0.1,0.1-0.1,0.3-0.1,0.5c0,1.1,0.6,1,1.4,1.9c0.3,0.3,0.7,2.1,0,3.1c-0.3,0.5,1,0.2,2.1-0.7s1.3-2.1,2-2.7
			c0.7-0.5,1-1.2,0.6-1.6c-0.4-0.5-1.5-0.6-2.3-1.6c-0.5-0.6-1.9-0.5-2.5,0.1c-0.3,0.2-0.7,0.5-1,0.7c-0.1,0-0.2-0.1-0.3-0.2
			c-0.2-0.1-1.2,0-0.8-0.5c0.3-0.3-0.1-0.5-0.4-0.5h0c0.4-0.4-0.2-0.7-0.5-0.8c-0.1,0-0.3,0.2-0.6,0.3c-0.4-0.2-0.6-0.7-0.5-1.1
			c0.1-0.4,0.2-1.1,0.6-1c0.5,0.1,0.6-0.3,1.2-0.1c0.6,0.2,0.8,0,0.7,0.5c-0.1,0.5-0.3,1.1,0.1,1.2c0.7,0.3,0.7-0.7,0.6-1.1
			c0-0.4,0.8-0.9,1.1-1.3c0.4-0.4,0.6-1.6,1.2-1.6c0.6,0,1.7-0.6,1-1.4c-0.8-0.8-1.4-0.4-1.8,0s-1.1,0.9-1.2,0.1
			c-0.1-0.8,0.5-1.6-0.2-1.8c-0.4-0.1-1.9,0.1-2.7,0.5c-0.5,0.3-1.3,0.7-2.3,2C225.7,718.6,226.1,719.1,226.1,719.5z M238.2,722.4
			c0.5,0.6,0.9,0.7,1.1,1.6c0.2,0.9,0.3,1.7,0.3,1.7s0.5-2,0.3-2.9c-0.1-0.9-0.5-3.5-1.2-2.6C238,721,237.7,721.8,238.2,722.4z
			 M231.9,714.4c4.9,0,8.8,4,8.8,8.8c0,4.9-4,8.8-8.8,8.8s-8.8-4-8.8-8.8C223.1,718.3,227,714.4,231.9,714.4z"/>
		<path id="notification_bubble" class="st4" d="M249.6,718.8c0,4.4-3.6,7.9-7.9,7.9s-7.9-3.6-7.9-7.9s3.6-7.9,7.9-7.9
			S249.6,714.4,249.6,718.8z"/>
		<text transform="matrix(1 0 0 1 239.1689 723.4121)" class="st5 st6 st7">2</text>
		<path id="friends_bt" class="st3" d="M142.6,725.4c0.4-0.4,0.5-1,0.6-1.7c-0.4,0.1-0.7,0.1-1.1,0.1c0.1-0.1,0.3-0.2,0.4-0.4
			c-0.6-0.1-1.8-0.3-1.8-0.3s1-0.4,1-0.8s-0.2-0.6-0.3-1.3c-0.1-1,0-1.8,0.7-3.2c0.5-1,1.5-1.1,1.8-0.9c0-0.5,1.9-0.8,2.9,0.9
			c0.6,0.9,0.9,2.1,0.7,3.2c-0.1,0.7-0.2,0.9-0.2,1.3c0,0.4,0.7,0.9,0.7,0.9s-0.8,0.1-1.4,0.2c0.1,0.2,0.3,0.3,0.5,0.5l-1.2-0.3
			c0,0.8,0.2,1.4,0.6,1.7c0.4,0.4,1.7,0.7,2.4,1c0.9,0.4,1.5,1.5,1.6,2.9c0,1.3-0.3,1.4-1.6,1.4h-8.4c-1.3,0-1.6-0.1-1.5-1.4
			c0.1-1.3,0.6-2.4,1.4-2.8C140.8,726.1,142.2,725.8,142.6,725.4z M151.5,730.7L151.5,730.7h-0.3c0.1-0.2,0.2-0.4,0.2-0.7
			c0-1.4,0-2.5-0.7-3.4c-0.6-0.7-1.8-1.3-2.6-1.6c0.3-0.2,0.7-0.4,1-0.5c0.4-0.2,0.6-0.5,0.6-0.9c0-0.2,0.1-0.7,0.1-1.1l-0.1-0.1
			c-0.2-0.4-0.4-0.8-0.4-1.2c-0.1,0-0.2,0-0.2-0.1c-0.1-0.2-0.2-0.4-0.2-0.6c0-0.1-0.1-0.3-0.1-0.4c0-0.2,0.1-0.3,0.2-0.4h0.2
			c0-0.4-0.1-0.7-0.1-1.1c0-1.7,0.2-2.2,1-2.3c0.4-0.3,0.9-0.5,1.4-0.5c2.7,0,2.7,2.3,2.7,2.4c-0.1,0.1-0.2,0.1-0.4,0.2
			c0,0.4,0,0.8,0,1.2h0.1c0.1,0.1,0.2,0.2,0.2,0.4c0,0.1,0,0.3,0,0.4c-0.1,0.2-0.1,0.4-0.2,0.6c0,0.1-0.1,0.1-0.2,0.1
			c0,0.4-0.1,0.7-0.3,1.1c0,0.1-0.1,0.2-0.2,0.3c0,0.4,0.1,0.9,0.1,1.1c0,0.4,0.2,0.7,0.6,0.9c3.2,1.7,4,1.6,4.3,3.9
			c0,0.2,0,0.5,0,0.7c0,1.5-0.5,1.6-1.8,1.6L151.5,730.7L151.5,730.7z"/>
		<path id="feed_bt" class="st8" d="M71.3,731.1H58.9c-1.2,0-2.2-1-2.2-2.2v-11.5c0-1.2,1-2.2,2.2-2.2h12.4c1.2,0,2.2,1,2.2,2.2
			v11.5C73.5,730.2,72.5,731.1,71.3,731.1z M58.9,720.6h2.6c0.2,0,0.4-0.2,0.4-0.4v-2.6c0-0.2-0.2-0.4-0.4-0.4h-2.6
			c-0.2,0-0.4,0.2-0.4,0.4v2.6C58.5,720.4,58.7,720.6,58.9,720.6z M71.3,722.3H58.9c-0.2,0-0.4,0.2-0.4,0.4v6.2
			c0,0.2,0.2,0.4,0.4,0.4h12.4c0.2,0,0.4-0.2,0.4-0.4v-6.2C71.7,722.5,71.5,722.3,71.3,722.3z M63.3,717.5v0.9h8.4v-0.9H63.3z
			 M67.7,719.2h-4.4v0.9h4.4V719.2z"/>
	</g>
	<path id="bg-2" class="st9" d="M354.6,180.9h-331v516.3h331V180.9z"/>
	<g id="buttons" class="st1">
		<g id="share">
			<path id="arrow_icon" class="st10" d="M276.7,568.5l-5.2-5.2c-0.2-0.2-0.5-0.2-0.7,0v3.1c0,0-7.4-0.3-8.1,8.2
				c0,0,2.4-4.1,8.1-3.6v3.5c0.2,0.2,0.5,0.2,0.7,0l5.2-5.2C276.9,568.9,276.9,568.6,276.7,568.5z"/>
			<text id="Share-2" transform="matrix(1 0 0 1 284.4551 573.8955)" class="st11 st12 st7">Share</text>
		</g>
		<g id="comment">
			<path id="bubble_icon" class="st10" d="M163.8,563.5h-8.5c-1.1,0-1.9,0.9-1.9,1.9v5.8c0,1.1,0.9,1.9,1.9,1.9h1.6v2.2
				c0,0,0,0.6,0.3,0.4c0.2-0.1,0.5-0.3,0.7-0.4l2.4-2.2h3.5c1.1,0,1.9-0.9,1.9-1.9v-5.8C165.7,564.4,164.8,563.5,163.8,563.5z"/>
			<text id="Comment-2" transform="matrix(1 0 0 1 173.686 573.8955)" class="st11 st12 st7">Comment</text>
		</g>
		<g id="like">
			<path id="hand_icon" class="st10" d="M46.9,566.9h-2c-0.3,0-0.6,0.3-0.6,0.6c0,0,0,0,0,0v6.4c0,0.3,0.3,0.6,0.6,0.6c0,0,0,0,0,0
				h2c0.3,0,0.6-0.3,0.6-0.6c0,0,0,0,0,0v-6.4C47.5,567.2,47.3,566.9,46.9,566.9C46.9,566.9,46.9,566.9,46.9,566.9z M56.8,568.3
				c0.5-0.2,0.8-0.7,0.8-1.2c0.1-0.6-0.4-1.1-1-1.2c-0.1,0-0.2,0-0.2,0H53c0.5-1,0.8-2.1,0.8-3.3c0-0.6-0.5-1.8-1.4-1.8
				c-0.9,0-1.1,0.6-1.1,0.6s0.2,1.6,0,1.8c-0.2,0.2-2.9,3.3-2.9,3.9c0,0.4,0,1.1,0,1.3c0,0,0,0,0,0v4.6c0,0.4,0.3,0.8,0.8,0.7h5.8
				c0,0,0,0,0,0c1.4,0,2-0.5,2-1c0-0.3-0.2-0.6-0.5-0.7c0.4-0.1,0.6-0.5,0.6-0.9c0.1-0.4-0.1-0.7-0.5-0.9c0.5-0.1,0.9-0.5,0.9-1
				C57.6,568.7,57.3,568.3,56.8,568.3C56.8,568.3,56.8,568.3,56.8,568.3z"/>
			<text id="Like-2" transform="matrix(1 0 0 1 65.5649 573.8955)" class="st11 st12 st7">Like</text>
		</g>
		<path id="divider" class="st13" d="M343.6,551.2H33.8v-0.4h309.8V551.2z"/>
	</g>
	<g id="info" class="st1">
		<text id="_1.928_sharings" transform="matrix(1 0 0 1 211.1992 539.916)" class="st14 st12 st7">1.928 sharings</text>
		<text id="_2.475_comments" transform="matrix(1 0 0 1 117.6401 539.916)" class="st14 st12 st7">2.475 comments</text>
		<text id="_3.675" transform="matrix(1 0 0 1 80.5698 539.916)" class="st14 st12 st7">3.675</text>
		<g id="reactions">
			
				<image style="overflow:visible;enable-background:new    ;" width="39" height="39" id="Amazing_face" xlink:href="78A2DB1D.png"  transform="matrix(0.4866 0 0 0.4866 60.23 525.5853)">
			</image>
			
				<image style="overflow:visible;enable-background:new    ;" width="39" height="39" id="Heart_icon" xlink:href="78A2DB1A.png"  transform="matrix(0.4866 0 0 0.4866 46.1081 525.5853)">
			</image>
			
				<image style="overflow:visible;enable-background:new    ;" width="39" height="39" id="Like_icon" xlink:href="78A2DB15.png"  transform="matrix(0.4866 0 0 0.4866 32.4275 526.0267)">
			</image>
		</g>
	</g>
	
		<image style="display:inline;overflow:visible;enable-background:new    ;" width="752" height="480" id="photo_double_clik_to_edit_" xlink:href="78A2DB14.png"  transform="matrix(0.4413 0 0 0.4413 23.16 296.5457)">
	</image>
	<g id="text" class="st1">
		<text transform="matrix(1 0 0 1 33.751 240.9619)" class="st15 st12 st16">I really love this layout!!</text>
		<text transform="matrix(1 0 0 1 33.751 255.7881)" class="st15 st12 st16">Please share more at  </text>
		<text transform="matrix(1 0 0 1 156.6567 255.7881)" class="st17 st12 st16">http://marinad.com.ar</text>
		<text id="See_translation" transform="matrix(1 0 0 1 33.3535 289.8359)" class="st14 st12 st16">See translation</text>
	</g>
	<g id="text_1_" class="st1">
		<text transform="matrix(1 0 0 1 33.751 606.1801)" class="st15 st12 st16">I really love this layout!!</text>
		<text transform="matrix(1 0 0 1 33.751 621.0062)" class="st15 st12 st16">Please share more at  </text>
		<text transform="matrix(1 0 0 1 156.6567 621.0062)" class="st17 st12 st16">http://marinad.com.ar</text>
		<text id="See_translation_1_" transform="matrix(1 0 0 1 33.3535 655.0541)" class="st14 st12 st16">See translation</text>
	</g>
	<g id="header" class="st1">
		<path id="arrow" class="st18" d="M343.7,198.4c-0.3-0.3-0.9-0.4-1.2,0c0,0,0,0,0,0l-3.5,3.6l-3.5-3.6c-0.3-0.3-0.9-0.4-1.2,0
			c0,0,0,0,0,0c-0.3,0.4-0.3,0.9,0,1.3l4.1,4.2c0,0,0,0,0,0.1c0.3,0.3,0.9,0.4,1.2,0c0,0,0,0,0,0c0,0,0,0,0-0.1l4.1-4.2
			C344,199.3,344,198.7,343.7,198.4z"/>
		<path id="world_icon" class="st3" d="M147.3,216.9c-0.1,0.5-0.1,0.9,0.2,1.3c0.2,0.3,0.4,0.5,0.8,0.5c0.1,0.1,0.1,0.1,0.2,0.1
			c0.1,0,0.2,0,0.2,0c0,0,0,0.1,0,0.1c0,0.1,0.1,0.2,0.2,0.2c0.1,0.1,0.2,0.2,0.4,0.2c0.1,0,0.2,0.1,0.2,0.1c0,0.1,0,0.1,0,0.2
			c0,0.5,0.3,0.5,0.7,0.9c0.2,0.5,0.2,1,0,1.5c-0.1,0.2,0.5,0.1,1-0.3s0.6-1,1-1.3c0.3-0.3,0.5-0.6,0.3-0.8
			c-0.2-0.2-0.7-0.3-1.1-0.7c-0.3-0.3-0.8-0.3-1.2,0c-0.2,0.1-0.3,0.2-0.5,0.3c-0.1,0-0.1,0-0.2-0.1c-0.1-0.1-0.6,0-0.4-0.2
			c0.1-0.2,0-0.2-0.2-0.3h0c0.2-0.2-0.1-0.3-0.3-0.4c0,0-0.1,0.1-0.3,0.1c-0.2-0.1-0.3-0.3-0.2-0.5c0-0.2,0.1-0.5,0.3-0.5
			c0.2,0.1,0.3-0.1,0.6,0c0.3,0.1,0.4,0,0.3,0.3c-0.1,0.3-0.1,0.5,0.1,0.6c0.3,0.1,0.3-0.3,0.3-0.5c0-0.2,0.4-0.4,0.5-0.6
			c0.2-0.2,0.3-0.8,0.6-0.8c0.3,0,0.8-0.3,0.5-0.7c-0.2-0.2-0.5-0.3-0.7-0.1c-0.1,0-0.1,0.1-0.1,0.2c-0.2,0.2-0.5,0.4-0.6,0
			c-0.1-0.4,0.3-0.8-0.1-0.9c-0.4,0-0.9,0.1-1.3,0.3c-0.4,0.2-0.8,0.6-1.1,1C147.1,216.5,147.3,216.7,147.3,216.9z M153,218.3
			c0.2,0.2,0.4,0.5,0.5,0.8c0.1,0.4,0.1,0.8,0.1,0.8c0.1-0.5,0.2-0.9,0.2-1.4c-0.1-0.4-0.2-1.7-0.6-1.3
			C152.9,217.6,152.8,218,153,218.3L153,218.3z M150,214.5c2.3,0,4.2,1.9,4.2,4.2c0,2.3-1.9,4.2-4.2,4.2s-4.2-1.9-4.2-4.2
			C145.8,216.3,147.7,214.5,150,214.5C150,214.5,150,214.5,150,214.5L150,214.5z"/>
		<text id="Today_at_23:45" transform="matrix(1 0 0 1 76.4702 223.2451)" class="st19 st12 st20">Today at 23:45</text>
		<text id="Friend_Name" transform="matrix(1 0 0 1 76.4702 205.5913)" class="st21 st22 st23">Friend Name</text>
		
			<image style="overflow:visible;enable-background:new    ;" width="80" height="80" id="photo2" xlink:href="78A2DB13.png"  transform="matrix(0.4413 0 0 0.4413 34.1927 191.9553)">
		</image>
	</g>
	<path id="bg-3" class="st9" d="M354.6,98.8h-331v79.4h331V98.8z"/>
	<g id="Friend_Story" class="st1">
		<text transform="matrix(1 0 0 1 363 171.8286)" class="st24 st12 st25">Friend</text>
		<g id="Story">
			
				<image style="overflow:visible;enable-background:new    ;" width="112" height="111" id="image" xlink:href="78A2DB28.png"  transform="matrix(0.4413 0 0 0.4413 351.4944 108.1064)">
			</image>
		</g>
		<path id="circle" class="st13" d="M376.2,160.2c-15.1,0-27.4-12.3-27.4-27.4s12.3-27.4,27.4-27.4c15.1,0,27.4,12.3,27.4,27.4
			C403.6,147.9,391.3,160.2,376.2,160.2z M376.2,106.3c-14.6,0-26.5,11.9-26.5,26.5s11.9,26.5,26.5,26.5c14.6,0,26.5-11.9,26.5-26.5
			C402.7,118.2,390.8,106.4,376.2,106.3z"/>
	</g>
	<g id="Friend_Story-2" class="st1">
		<text transform="matrix(1 0 0 1 302.543 171.8286)" class="st24 st12 st25">Friend</text>
		<g id="Story-2">
			
				<image style="overflow:visible;enable-background:new    ;" width="112" height="111" xlink:href="78A2DB2A.png"  transform="matrix(0.4413 0 0 0.4413 291.0349 108.1064)">
			</image>
		</g>
		<path id="circle-2" class="st13" d="M315.7,160.2c-15.1,0-27.4-12.3-27.4-27.4s12.3-27.4,27.4-27.4c15.1,0,27.4,12.3,27.4,27.4
			C343.1,147.9,330.9,160.2,315.7,160.2z M315.7,106.3c-14.6,0-26.5,11.9-26.5,26.5s11.9,26.5,26.5,26.5c14.6,0,26.5-11.9,26.5-26.5
			C342.2,118.2,330.4,106.4,315.7,106.3z"/>
	</g>
	<g id="Friend_Story-3" class="st1">
		<text transform="matrix(1 0 0 1 241.6416 171.8286)" class="st24 st12 st25">Friend</text>
		<g id="Story-3">
			
				<image style="overflow:visible;enable-background:new    ;" width="112" height="111" xlink:href="78A2DB2E.png"  transform="matrix(0.4413 0 0 0.4413 230.1342 108.1064)">
			</image>
		</g>
		<path id="circle-3" class="st13" d="M254.8,160.2c-15.1,0-27.4-12.3-27.4-27.4s12.3-27.4,27.4-27.4c15.1,0,27.4,12.3,27.4,27.4
			C282.2,147.9,270,160.2,254.8,160.2z M254.8,106.3c-14.6,0-26.5,11.9-26.5,26.5s11.9,26.5,26.5,26.5c14.6,0,26.5-11.9,26.5-26.5
			C281.3,118.2,269.5,106.4,254.8,106.3z"/>
	</g>
	<g id="Active_Friend_Story" class="st1">
		<text transform="matrix(1 0 0 1 180.7407 171.8286)" class="st24 st12 st25">Friend</text>
		
			<image style="overflow:visible;enable-background:new    ;" width="114" height="116" id="Story-4" xlink:href="6F89AAF9.png"  transform="matrix(0.4413 0 0 0.4413 168.7922 107.2238)">
		</image>
		<path id="circle-4" class="st26" d="M193.9,161.1c-15.6,0-28.2-12.6-28.2-28.2s12.6-28.2,28.2-28.2s28.2,12.6,28.2,28.2
			C222.2,148.4,209.5,161,193.9,161.1z M193.9,106.3c-14.6,0-26.5,11.9-26.5,26.5s11.9,26.5,26.5,26.5c14.6,0,26.5-11.9,26.5-26.5
			C220.4,118.2,208.6,106.4,193.9,106.3z"/>
	</g>
	<g id="Your_Story" class="st1">
		<text transform="matrix(1 0 0 1 111.8423 171.8286)" class="st24 st12 st25">Your story</text>
		
			<image style="overflow:visible;enable-background:new    ;" width="112" height="112" id="story-5" xlink:href="6F89AAFE.png"  transform="matrix(0.4413 0 0 0.4413 108.3328 107.6651)">
		</image>
		<path id="plus_circle" class="st26" d="M161.7,146.5c0,5.4-4.3,9.7-9.7,9.7s-9.7-4.3-9.7-9.7s4.3-9.7,9.7-9.7
			S161.7,141.1,161.7,146.5L161.7,146.5z"/>
		<path id="plus" class="st2" d="M152,156.7c-5.6,0-10.2-4.5-10.2-10.2s4.5-10.2,10.2-10.2c5.6,0,10.2,4.5,10.2,10.2l0,0
			C162.2,152.1,157.6,156.6,152,156.7z M152,137.2c-5.1,0-9.3,4.1-9.3,9.3s4.1,9.3,9.3,9.3c5.1,0,9.3-4.1,9.3-9.3
			C161.3,141.4,157.1,137.2,152,137.2z M156,145.8h-3.3v-3.3c0-0.4-0.3-0.7-0.7-0.7c-0.4,0-0.7,0.3-0.7,0.7v3.3h-3.3
			c-0.4,0-0.7,0.3-0.7,0.7c0,0.4,0.3,0.7,0.7,0.7h3.3v3.3c0,0.4,0.3,0.7,0.7,0.7c0.4,0,0.7-0.3,0.7-0.7v-3.3h3.3
			c0.4,0,0.7-0.3,0.7-0.7C156.7,146.1,156.4,145.8,156,145.8z"/>
	</g>
	<path id="divider-2" class="st27" d="M96.4,151.8H96v-38h0.4V151.8z"/>
	<g id="Direct" class="st1">
		<text transform="matrix(1 0 0 1 48.0581 171.8286)" class="st24 st12 st25">Direct</text>
		<path id="circle-5" class="st28" d="M60,158.4c-14.3,0-25.8-11.6-25.8-25.8s11.6-25.8,25.8-25.8s25.8,11.6,25.8,25.8l0,0
			C85.8,146.9,74.3,158.4,60,158.4z M60,108.1c-13.5,0-24.5,11-24.5,24.5c0,13.5,11,24.5,24.5,24.5s24.5-11,24.5-24.5
			C84.5,119.1,73.5,108.1,60,108.1z"/>
		<path id="plane_icon" class="st26" d="M68.2,125.6h-0.8l-10.6,7c-0.2,0.1-0.5,0.2-0.8,0.2c-0.3-0.1-0.6-0.1-0.9-0.2l-5-1.7
			c0,0-0.5-0.1-0.5-1.2c0-0.5,0.3-0.9,0.7-1l18.3-5.5c0,0,1.3-0.5,1.9,0c0.6,0.5,0.1,1.8,0.1,1.8l-6.1,16.6
			c-0.1,0.3-0.3,0.5-0.5,0.8c-0.3,0.1-0.7,0-0.9-0.2l-5.6-7.6c-0.1-0.2-0.2-0.4-0.2-0.6c0.2-0.3,0.4-0.6,0.7-0.8L68.2,125.6z
			 M55.5,133.9v6c0.3,0.3,0.6,0.5,1.1,0.6c0.4,0,0.9-0.6,0.9-0.6l1-1.1c0.2-0.2,0.3-0.4,0.3-0.6c0-0.2-0.1-0.5-0.2-0.7l-2.3-3.3
			C56.2,133.9,55.8,133.8,55.5,133.9z"/>
	</g>
	<path id="bg-4" class="st29" d="M354.6,98.8h-331V32.2h331V98.8z"/>
	<path id="searchbar" class="st30" d="M309.6,66.6h-241c-2.2,0-3.9,1.8-3.9,4l0,0v17.7c0,2.2,1.8,3.9,3.9,3.9h241
		c2.2,0,3.9-1.8,3.9-4V70.6C313.5,68.4,311.8,66.6,309.6,66.6"/>
	<text id="Search" transform="matrix(1 0 0 1 90.3677 84.5898)" class="st31 st12 st16">Search</text>
	<path id="search_icon" class="st32" d="M78.1,81.9c-2,0-3.6-1.6-3.6-3.6c0-2,1.6-3.6,3.6-3.6c2,0,3.6,1.6,3.6,3.6
		C81.7,80.3,80.1,81.9,78.1,81.9C78.1,81.9,78.1,81.9,78.1,81.9 M78.1,73.2c-2.8,0-5.1,2.3-5.1,5.1c0,2.8,2.3,5.1,5.1,5.1
		c1,0,2-0.3,2.9-0.9l2.6,2.8c0.4,0.4,1.1,0.4,1.5,0l0,0c0.4-0.4,0.4-1.1,0-1.5l-2.9-2.3c1.7-2.2,1.3-5.4-0.9-7.1
		C80.4,73.6,79.3,73.2,78.1,73.2"/>
	<path id="message_icon" class="st9" d="M332.1,69.7c-5.1,0-9.3,3.9-9.3,8.8c0,2.3,0.9,4.4,2.6,6v4.2l3.3-2.1
		c1.1,0.4,2.3,0.6,3.5,0.6c5.1,0,9.3-3.9,9.3-8.8C341.3,73.6,337.2,69.7,332.1,69.7z M333.1,81.5l-2.6-2.5c0,0-4.4,2.4-4.5,2.5
		l5-5.5l2.3,2.5h0.5l4.5-2.5L333.1,81.5z"/>
	<path id="camera_icon" class="st9" d="M47.9,79.4c0,1.7-1.4,3.1-3.1,3.1c-1.7,0-3.1-1.4-3.1-3.1c0-1.7,1.4-3.1,3.1-3.1c0,0,0,0,0,0
		C46.5,76.3,47.9,77.7,47.9,79.4C47.9,79.4,47.9,79.4,47.9,79.4z M51.2,73.7h-1.6c-0.4-1.1-1.5-1.8-2.6-1.8h-3.8
		c-1.2,0-2.2,0.7-2.6,1.8h-2.1c-1.3,0-2.4,1.1-2.5,2.4v7.4c0,1.4,1.1,2.4,2.5,2.4h12.7c1.3,0,2.4-1.1,2.5-2.4v-7.4
		C53.6,74.8,52.5,73.7,51.2,73.7z M44.8,83.8c-2.4,0-4.4-2-4.4-4.4c0-2.4,2-4.4,4.4-4.4c2.4,0,4.4,2,4.4,4.4
		C49.2,81.9,47.2,83.8,44.8,83.8z M51,77.5c-0.6,0-1.1-0.5-1.1-1.1s0.5-1.1,1.1-1.1c0.6,0,1.1,0.5,1.1,1.1
		C52.1,77,51.6,77.5,51,77.5C51,77.5,51,77.5,51,77.5z"/>
	<g id="ios_info" class="st1">
		<path id="battery" class="st2" d="M333.6,45.6c0,0.9-0.5,1.5-1.3,1.5V44C333.2,44,333.6,44.7,333.6,45.6z M331.9,42.7v5.7
			c0,0.7-0.6,1.3-1.3,1.3c0,0,0,0,0,0h-17.2c-0.7,0-1.3-0.6-1.3-1.3c0,0,0,0,0,0v-5.7c0-0.7,0.6-1.3,1.3-1.3h17.2
			C331.3,41.4,331.9,42,331.9,42.7z M313.3,41.8c-0.5,0-0.9,0.4-0.9,0.9v5.7c0,0.5,0.4,0.9,0.9,0.9h17.2c0.5,0,0.9-0.4,0.9-0.9v-5.7
			c0-0.5-0.4-0.9-0.9-0.9H313.3z M312.9,42.7v5.7c0,0.2,0.2,0.4,0.4,0.4h17.2c0.2,0,0.4-0.2,0.4-0.4v-5.7c0-0.2-0.2-0.4-0.4-0.4
			h-17.2C313.1,42.2,312.9,42.4,312.9,42.7z"/>
		<text transform="matrix(1 0 0 1 51.8442 49.8223)" class="st5 st22 st7">23:45</text>
		<path id="wifi" class="st2" d="M296.3,41.4c2,0,3.8,0.8,5.3,2.1l-0.7,0.8c-2.7-2.2-6.5-2.2-9.2,0l-0.7-0.8
			C292.5,42.1,294.4,41.4,296.3,41.4z M296.3,44.1c1.3,0,2.5,0.5,3.5,1.3l-0.8,0.8c-1.6-1.3-3.9-1.3-5.5,0l-0.8-0.8
			C293.8,44.6,295,44.1,296.3,44.1z M296.3,46.8c0.6,0,1.2,0.2,1.7,0.6l-1.7,1.9l-1.7-1.9C295.1,47,295.7,46.8,296.3,46.8z"/>
	</g>
</g>
<g>
	<g>
		<g>
			<g>
				<g>
					
						<linearGradient id="SVGID_1_" gradientUnits="userSpaceOnUse" x1="1.41" y1="377.655" x2="6.89" y2="377.655" gradientTransform="matrix(1 0 0 -1 0 766)">
						<stop  offset="0" style="stop-color:#676767"/>
						<stop  offset="5.000000e-02" style="stop-color:#727272"/>
						<stop  offset="0.33" style="stop-color:#A9A8A8"/>
						<stop  offset="0.57" style="stop-color:#D0CFCF"/>
						<stop  offset="0.75" style="stop-color:#E8E7E7"/>
						<stop  offset="0.87" style="stop-color:#F1F0F0"/>
						<stop  offset="0.94" style="stop-color:#F7F6F6"/>
						<stop  offset="1" style="stop-color:#FFFFFF"/>
					</linearGradient>
					<path class="st33" d="M46.1,759.3c-0.4,0-0.8-0.1-1.2-0.1l0,0c-0.8-0.1-1.6-0.2-2.3-0.3c-4.6-0.8-9-2.2-13.2-4.2l-0.9-0.4
						c-0.7-0.4-1.5-0.8-2.2-1.2l-1-0.6c-1.6-1-3.2-2.1-4.7-3.2l-0.8-0.6c-0.8-0.6-1.6-1.3-2.3-2l-0.7-0.7c-0.3-0.3-0.6-0.5-0.8-0.8
						s-0.5-0.5-0.8-0.8l-0.5-0.5L14,743c-1.3-1.4-2.4-2.9-3.5-4.5c-0.2-0.3-0.4-0.6-0.6-0.8c-0.6-0.9-1.1-1.8-1.7-2.7
						c-0.2-0.3-0.4-0.7-0.6-1c-1.4-2.5-2.5-5-3.5-7.7c-0.1-0.4-0.3-0.7-0.4-1.1c-0.6-1.9-1.1-3.7-1.5-5.7c-0.1-0.4-0.2-0.8-0.2-1.2
						c-0.5-2.8-0.7-5.6-0.7-8.4V66.8c0-26.4,20.8-48.1,47.1-49.4C24.8,18.6,6.2,38.2,6.2,62v652.8C6.2,737.7,23.4,756.9,46.1,759.3z
						"/>
					
						<linearGradient id="SVGID_2_" gradientUnits="userSpaceOnUse" x1="367.89" y1="377.615" x2="373.32" y2="377.615" gradientTransform="matrix(1 0 0 -1 0 766)">
						<stop  offset="0" style="stop-color:#FFFFFF"/>
						<stop  offset="6.000000e-02" style="stop-color:#F7F6F6"/>
						<stop  offset="0.13" style="stop-color:#F1F0F0"/>
						<stop  offset="0.25" style="stop-color:#E8E7E7"/>
						<stop  offset="0.43" style="stop-color:#D0CFCF"/>
						<stop  offset="0.67" style="stop-color:#A9A8A8"/>
						<stop  offset="0.95" style="stop-color:#727272"/>
						<stop  offset="1" style="stop-color:#676767"/>
					</linearGradient>
					<path class="st34" d="M372.5,66.8v643.4c0,5.2-0.8,10.3-2.4,15.2c-0.1,0.4-0.2,0.7-0.4,1.1s-0.3,0.7-0.4,1.1s-0.2,0.5-0.3,0.8
						c-0.3,0.8-0.7,1.6-1,2.4c-0.2,0.3-0.3,0.7-0.5,1s-0.5,1-0.7,1.4s-0.3,0.6-0.5,1s-0.4,0.7-0.6,1c-0.5,0.9-1.1,1.8-1.7,2.7
						c-0.2,0.3-0.4,0.6-0.6,0.8s-0.4,0.6-0.7,0.9s-0.5,0.6-0.7,0.9l-0.7,0.9l-0.7,0.9c-0.5,0.6-1,1.1-1.5,1.7
						c-0.8,0.8-1.6,1.7-2.5,2.5l-0.8,0.7c-0.6,0.5-1.2,1-1.8,1.5l-0.8,0.6c-0.9,0.7-1.8,1.4-2.8,2l-1,0.6c-0.6,0.4-1.3,0.8-2,1.2
						c-0.3,0.2-0.6,0.4-1,0.5c-1.1,0.6-2.1,1.1-3.3,1.6c-0.3,0.1-0.6,0.3-0.9,0.4s-0.7,0.3-1,0.4l-1.1,0.4c-0.8,0.3-1.6,0.6-2.4,0.8
						l-0.9,0.3c-1.1,0.3-2.2,0.6-3.3,0.8l-1.2,0.3c-0.4,0.1-0.8,0.2-1.3,0.2c-0.8,0.1-1.5,0.3-2.3,0.3l0,0c-0.4,0-0.8,0.1-1.2,0.1
						c22.7-2.5,40-21.6,40-44.5V62c0-23.3-18-42.7-41.2-44.6C352.4,19.3,372.5,40.8,372.5,66.8z"/>
					
						<linearGradient id="SVGID_3_" gradientUnits="userSpaceOnUse" x1="186.965" y1="1.71" x2="186.965" y2="45.09" gradientTransform="matrix(1 0 0 -1 0 766)">
						<stop  offset="0" style="stop-color:#F1F0F0"/>
						<stop  offset="0.11" style="stop-color:#E3E2E2"/>
						<stop  offset="0.33" style="stop-color:#BFBEBE"/>
						<stop  offset="0.63" style="stop-color:#848383"/>
						<stop  offset="0.99" style="stop-color:#333333"/>
						<stop  offset="1" style="stop-color:#303030"/>
					</linearGradient>
					<path class="st35" d="M372.5,710.1v4.7c0,27.3-22.2,49.4-49.5,49.5H50.9c-27.3,0-49.4-22.1-49.5-49.4v-4.7
						c0,2.8,0.2,5.6,0.7,8.4c0.1,0.4,0.1,0.8,0.2,1.2c0.4,1.9,0.9,3.8,1.5,5.7c0.1,0.4,0.2,0.7,0.4,1.1c0.9,2.7,2.1,5.2,3.5,7.7
						c0.2,0.3,0.4,0.7,0.6,1c0.5,0.9,1.1,1.8,1.7,2.7c0.2,0.3,0.4,0.6,0.6,0.8c1.1,1.5,2.3,3,3.5,4.4l0.6,0.7l0.5,0.5
						c0.3,0.3,0.5,0.5,0.8,0.8c0.3,0.3,0.6,0.5,0.8,0.8l0.7,0.7c0.7,0.7,1.5,1.3,2.3,2l0.8,0.6c1.5,1.2,3.1,2.2,4.7,3.2l1,0.6
						c0.7,0.4,1.4,0.8,2.2,1.2l0.9,0.4c4.2,2,8.6,3.5,13.2,4.2c0.8,0.1,1.5,0.3,2.3,0.3l0,0c0.8,0.1,1.6,0.2,2.4,0.2l1.2,0.1
						c0.8,0,1.5,0.1,2.3,0.1H323c0.8,0,1.5,0,2.3-0.1l1.2-0.1c0.7,0,1.3-0.1,1.9-0.2h0.5l0,0c0.8-0.1,1.6-0.2,2.3-0.3
						c0.4-0.1,0.8-0.1,1.3-0.2l1.2-0.3c1.1-0.3,2.2-0.5,3.3-0.8l0.9-0.3c0.8-0.3,1.6-0.5,2.4-0.8l1.1-0.4c0.4-0.1,0.7-0.3,1-0.4
						s0.6-0.3,0.9-0.4c1.1-0.5,2.2-1,3.3-1.6c0.3-0.2,0.6-0.3,1-0.5c0.7-0.4,1.3-0.8,2-1.2c0.3-0.2,0.6-0.4,1-0.6
						c0.9-0.6,1.9-1.3,2.8-2l0.8-0.6c0.6-0.5,1.2-1,1.8-1.5c0.3-0.2,0.5-0.5,0.8-0.7c0.9-0.8,1.7-1.6,2.5-2.5c0.5-0.5,1-1.1,1.5-1.7
						l0.7-0.9c0.2-0.3,0.5-0.6,0.7-0.9s0.5-0.6,0.7-0.9s0.5-0.6,0.7-0.9s0.4-0.6,0.6-0.8c0.6-0.9,1.2-1.8,1.7-2.7
						c0.2-0.3,0.4-0.7,0.6-1c0.2-0.3,0.4-0.6,0.5-1s0.5-0.9,0.7-1.4s0.3-0.7,0.5-1c0.4-0.8,0.7-1.6,1-2.4c0.1-0.3,0.2-0.5,0.3-0.8
						s0.3-0.7,0.4-1.1s0.3-0.7,0.4-1.1C371.7,720.4,372.5,715.3,372.5,710.1z"/>
				</g>
				
					<linearGradient id="SVGID_4_" gradientUnits="userSpaceOnUse" x1="186.965" y1="711.99" x2="186.965" y2="766.13" gradientTransform="matrix(1 0 0 -1 0 766)">
					<stop  offset="0" style="stop-color:#303030"/>
					<stop  offset="8.000000e-02" style="stop-color:#4C4C4C"/>
					<stop  offset="0.26" style="stop-color:#828282"/>
					<stop  offset="0.43" style="stop-color:#AFAFAF"/>
					<stop  offset="0.59" style="stop-color:#D2D2D2"/>
					<stop  offset="0.75" style="stop-color:#EBEBEB"/>
					<stop  offset="0.89" style="stop-color:#FAFAFA"/>
					<stop  offset="1" style="stop-color:#FFFFFF"/>
				</linearGradient>
				<path class="st36" d="M372.5,62v4.7c0-25.5-19.4-46.8-44.7-49.2l-1.2-0.1l-1.2-0.1l0,0c-0.8,0-1.5,0-2.3,0H50.9
					c-0.8,0-1.5,0-2.3,0l0,0c-26.4,1.3-47.1,23-47.2,49.4V62c0-0.5,0-1,0-1.5s0-0.7,0-1.1c0-0.8,0.1-1.6,0.2-2.4
					c0-0.4,0.1-0.8,0.1-1.2c0-0.2,0-0.4,0.1-0.7s0.1-0.5,0.1-0.8s0.1-0.8,0.2-1.2c0.1-0.7,0.3-1.4,0.4-2.1c0.1-0.3,0.2-0.7,0.2-1
					c0.3-1,0.5-2,0.9-3c0.1-0.3,0.2-0.6,0.3-0.9s0.3-0.8,0.4-1.2l0.4-1c0.1-0.3,0.2-0.5,0.3-0.8l0.4-0.9c0.1-0.2,0.2-0.5,0.3-0.7
					s0.3-0.7,0.5-1c0.3-0.6,0.6-1.2,0.9-1.8c0.2-0.3,0.3-0.6,0.5-0.9s0.4-0.7,0.6-1c1.4-2.3,2.9-4.5,4.6-6.6l0.8-0.9
					c0.3-0.3,0.6-0.6,0.9-1c0.5-0.5,1-1,1.5-1.5c0.5-0.5,1.1-1.1,1.7-1.6s1.1-1,1.8-1.5c0.3-0.3,0.6-0.5,0.9-0.7
					c0.6-0.5,1.2-0.9,1.9-1.4s1.3-0.9,1.9-1.3s1.3-0.8,2-1.2c0.3-0.2,0.7-0.4,1-0.6s0.7-0.4,1-0.5l1-0.5l1.1-0.5
					c0.7-0.3,1.4-0.6,2.2-0.9l1-0.4h0.1l1.1-0.4c0.3-0.1,0.7-0.2,1-0.4l1.2-0.4l1.1-0.3L39,14c0.4-0.1,0.8-0.2,1.2-0.3
					c0.8-0.2,1.6-0.3,2.4-0.5c0.4-0.1,0.8-0.1,1.2-0.2c0.8-0.1,1.7-0.2,2.6-0.3c0.7-0.1,1.4-0.1,2.1-0.1h1.3h1.3H323h1.3
					c0.4,0,0.7,0,1,0c0.8,0,1.6,0.1,2.4,0.2l0,0L329,13c0.4,0,0.8,0.1,1.2,0.2s0.8,0.1,1.2,0.2l1.2,0.2l0,0l1.2,0.3l1.1,0.2l0.2,0.1
					l1,0.3l1.4,0.4l0.9,0.3c0.7,0.2,1.4,0.5,2,0.7c0.5,0.2,0.9,0.3,1.4,0.5s0.6,0.3,1,0.4s0.7,0.3,1.1,0.5l1,0.5
					c2.5,1.2,4.8,2.6,7.1,4.3c0.3,0.2,0.5,0.4,0.8,0.6c1,0.7,1.9,1.5,2.8,2.3c0.4,0.4,0.8,0.7,1.2,1.1c1.6,1.5,3.1,3.1,4.5,4.7
					c0.3,0.3,0.5,0.6,0.7,0.9c0.5,0.6,1,1.3,1.4,1.9c0.2,0.3,0.5,0.7,0.7,1c0.4,0.5,0.8,1.1,1.1,1.7l0.5,0.9c0.3,0.6,0.6,1.1,1,1.7
					c0.1,0.3,0.3,0.5,0.4,0.8c0.5,1,1,1.9,1.4,2.9c0.1,0.3,0.2,0.5,0.3,0.8c0.4,1,0.8,2,1.1,3c0.1,0.4,0.3,0.8,0.4,1.1
					c0.7,2.2,1.2,4.4,1.6,6.6c0,0.2,0.1,0.5,0.1,0.7s0.1,0.8,0.2,1.2s0.1,0.8,0.1,1.2s0.1,0.8,0.1,1.2c0,0.8,0.1,1.5,0.1,2.3
					C372.5,61.1,372.5,61.5,372.5,62z"/>
			</g>
			<path class="st37" d="M325.4,17.4L325.4,17.4c-0.8,0-1.5,0-2.3,0H50.9c-0.8,0-1.5,0-2.3,0l0,0C24.8,18.6,6.2,38.2,6.2,62v652.8
				c0,23.3,17.9,42.7,41.2,44.6l1.2,0.1c0.8,0,1.5,0.1,2.3,0.1H323c0.8,0,1.5,0,2.3-0.1l1.2-0.1c23.2-1.9,41.2-21.3,41.2-44.6V62
				C367.7,38.2,349.1,18.6,325.4,17.4z M364,714.8c-0.1,21.3-16.4,39-37.7,40.8c-0.4,0-0.8,0.1-1.1,0.1c-0.7,0-1.4,0-2.1,0H50.9
				c-0.7,0-1.4,0-2.2,0c-0.4,0-0.8,0-1.1-0.1c-21.2-1.8-37.6-19.5-37.7-40.8V62c0-21.7,17-39.7,38.7-40.9h0.1c0.7,0,1.4,0,2.1,0H323
				c0.7,0,1.4,0,2.1,0h0.1C347,22.3,364,40.2,364,62V714.8z"/>
			
				<linearGradient id="SVGID_5_" gradientUnits="userSpaceOnUse" x1="350.8" y1="377.365" x2="363.99" y2="377.365" gradientTransform="matrix(1 0 0 -1 0 766)">
				<stop  offset="0" style="stop-color:#F1F0F0"/>
				<stop  offset="1.000000e-02" style="stop-color:#EDECEC"/>
				<stop  offset="0.14" style="stop-color:#B4B4B4"/>
				<stop  offset="0.28" style="stop-color:#858585"/>
				<stop  offset="0.4" style="stop-color:#606060"/>
				<stop  offset="0.52" style="stop-color:#464646"/>
				<stop  offset="0.62" style="stop-color:#363636"/>
				<stop  offset="0.7" style="stop-color:#303030"/>
			</linearGradient>
			<path class="st38" d="M364,62.3v652.8c0,7.1-1.8,14-5.4,20.1c-0.3,0.5-0.6,1.1-1,1.6c-0.5,0.8-1,1.6-1.6,2.3
				c-1.6,2.1-3.3,4.1-5.3,5.9c3.7-6.4,5.6-13.7,5.6-21.2v-7.5c0-0.4,0-0.9,0-1.3V62.2c0-0.5,0-0.9,0-1.4v-7.4
				c0-7.5-1.9-14.8-5.6-21.3C359.2,39.9,364,50.9,364,62.3z"/>
			<g>
				<path class="st39" d="M325,24.9h-0.2c-0.6,0-1.2,0-1.8,0H50.9c-0.6,0-1.2,0-1.8,0h-0.2h-0.1C29.1,26,13.7,42.3,13.7,62v652.8
					c0.1,19.4,14.9,35.5,34.2,37.1l0.9,0.1H49c0.6,0,1.3,0,1.9,0H323c0.6,0,1.3,0,1.9,0h0.1l0.9-0.1c19.3-1.6,34.1-17.7,34.2-37.1
					V62C360.2,42.2,344.7,25.9,325,24.9z M350.3,714.8c0,6-2,11.8-5.6,16.6l-0.6,0.7c-0.6,0.7-1.2,1.4-1.9,2.1
					c-0.6,0.6-1.2,1.1-1.9,1.7l0,0c-0.8,0.7-1.6,1.3-2.5,1.8c-0.9,0.6-1.8,1.1-2.7,1.6l0,0c-0.5,0.2-0.9,0.5-1.4,0.7l0,0
					c-0.5,0.2-1,0.4-1.5,0.6c-1,0.4-2,0.7-3.1,0.9c-1.3,0.3-2.6,0.5-3.9,0.6h-0.4h-0.4c-0.1,0-0.2,0-0.3,0H50.2h-0.7h-0.4h-0.4
					c-14.1-1.2-25-13-25.1-27.2V62c0-14.3,11.2-26.2,25.5-27.2h0.2h0.4c0.5,0,0.8,0,1.2,0H323c0.4,0,0.8,0,1.2,0h0.3h0.3
					c0.3,0,0.5,0,0.8,0.1c0.1,0,0.2,0,0.4,0c0.2,0,0.5,0,0.7,0.1c0.3,0,0.6,0.1,0.9,0.1l0,0c0.4,0,0.8,0.1,1.2,0.2
					c0.1,0,0.2,0,0.2,0.1c0.3,0.1,0.7,0.2,1,0.2l1.4,0.4c0.4,0.1,0.8,0.2,1.1,0.4s0.8,0.3,1.2,0.5c0.8,0.3,1.6,0.7,2.4,1.1
					c0.7,0.4,1.3,0.8,2,1.2c0.1,0.1,0.3,0.2,0.4,0.3l0.8,0.6c0.3,0.2,0.7,0.5,1,0.8c0.6,0.5,1.3,1.1,1.9,1.7
					c0.3,0.3,0.6,0.6,0.9,0.9c0.3,0.3,0.6,0.6,0.8,0.9c1.1,1.3,2.1,2.7,2.9,4.1c0.4,0.7,0.8,1.5,1.2,2.3s0.7,1.5,1,2.4
					c0.1,0.4,0.3,0.8,0.4,1.2c0.3,0.9,0.5,1.8,0.7,2.7c0.1,0.4,0.1,0.7,0.2,1.1c0.2,1.3,0.3,2.7,0.3,4L350.3,714.8z"/>
				<path class="st39" d="M96.4,47.3c-0.1-0.2-0.2-0.4-0.3-0.6s-0.1-0.1-0.1-0.2C96.2,46.8,96.3,47.1,96.4,47.3z"/>
				<path class="st39" d="M277.9,46.6c0,0.1-0.1,0.1-0.1,0.2s-0.2,0.4-0.3,0.6C277.6,47.1,277.8,46.8,277.9,46.6z"/>
			</g>
			<path class="st39" d="M283.8,34.8c-2.2,0.1-4.1,1.8-4.3,4.1c0,0.2,0,0.4,0,0.6c0,0.8-0.1,1.6-0.3,2.4c0,0.3-0.1,0.5-0.1,0.8l0,0
				c-0.1,0.3-0.1,0.7-0.2,1s-0.1,0.6-0.2,0.9l-0.1,0.2l-0.1,0.2c0,0.1,0,0.1,0,0.2c0,0.1-0.1,0.2-0.1,0.3s-0.1,0.2-0.1,0.3
				c-0.1,0.3-0.2,0.5-0.3,0.8c-0.1,0.3-0.2,0.5-0.3,0.8c0,0,0,0.1,0,0.1v0.1c-0.1,0.2-0.2,0.4-0.3,0.6s-0.2,0.4-0.3,0.5
				c0,0.1-0.1,0.1-0.1,0.2c0,0.1-0.1,0.2-0.1,0.3c-0.1,0.1-0.1,0.3-0.2,0.4c0,0,0,0.1-0.1,0.1l-0.1,0.1c-0.1,0.1-0.1,0.2-0.2,0.2
				s-0.1,0.2-0.2,0.3l-0.1,0.2c0,0-0.1,0.1-0.1,0.1l-0.2,0.3c0,0.1-0.1,0.1-0.1,0.2c-0.1,0.1-0.1,0.2-0.2,0.3c0,0,0,0,0,0.1
				c0,0,0,0-0.1,0c-0.1,0.1-0.1,0.2-0.2,0.3c0,0-0.1,0.1-0.1,0.1c-0.1,0.1-0.2,0.2-0.3,0.3l0,0l-0.3,0.4c-0.1,0.1-0.2,0.3-0.3,0.4
				l0,0l0,0c-0.1,0.1-0.1,0.2-0.2,0.2c-0.1,0.1-0.2,0.2-0.3,0.3c-0.1,0.1-0.2,0.2-0.2,0.2c-0.1,0.2-0.3,0.3-0.4,0.4l-0.4,0.3
				l-0.2,0.2l-0.5,0.4l-0.5,0.4l-0.3,0.2c-0.1,0.1-0.2,0.2-0.4,0.3l0,0l-0.4,0.3c0,0-0.1,0.1-0.2,0.1c-0.2,0.1-0.4,0.3-0.6,0.4
				c-0.2,0.1-0.3,0.2-0.5,0.3c-0.2,0.1-0.4,0.2-0.6,0.3l-0.2,0.1h0l-0.5,0.2c-0.2,0.1-0.3,0.2-0.5,0.3l-0.4,0.2l-0.2,0.1l-0.2,0.1
				l0,0c-0.3,0.1-0.7,0.3-1,0.4l-0.9,0.3l-1,0.3c-0.7,0.2-1.4,0.3-2.1,0.4c-0.3,0-0.6,0.1-0.9,0.1h-0.2l-0.8,0.1h-0.9H115.6h-0.9
				l-0.8-0.1h-0.2c-0.3,0-0.6-0.1-0.9-0.1c-0.7-0.1-1.4-0.3-2.1-0.4l-1-0.3c-0.3-0.1-0.6-0.2-0.9-0.3s-0.7-0.3-1-0.4l0,0l-0.2-0.1
				l-0.2-0.1L107,58c-0.1-0.1-0.3-0.1-0.4-0.2c-0.2-0.1-0.3-0.2-0.5-0.2l0,0l-0.2-0.1c-0.2-0.1-0.4-0.2-0.6-0.3
				c-0.2-0.1-0.3-0.2-0.5-0.3l-0.6-0.4c-0.1,0-0.1-0.1-0.2-0.1c-0.1-0.1-0.2-0.2-0.4-0.3l0,0c-0.1-0.1-0.3-0.2-0.4-0.3l-0.3-0.2
				l-0.5-0.4l-0.5-0.4l-0.2-0.2l-0.3-0.3l-0.4-0.4c-0.1-0.1-0.2-0.2-0.2-0.2c-0.1-0.1-0.2-0.2-0.3-0.3c-0.1-0.1-0.2-0.1-0.2-0.2l0,0
				c-0.1-0.1-0.1-0.1-0.2-0.2c-0.2-0.2-0.3-0.4-0.5-0.6l0,0c-0.1-0.1-0.2-0.2-0.3-0.3c0,0-0.1-0.1-0.1-0.1l-0.2-0.3l0,0
				c0,0,0,0,0-0.1c-0.1-0.1-0.1-0.2-0.2-0.3c0,0-0.1-0.1-0.1-0.2l-0.2-0.3c0,0-0.1-0.1-0.1-0.1L98,50.2c-0.1-0.1-0.1-0.2-0.2-0.3
				l-0.2-0.2l-0.1-0.1c0,0,0-0.1-0.1-0.1c-0.1-0.1-0.2-0.2-0.2-0.4c-0.1-0.1-0.1-0.2-0.2-0.3c0-0.1-0.1-0.1-0.1-0.2
				c-0.1-0.2-0.2-0.4-0.3-0.5s-0.2-0.4-0.3-0.6v-0.1c0,0,0-0.1,0-0.1c-0.1-0.3-0.2-0.5-0.3-0.8c-0.1-0.3-0.2-0.5-0.3-0.8
				c-0.1-0.1-0.1-0.2-0.1-0.3s-0.1-0.2-0.1-0.3c0-0.1,0-0.1-0.1-0.2c0-0.1-0.1-0.1-0.1-0.2l-0.1-0.2c-0.1-0.3-0.2-0.6-0.2-0.9
				s-0.2-0.7-0.2-1l0,0c-0.1-0.3-0.1-0.5-0.2-0.8c-0.1-0.8-0.2-1.6-0.3-2.4c0-0.2,0-0.4,0-0.6c-0.2-2.2-2.1-4-4.3-4.1L283.8,34.8z"
				/>
			<path class="st39" d="M114.7,60h0.9h-0.5h-0.5H114h-0.1H114.7z"/>
			<path class="st39" d="M260,59.9L260,59.9h-0.6h-0.5h-0.5h0.9H260z"/>
			<path class="st39" d="M95.8,45.8L95.8,45.8c0-0.1-0.1-0.2-0.1-0.3C95.7,45.6,95.7,45.7,95.8,45.8z"/>
			<path class="st39" d="M96.4,47.3c-0.1-0.2-0.2-0.4-0.3-0.6s-0.1-0.1-0.1-0.2C96.2,46.8,96.3,47.1,96.4,47.3z"/>
			<path class="st39" d="M99.1,51.7c-0.1-0.1-0.2-0.2-0.3-0.3l0,0L99.1,51.7z"/>
			<path class="st39" d="M99.9,52.7c-0.1-0.1-0.2-0.2-0.3-0.4c-0.1-0.1-0.1-0.1-0.2-0.2l0,0C99.6,52.3,99.7,52.5,99.9,52.7z"/>
			<path class="st39" d="M100.3,53.2c-0.1-0.1-0.2-0.1-0.2-0.2l0,0C100.2,53,100.2,53.1,100.3,53.2z"/>
			<path class="st39" d="M102.8,55.5c-0.2-0.1-0.3-0.3-0.5-0.4s-0.2-0.2-0.3-0.3s-0.2-0.1-0.2-0.2l0.5,0.4L102.8,55.5z"/>
			<path class="st39" d="M103.2,55.7c0.1,0.1,0.2,0.2,0.4,0.3l-0.1-0.1C103.3,55.9,103.2,55.8,103.2,55.7z"/>
			<path class="st39" d="M104.7,56.8l-0.4-0.2l0,0l-0.2-0.2L104.7,56.8z"/>
			<path class="st39" d="M108.8,58.7c-0.3-0.1-0.6-0.2-0.8-0.3l-0.2-0.1C108.1,58.5,108.4,58.6,108.8,58.7z"/>
			<path class="st39" d="M109.7,59.1l1,0.3l-0.7-0.2L109.7,59.1l-0.5-0.1c-0.2-0.1-0.3-0.1-0.5-0.2C109.1,58.8,109.4,59,109.7,59.1z
				"/>
			<path class="st39" d="M112.8,59.8c0.3,0,0.6,0.1,0.9,0.1C113.5,59.9,113.2,59.8,112.8,59.8L112.8,59.8l-0.4,0
				c-0.2,0-0.5-0.1-0.7-0.1l-0.9-0.2h-0.2C111.4,59.5,112.1,59.7,112.8,59.8z"/>
			<path class="st39" d="M114.7,60h-0.3H114h-0.1H114.7z"/>
			<path class="st39" d="M258.1,60L258.1,60z"/>
			<path class="st39" d="M259.3,60l0.8-0.1h0h-0.4L259.3,60L259.3,60z"/>
			<path class="st39" d="M261.1,59.8c0.7-0.1,1.4-0.3,2.1-0.4h-0.1l-0.9,0.2c-0.2,0-0.5,0.1-0.7,0.1L261.1,59.8l-0.1,0
				c-0.3,0-0.5,0.1-0.8,0.1C260.5,59.9,260.8,59.8,261.1,59.8z"/>
			<path class="st39" d="M265.2,58.7c-0.1,0.1-0.3,0.1-0.5,0.2l-0.5,0.2l-0.3,0.1l-0.7,0.2l1-0.3L265.2,58.7z"/>
			<path class="st39" d="M265.2,58.7c0.3-0.1,0.7-0.3,1-0.4l-0.2,0.1C265.7,58.5,265.5,58.6,265.2,58.7z"/>
			<path class="st39" d="M269.2,56.8c0.2-0.1,0.4-0.3,0.6-0.4l-0.2,0.2l0,0C269.5,56.6,269.4,56.7,269.2,56.8z"/>
			<path class="st39" d="M270.8,55.7c-0.1,0.1-0.2,0.1-0.3,0.2l-0.1,0.1C270.5,55.9,270.6,55.8,270.8,55.7z"/>
			<path class="st39" d="M272.1,54.6c-0.1,0.1-0.1,0.1-0.2,0.2s-0.2,0.2-0.3,0.3s-0.3,0.3-0.5,0.4l0.5-0.4L272.1,54.6z"/>
			<path class="st39" d="M273.9,52.9c-0.1,0.1-0.1,0.2-0.2,0.2C273.7,53.1,273.8,53,273.9,52.9L273.9,52.9z"/>
			<path class="st39" d="M274.5,52.1c-0.1,0.1-0.1,0.2-0.2,0.2c0,0.1-0.1,0.1-0.1,0.2L274.5,52.1L274.5,52.1z"/>
			<path class="st39" d="M275.1,51.4l-0.3,0.3C274.9,51.6,275,51.5,275.1,51.4C275.1,51.4,275.1,51.4,275.1,51.4z"/>
			<path class="st39" d="M277.9,46.6c0,0.1-0.1,0.1-0.1,0.2s-0.2,0.4-0.3,0.6C277.6,47.1,277.8,46.8,277.9,46.6z"/>
			<path class="st39" d="M278.3,45.5c0,0.1-0.1,0.2-0.1,0.3l0,0C278.2,45.7,278.3,45.6,278.3,45.5z"/>
			<g>
				
					<linearGradient id="SVGID_6_" gradientUnits="userSpaceOnUse" x1="17.5" y1="30.53" x2="356.44" y2="30.53" gradientTransform="matrix(1 0 0 -1 0 766)">
					<stop  offset="0" style="stop-color:#010101"/>
					<stop  offset="0.1" style="stop-color:#131313"/>
					<stop  offset="0.25" style="stop-color:#2B2B2B"/>
					<stop  offset="0.4" style="stop-color:#3A3A3A"/>
					<stop  offset="0.52" style="stop-color:#3F3F3F"/>
					<stop  offset="0.63" style="stop-color:#383838"/>
					<stop  offset="0.8" style="stop-color:#232323"/>
					<stop  offset="1" style="stop-color:#010101"/>
					<stop  offset="1" style="stop-color:#010101"/>
				</linearGradient>
				<path class="st40" d="M356.4,716.4v7.5c0,7.4-1.9,14.7-5.6,21.2c-6.7,6.2-15.3,10-24.5,10.8c-0.4,0-0.8,0.1-1.1,0.1
					c-0.7,0-1.4,0-2.1,0H50.9c-0.7,0-1.4,0-2.2,0c-0.4,0-0.8,0-1.1-0.1c-0.5,0-1-0.1-1.6-0.2c-8.6-1-16.6-4.7-22.9-10.6
					c-3.7-6.5-5.7-13.8-5.7-21.3V715c0,9.8,4.3,19,11.8,25.4c5.3,4.6,12,7.4,19,7.9c0.2,0,0.5,0,0.7,0h0.2c0.6,0,1.2,0,1.8,0h272.1
					c0.6,0,1.1,0,1.7,0h0.2c0.3,0,0.5,0,0.8,0C342.6,746.9,355.7,733.2,356.4,716.4z"/>
				
					<linearGradient id="SVGID_7_" gradientUnits="userSpaceOnUse" x1="17.4999" y1="724.18" x2="364" y2="724.18" gradientTransform="matrix(1 0 0 -1 0 766)">
					<stop  offset="0" style="stop-color:#010101"/>
					<stop  offset="0.1" style="stop-color:#131313"/>
					<stop  offset="0.25" style="stop-color:#2B2B2B"/>
					<stop  offset="0.4" style="stop-color:#3A3A3A"/>
					<stop  offset="0.52" style="stop-color:#3F3F3F"/>
					<stop  offset="0.63" style="stop-color:#383838"/>
					<stop  offset="0.8" style="stop-color:#232323"/>
					<stop  offset="1" style="stop-color:#010101"/>
					<stop  offset="1" style="stop-color:#010101"/>
				</linearGradient>
				<path class="st41" d="M364,62.3L364,62.3c0-21.8-17-39.8-38.8-41h-0.1c-0.7,0-1.4,0-2.1,0H50.9c-0.7,0-1.4,0-2.1,0h-0.1
					c-0.9,0-1.8,0.1-2.6,0.2c-8.6,1-16.6,4.7-22.9,10.5c-3.7,6.5-5.7,13.8-5.6,21.3v8.8c0-17.7,13.8-32.3,31.4-33.3h0.2h0.3h1.6
					h272.2h1.4l0,0h0.3c17.2,0.9,30.9,14.8,31.6,32v-7.4c0-7.5-1.9-14.8-5.6-21.3C359.2,39.9,364,50.9,364,62.3z"/>
				
					<linearGradient id="SVGID_8_" gradientUnits="userSpaceOnUse" x1="9.93" y1="377.595" x2="17.75" y2="377.595" gradientTransform="matrix(1 0 0 -1 0 766)">
					<stop  offset="0" style="stop-color:#3F3F3F"/>
					<stop  offset="3.000000e-02" style="stop-color:#3D3D3D"/>
					<stop  offset="0.67" style="stop-color:#141414"/>
					<stop  offset="1" style="stop-color:#040404"/>
				</linearGradient>
				<path class="st42" d="M23.2,744.9c-8.4-7.7-13.2-18.6-13.2-30.1V62c0-11.4,4.8-22.3,13.2-30.1c-3.7,6.5-5.7,13.8-5.6,21.3v670.4
					C17.5,731.1,19.4,738.4,23.2,744.9z"/>
				
					<linearGradient id="SVGID_9_" gradientUnits="userSpaceOnUse" x1="350.76" y1="377.32" x2="363.99" y2="377.32" gradientTransform="matrix(1 0 0 -1 0 766)">
					<stop  offset="0" style="stop-color:#040404"/>
					<stop  offset="0.33" style="stop-color:#141414"/>
					<stop  offset="0.97" style="stop-color:#3D3D3D"/>
					<stop  offset="1" style="stop-color:#3F3F3F"/>
				</linearGradient>
				<path class="st43" d="M364,62.3v652.8c0,7.1-1.8,14-5.4,20.1c-0.3,0.5-0.6,1.1-1,1.6c-0.5,0.8-1,1.6-1.6,2.3
					c-1.6,2.2-3.4,4.2-5.3,6l0-0.1c3.7-6.4,5.6-13.7,5.6-21.2V53.5c0-7.5-1.9-14.8-5.6-21.3C359.2,39.9,364,50.9,364,62.3z"/>
			</g>
			
				<linearGradient id="SVGID_10_" gradientUnits="userSpaceOnUse" x1="164.11" y1="726.01" x2="207.54" y2="726.01" gradientTransform="matrix(1 0 0 -1 0 766)">
				<stop  offset="0" style="stop-color:#303030"/>
				<stop  offset="0.11" style="stop-color:#262626"/>
				<stop  offset="0.3" style="stop-color:#191919"/>
				<stop  offset="0.48" style="stop-color:#151515"/>
				<stop  offset="0.78" style="stop-color:#171717"/>
				<stop  offset="0.89" style="stop-color:#1E1E1E"/>
				<stop  offset="0.97" style="stop-color:#292929"/>
				<stop  offset="1" style="stop-color:#303030"/>
			</linearGradient>
			<path class="st44" d="M164.4,37.7h42.8c0.2,0,0.3,0.1,0.3,0.3v3.9c0,0.2-0.1,0.3-0.3,0.3h-42.8c-0.2,0-0.3-0.1-0.3-0.3V38
				C164.1,37.9,164.3,37.7,164.4,37.7z"/>
		</g>
		<g>
			
				<linearGradient id="SVGID_11_" gradientUnits="userSpaceOnUse" x1="191.385" y1="35.2116" x2="191.385" y2="766" gradientTransform="matrix(1 0 0 -1 0 766)">
				<stop  offset="0" style="stop-color:#FFFFFF"/>
				<stop  offset="0.85" style="stop-color:#FFFFFF"/>
				<stop  offset="1" style="stop-color:#FFFFFF"/>
			</linearGradient>
			<path class="st45" d="M19,702.8c0,0,0-0.1,0-0.1C19,702.7,19,702.8,19,702.8L19,702.8z M26.2,714.9
				C26.2,714.9,26.2,714.9,26.2,714.9c0.2,0,0.3,0.2,0.4,0.4C26.4,715.1,26.3,715,26.2,714.9L26.2,714.9z M43.7,727.8l0.5,0.1
				c0,0,0.1,0,0.1,0.1C44.1,727.9,43.9,727.8,43.7,727.8L43.7,727.8z M338.2,730.8L338.2,730.8c0.2,0,0.4,0,0.5,0
				C338.5,730.7,338.4,730.7,338.2,730.8L338.2,730.8z M362.5,0.2c0-0.1-0.1-0.2-0.2-0.2c0.2,0.2,0.3,0.3,0.5,0.5
				C362.7,0.4,362.6,0.3,362.5,0.2z M363.1,719.2c0.1-0.1,0.2-0.3,0.4-0.4c0.1-0.1,0.2-0.2,0.3-0.3
				C363.5,718.7,363.3,719,363.1,719.2L363.1,719.2z"/>
		</g>
	</g>
</g>
</svg>
