<svg id="Layer_1" data-name="Layer 1" xmlns="http://www.w3.org/2000/svg" xmlns:xlink="http://www.w3.org/1999/xlink" viewBox="0 0 587.97 742.41">
  <defs>
    <style>
      .cls-1 {
        fill: url(#linear-gradient);
      }

      .cls-2 {
        fill: url(#linear-gradient-2);
      }

      .cls-3 {
        fill: url(#linear-gradient-3);
      }

      .cls-4 {
        fill: url(#linear-gradient-4);
      }

      .cls-5 {
        fill: none;
      }

      .cls-6 {
        fill: #e0e0df;
      }

      .cls-7 {
        fill: #010101;
      }

      .cls-8 {
        fill: url(#linear-gradient-5);
      }

      .cls-9 {
        fill: url(#linear-gradient-6);
      }

      .cls-10 {
        fill: url(#linear-gradient-7);
      }

      .cls-11 {
        fill: url(#linear-gradient-8);
      }
    </style>
    <linearGradient id="linear-gradient" x1="566.93" y1="592.41" x2="587.97" y2="592.41" gradientUnits="userSpaceOnUse">
      <stop offset="0" stop-color="#818181"/>
      <stop offset="0.28" stop-color="#bbb"/>
      <stop offset="0.36" stop-color="#cecece"/>
      <stop offset="0.5" stop-color="#e9e9e9"/>
      <stop offset="0.61" stop-color="#f9f9f9"/>
      <stop offset="0.7" stop-color="#fff"/>
      <stop offset="0.83" stop-color="#fcfcfc"/>
      <stop offset="0.93" stop-color="#f2f2f2"/>
      <stop offset="1" stop-color="#e5e5e5"/>
    </linearGradient>
    <linearGradient id="linear-gradient-2" x1="566.93" y1="382.63" x2="587.97" y2="382.63" xlink:href="#linear-gradient"/>
    <linearGradient id="linear-gradient-3" x1="570.94" y1="166.26" x2="583.93" y2="166.26" xlink:href="#linear-gradient"/>
    <linearGradient id="linear-gradient-4" x1="577.44" y1="178.11" x2="577.44" y2="177.27" gradientUnits="userSpaceOnUse">
      <stop offset="0" stop-color="#818181"/>
      <stop offset="0.03" stop-color="#8a8a8a"/>
      <stop offset="0.12" stop-color="#a0a0a0"/>
      <stop offset="0.22" stop-color="#afafaf"/>
      <stop offset="0.33" stop-color="#b8b8b8"/>
      <stop offset="0.49" stop-color="#bbb"/>
      <stop offset="0.67" stop-color="#b8b8b8"/>
      <stop offset="0.8" stop-color="#afafaf"/>
      <stop offset="0.91" stop-color="#a09f9f"/>
      <stop offset="1" stop-color="#8e8d8d"/>
    </linearGradient>
    <linearGradient id="linear-gradient-5" x1="-3403.75" y1="3673.67" x2="-3373.78" y2="3673.67" gradientTransform="matrix(0, 1, 1, 0, -3390.18, 3404.05)" gradientUnits="userSpaceOnUse">
      <stop offset="0" stop-color="#f1f0f0"/>
      <stop offset="0.06" stop-color="#dddcdc"/>
      <stop offset="0.15" stop-color="#c7c6c6"/>
      <stop offset="0.25" stop-color="#b6b5b5"/>
      <stop offset="0.37" stop-color="#aaa9a9"/>
      <stop offset="0.54" stop-color="#a3a2a2"/>
      <stop offset="1" stop-color="#a1a0a0"/>
    </linearGradient>
    <linearGradient id="linear-gradient-6" x1="-2691.05" y1="3673.64" x2="-2661.92" y2="3673.64" gradientTransform="matrix(0, 1, 1, 0, -3390.18, 3404.05)" gradientUnits="userSpaceOnUse">
      <stop offset="0" stop-color="#a1a0a0"/>
      <stop offset="0.46" stop-color="#a3a2a2"/>
      <stop offset="0.63" stop-color="#aaa9a9"/>
      <stop offset="0.75" stop-color="#b6b5b5"/>
      <stop offset="0.85" stop-color="#c7c6c6"/>
      <stop offset="0.94" stop-color="#dddcdc"/>
      <stop offset="1" stop-color="#f1f0f0"/>
    </linearGradient>
    <linearGradient id="linear-gradient-7" x1="-3400.84" y1="3406.2" x2="-2664.83" y2="3406.2" gradientTransform="matrix(0, 1, 1, 0, -3390.18, 3404.05)" gradientUnits="userSpaceOnUse">
      <stop offset="0" stop-color="#c9c9c9"/>
      <stop offset="0.48" stop-color="#f1f0f0"/>
      <stop offset="0.64" stop-color="#ecebeb"/>
      <stop offset="0.82" stop-color="#dedede"/>
      <stop offset="1" stop-color="#c9c9c9"/>
    </linearGradient>
    <linearGradient id="linear-gradient-8" x1="-3400.84" y1="3941.09" x2="-2664.83" y2="3941.09" xlink:href="#linear-gradient-7"/>
  </defs>
  <title>tab</title>
  <g>
    <g>
      <path class="cls-1" d="M588,587.15a10.52,10.52,0,0,1-21,0Z"/>
      <polygon class="cls-2" points="587.97 197.92 587.97 587.15 566.93 587.15 566.93 197.92 570.79 178.11 584.08 178.11 587.97 197.92"/>
      <path class="cls-3" d="M583.93,177.27h-13l3.91-19.91a2.64,2.64,0,0,1,5.17,0Z"/>
    </g>
    <polygon class="cls-4" points="584.08 178.11 570.79 178.11 570.95 177.27 583.93 177.27 584.08 178.11"/>
    <path class="cls-5" d="M29.39,742c.77.06,1.56.09,2.35.09H535.19c.78,0,1.57,0,2.34-.09l.66-.06a29.61,29.61,0,0,0,3.9-.62c.24-.05.48-.1.73-.17l.54-.14a30.2,30.2,0,0,0,6.41-2.52c.23-.11.44-.23.65-.35.45-.24.88-.5,1.31-.77.19-.11.39-.24.59-.38s.41-.26.61-.4c.56-.38,1.12-.79,1.65-1.22.24-.18.47-.37.69-.56s.7-.59,1.05-.9l.59-.57c.35-.32.69-.67,1-1l0,0a28.55,28.55,0,0,0,1.9-2.2l0,0a28.45,28.45,0,0,0,2.44-3.6q.39-.63.72-1.29a2,2,0,0,1,.11-.2c.19-.37.38-.75.54-1.13a14.7,14.7,0,0,0,.59-1.36c.2-.46.37-.93.54-1.4s.32-.92.46-1.38a.25.25,0,0,1,0-.08c.15-.47.28-.94.39-1.42a14.81,14.81,0,0,0,.32-1.47c.11-.51.2-1,.27-1.52s.12-.88.16-1.33a1.49,1.49,0,0,1,0-.21c.07-.73.12-1.46.14-2.19,0-.28,0-.54,0-.81V31.74c0-.28,0-.54,0-.81,0-.74-.07-1.47-.14-2.19a1.64,1.64,0,0,1,0-.22c0-.44-.1-.88-.16-1.33s-.16-1-.27-1.51a15,15,0,0,0-.32-1.48c-.11-.47-.24-.95-.39-1.41a.25.25,0,0,1,0-.08c-.14-.47-.3-.93-.46-1.39s-.34-.93-.54-1.4-.37-.91-.59-1.36-.35-.75-.54-1.12a2.12,2.12,0,0,1-.11-.21c-.22-.43-.46-.87-.72-1.29a29.18,29.18,0,0,0-2.44-3.6l0-.05c-.6-.76-1.23-1.49-1.9-2.19,0,0,0,0,0,0-.33-.35-.67-.7-1-1l-.59-.56c-.35-.31-.69-.62-1.05-.9s-.45-.38-.69-.57c-.53-.42-1.09-.83-1.65-1.21-.2-.15-.41-.28-.61-.41L551.73,5c-.43-.27-.86-.52-1.31-.76a5.07,5.07,0,0,0-.65-.35,30.77,30.77,0,0,0-6.41-2.53l-.54-.13-.73-.18a31.37,31.37,0,0,0-3.9-.62l-.66-.06c-.77,0-1.56-.08-2.34-.08H31.74c-.79,0-1.58,0-2.35.08l-.74.07a31.84,31.84,0,0,0-3.81.61c-.25.05-.49.11-.73.18l-.64.16a30.7,30.7,0,0,0-6.32,2.5c-.23.11-.44.23-.65.35-.88.48-1.72,1-2.55,1.57-.18.14-.37.27-.57.41-.35.25-.7.51-1,.78A31.8,31.8,0,0,0,9.79,9.26c-.18.17-.36.34-.53.53L9,10.06l-.24.26c-.27.28-.52.56-.77.85s-.46.54-.68.82L7,12.34c0,.07-.11.14-.16.22-.23.3-.47.6-.69.91a.21.21,0,0,1-.06.08c-.26.36-.51.75-.77,1.13a.37.37,0,0,1-.07.12q-.37.57-.69,1.14c-.25.42-.49.86-.72,1.29l-.11.21c-.19.37-.38.75-.54,1.12s-.41.91-.59,1.36-.37.93-.54,1.4A28.88,28.88,0,0,0,.89,25.68c-.11.5-.2,1-.26,1.51s-.13.89-.17,1.33a1.64,1.64,0,0,1,0,.22,5.09,5.09,0,0,0,0,.69c0,.28,0,.56,0,.84,0,.49,0,1,0,1.47v679c0,.49,0,1,0,1.47,0,.28,0,.56,0,.84a5.21,5.21,0,0,0,0,.69,1.49,1.49,0,0,1,0,.21c0,.45.1.89.17,1.33s.15,1,.26,1.52a28.75,28.75,0,0,0,1.18,4.35c.17.48.34.95.54,1.4s.38.91.59,1.36.35.76.54,1.13l.11.2q.35.66.72,1.29c.21.39.44.77.69,1.15a.49.49,0,0,1,.07.11c.26.38.51.77.77,1.14a.21.21,0,0,1,.06.08c.22.31.46.61.69.91a1.92,1.92,0,0,0,.16.21c.09.12.19.24.29.35.22.28.45.57.68.83s.5.57.77.84a3,3,0,0,0,.24.26,3.5,3.5,0,0,0,.27.28c.17.18.35.36.53.53a31.67,31.67,0,0,0,2.55,2.24c.34.27.69.54,1,.79.2.13.39.27.57.41.83.56,1.67,1.08,2.55,1.57l.65.35A30.67,30.67,0,0,0,23.47,741l.64.17c.24.07.48.12.73.17a30,30,0,0,0,3.81.61Zm2.35-2.82A28.56,28.56,0,0,1,3.21,710.69V31.74A28.55,28.55,0,0,1,31.74,3.21H535.19a28.55,28.55,0,0,1,28.52,28.53v679a28.56,28.56,0,0,1-28.52,28.53Z"/>
    <path class="cls-6" d="M535.18,0H31.73A31.77,31.77,0,0,0,0,31.73V710.68a31.76,31.76,0,0,0,31.73,31.73H535.18a31.77,31.77,0,0,0,31.75-31.73V31.73A31.78,31.78,0,0,0,535.18,0Zm31.44,711.5a.83.83,0,0,1,0,.27c0,.55,0,1.1-.08,1.65a.22.22,0,0,0,0,.13v.14a.78.78,0,0,0,0,.22c0,.44-.09.88-.17,1.32s-.16,1-.25,1.52l-.33,1.46c-.13.49-.24,1-.4,1.44v.06c-.15.47-.3.93-.46,1.39s-.33.95-.53,1.4-.38.92-.6,1.36-.35.75-.55,1.13a.66.66,0,0,1-.11.2c-.22.44-.46.88-.7,1.3a31.26,31.26,0,0,1-2.45,3.6l0,0a28.68,28.68,0,0,1-1.9,2.19s0,0,0,0a5.78,5.78,0,0,1-.49.5,4.26,4.26,0,0,1-.53.51,5.35,5.35,0,0,1-.59.57l-1,.91c-.22.18-.44.37-.69.55-.53.42-1.08.82-1.65,1.22l-.62.39c-.18.14-.4.27-.57.4-.45.27-.87.51-1.31.75-.22.13-.44.24-.66.35a30.12,30.12,0,0,1-6.4,2.52c-.18.07-.38.11-.55.16l-.73.17a32.12,32.12,0,0,1-3.89.62c-.22,0-.44,0-.66,0-.77.06-1.57.08-2.36.08H31.73c-.78,0-1.57,0-2.34-.08-.25,0-.49,0-.73-.07a34.52,34.52,0,0,1-3.82-.6l-.73-.17c-.22-.07-.44-.11-.64-.18a30.06,30.06,0,0,1-6.31-2.5c-.23-.11-.45-.22-.67-.35A28,28,0,0,1,14,736.6c-.17-.13-.37-.26-.57-.39-.35-.27-.71-.53-1-.8a29.87,29.87,0,0,1-2.56-2.25,6.62,6.62,0,0,1-.53-.53L9,732.37a3.08,3.08,0,0,1-.25-.27c-.26-.27-.5-.55-.75-.84s-.46-.55-.7-.84L7,730.09a1.32,1.32,0,0,1-.18-.22c-.22-.31-.46-.6-.68-.91,0,0,0-.06-.07-.08-.26-.38-.5-.75-.75-1.13a1,1,0,0,0-.09-.13c-.22-.38-.46-.75-.68-1.13s-.49-.86-.73-1.3a.66.66,0,0,0-.11-.2c-.17-.38-.35-.75-.53-1.13a13.62,13.62,0,0,1-.59-1.36,12.27,12.27,0,0,1-.53-1.4,29.47,29.47,0,0,1-1.2-4.35c-.08-.5-.17-1-.26-1.52s-.11-.88-.16-1.32c0-.07,0-.16,0-.22v-.14a4.91,4.91,0,0,1,0-.55,8.39,8.39,0,0,1-.07-.84c0-.48,0-1,0-1.48V31.73c0-.49,0-1,0-1.46a7.51,7.51,0,0,1,.07-.84,4.74,4.74,0,0,1,0-.55v-.13c0-.09,0-.16,0-.22,0-.45.11-.91.16-1.33s.18-1,.26-1.52a28.17,28.17,0,0,1,1.2-4.35,13.2,13.2,0,0,1,.53-1.41,14.53,14.53,0,0,1,.59-1.35c.18-.38.36-.75.53-1.13a.56.56,0,0,0,.11-.2c.24-.44.47-.88.73-1.3l.68-1.15s.07-.06.09-.11c.25-.37.49-.77.75-1.12,0-.05.07-.07.07-.09.22-.31.46-.62.68-.91A1.32,1.32,0,0,1,7,12.34L7.29,12c.24-.29.46-.55.7-.82s.49-.57.75-.84A3,3,0,0,1,9,10.07c.09-.09.17-.2.26-.29l.53-.53A33.49,33.49,0,0,1,12.34,7a11,11,0,0,1,1-.79c.2-.14.4-.27.57-.4.82-.57,1.68-1.1,2.54-1.59l.67-.33a30.06,30.06,0,0,1,6.31-2.5,6,6,0,0,1,.64-.17,6.47,6.47,0,0,1,.73-.18A30.41,30.41,0,0,1,28.66.44l.73-.06c.77,0,1.56-.09,2.34-.09H535.18c.79,0,1.59,0,2.36.09l.66.06a32.12,32.12,0,0,1,3.89.62,7.05,7.05,0,0,1,.73.18l.55.13a29.66,29.66,0,0,1,6.4,2.54l.66.33c.44.24.86.51,1.31.77.17.11.39.25.57.38s.42.28.62.42A17.44,17.44,0,0,1,554.58,7a7.56,7.56,0,0,1,.69.55c.35.29.7.6,1,.91a4,4,0,0,1,.59.57,9.82,9.82,0,0,1,1,1,.07.07,0,0,1,0,0c.66.71,1.3,1.46,1.9,2.21l0,0a29.62,29.62,0,0,1,2.45,3.6c.24.42.48.86.7,1.3a.81.81,0,0,1,.11.2c.2.38.38.75.55,1.13s.42.9.6,1.35.35.92.53,1.41.31.9.46,1.39v.07c.16.46.27.95.4,1.41s.22,1,.33,1.48.18,1,.25,1.52.13.88.17,1.33a.94.94,0,0,0,0,.22v.13a.61.61,0,0,0,0,.22c0,.51.08,1,.08,1.57a.77.77,0,0,1,0,.26Z"/>
    <path class="cls-7" d="M31.74,739.22H535.19a28.56,28.56,0,0,0,28.52-28.53V31.74A28.55,28.55,0,0,0,535.19,3.21H31.74A28.55,28.55,0,0,0,3.21,31.74v679A28.56,28.56,0,0,0,31.74,739.22Zm0-20.39a8.16,8.16,0,0,1-8.15-8.14V31.74a8.16,8.16,0,0,1,8.15-8.15H535.19a8.16,8.16,0,0,1,8.14,8.15v679a8.15,8.15,0,0,1-8.14,8.14Z"/>
    <path class="cls-8" d="M566.59,30.27c0-.34,0-.68-.07-1,0-.17,0-.34,0-.51a1.64,1.64,0,0,1,0-.22c-.05-.44-.11-.89-.16-1.33s-.17-1-.27-1.51-.2-1-.32-1.48-.25-.95-.39-1.41a.25.25,0,0,1,0-.08c-.15-.47-.31-.93-.46-1.39s-.34-.94-.54-1.4-.37-.91-.59-1.36-.36-.75-.54-1.12a2.12,2.12,0,0,1-.11-.21c-.23-.43-.46-.87-.72-1.29a31.6,31.6,0,0,0-2.44-3.6l0-.05c-.6-.75-1.24-1.49-1.9-2.19,0,0,0,0,0,0q-.49-.53-1-1l-.59-.56c-.34-.3-.69-.61-1.05-.9s-.45-.38-.69-.57c-.53-.41-1.09-.82-1.65-1.21l-.61-.41L551.73,5c-.43-.27-.86-.52-1.31-.76l-.65-.35a30.77,30.77,0,0,0-6.41-2.53l-.54-.13-.73-.18a31.37,31.37,0,0,0-3.9-.62l-.66-.06c-.77,0-1.56-.08-2.34-.08H31.74c-.79,0-1.58,0-2.35.08l-.74.07a31.84,31.84,0,0,0-3.81.61c-.25.05-.49.11-.73.18l-.64.16a30.7,30.7,0,0,0-6.32,2.5c-.23.11-.44.23-.65.35-.88.48-1.72,1-2.55,1.57-.18.14-.37.27-.57.41-.35.25-.7.51-1,.78A31.8,31.8,0,0,0,9.79,9.26c-.18.17-.36.34-.53.53L9,10.06l-.24.26c-.27.28-.52.56-.77.85s-.46.54-.68.82L7,12.34c0,.07-.11.14-.16.22-.23.3-.47.6-.69.91a.21.21,0,0,1-.06.08c-.26.36-.51.75-.77,1.13a.37.37,0,0,1-.07.12q-.36.57-.69,1.14c-.25.42-.49.86-.72,1.29l-.11.21c-.18.37-.37.75-.54,1.12s-.41.91-.59,1.36-.37.93-.54,1.4A31.44,31.44,0,0,0,.89,25.68c-.1.5-.19,1-.26,1.51s-.12.89-.17,1.33a1.64,1.64,0,0,1,0,.22,5.09,5.09,0,0,0,0,.69c0-.19,0-.37,0-.56,0-.46.11-.93.18-1.39,0-.22.06-.44.11-.66s.09-.55.15-.82c.08-.42.17-.83.28-1.22s.22-.88.36-1.3.22-.71.35-1.06a20.9,20.9,0,0,1,.86-2.2c.09-.22.2-.44.3-.66s.32-.68.5-1a.56.56,0,0,0,.05-.08c.2-.38.41-.75.62-1.12l0-.05c.15-.26.31-.52.47-.77s.29-.45.43-.66l.11-.15c.23-.35.48-.7.74-1s.49-.66.76-1a.86.86,0,0,1,.18-.2,9.85,9.85,0,0,1,.8-.93c.3-.34.62-.67.94-1s.57-.57.87-.84l.24-.22.92-.79q.53-.45,1.08-.84a10.19,10.19,0,0,1,.88-.63,4.73,4.73,0,0,1,.46-.32,5.72,5.72,0,0,1,.58-.37,5.72,5.72,0,0,1,.56-.35c.38-.23.76-.45,1.15-.65.23-.13.48-.26.72-.37.56-.28,1.14-.56,1.74-.8l.57-.23c.29-.12.58-.22.88-.33s.77-.26,1.16-.38.78-.23,1.18-.34h.06c.44-.12.87-.22,1.31-.31h.07a8.54,8.54,0,0,1,1-.17,26.45,26.45,0,0,1,4.74-.41H538.1c.56,0,1.13,0,1.69.06l.89,0,.76.09.36,0c.34,0,.67.09,1,.16l.13,0a6,6,0,0,1,.61.1l.29.06.11,0,.89.2.38.1c.42.11.84.22,1.25.35s.81.25,1.2.4l.05,0a6,6,0,0,1,.59.22l.08,0,.65.25.05,0c.59.25,1.16.52,1.72.8.25.11.48.24.72.37s.77.42,1.15.65a4.73,4.73,0,0,1,.56.35c.19.11.39.24.58.37a3.46,3.46,0,0,1,.46.32,10.19,10.19,0,0,1,.88.63q.55.39,1.08.84c.27.21.54.45.81.69l.11.1.24.22.09.08c.26.25.53.5.78.76s.5.5.74.75l0,.06a2.59,2.59,0,0,1,.31.35c.23.23.43.48.63.72l.2.24c.26.32.52.64.77,1s.37.49.53.74l.06.08.4.58c.21.33.43.67.64,1l0,.06c.13.23.27.46.39.71s.16.26.23.39.27.51.39.76.34.68.48,1,.23.5.34.76l.12.28c.1.27.21.54.31.82s.12.34.18.52a1,1,0,0,0,0,.1c.11.31.21.63.3.95a8.89,8.89,0,0,1,.28,1,.5.5,0,0,1,0,.13l.09.35c.09.32.16.65.22,1,0,0,0,0,0,.05.06.27.11.54.15.82a5,5,0,0,1,.11.66c.07.46.13.93.18,1.39S566.57,29.8,566.59,30.27Z"/>
    <path class="cls-6" d="M566.63,31.74c0-.5,0-1,0-1.47C566.61,30.76,566.63,31.24,566.63,31.74Z"/>
    <path class="cls-9" d="M31.74,742.13H535.19c.78,0,1.57,0,2.34-.09l.66-.06a29.61,29.61,0,0,0,3.9-.62c.24-.05.48-.1.73-.17l.54-.14a30.2,30.2,0,0,0,6.41-2.52l.65-.35c.45-.24.88-.5,1.31-.77l.59-.38.61-.4c.56-.39,1.12-.8,1.65-1.22.24-.18.47-.37.69-.56s.71-.6,1.05-.9l.59-.57q.52-.5,1-1l0,0c.66-.7,1.3-1.44,1.9-2.2l0,0a30.73,30.73,0,0,0,2.44-3.6c.26-.42.49-.85.72-1.29a2,2,0,0,1,.11-.2c.18-.37.37-.75.54-1.13s.41-.9.59-1.36.37-.92.54-1.4l.46-1.38a.25.25,0,0,1,0-.08c.14-.47.27-.94.39-1.42s.23-1,.32-1.47.19-1,.27-1.52.11-.88.16-1.33a1.49,1.49,0,0,1,0-.21c0-.18,0-.34,0-.52,0,.13,0,.26,0,.38,0,.47-.1.93-.18,1.39a4.78,4.78,0,0,1-.11.66c0,.28-.09.55-.15.83-.09.46-.2.92-.32,1.37s-.2.78-.32,1.15-.19.63-.3.94c-.2.59-.42,1.17-.65,1.73l-.34.76c-.14.35-.31.7-.48,1l-.39.75c-.07.14-.15.27-.23.4s-.28.51-.43.77-.43.69-.64,1-.27.38-.4.58-.39.55-.59.81-.5.66-.77,1l-.2.25c-.2.24-.4.48-.63.72a2.5,2.5,0,0,1-.31.34,10.07,10.07,0,0,1-.78.82c-.27.28-.56.56-.87.83l-.24.23-.92.78a12.2,12.2,0,0,1-1.08.85c-.29.22-.58.44-.88.63a4.73,4.73,0,0,1-.46.32l-.58.37-.56.35c-.38.22-.76.44-1.15.65l-.72.37c-.56.28-1.13.54-1.72.79l-.7.28-.72.27c-.39.14-.8.27-1.2.39s-.83.25-1.25.35-.91.23-1.38.32-.69.14-1,.19a28,28,0,0,1-4.7.4H28.82a27.4,27.4,0,0,1-4.74-.41c-.33,0-.66-.11-1-.18H23c-.44-.08-.87-.19-1.31-.31h-.06c-.4-.1-.79-.21-1.18-.34s-.78-.24-1.16-.37l-.88-.33-.57-.24c-.6-.24-1.18-.51-1.74-.79l-.72-.37c-.39-.21-.77-.43-1.15-.65l-.56-.35c-.2-.12-.4-.24-.58-.37s-.31-.2-.46-.32c-.3-.19-.59-.41-.88-.63a12.2,12.2,0,0,1-1.08-.85l-.92-.78-.24-.23c-.3-.27-.59-.55-.87-.83s-.64-.65-.94-1a9.85,9.85,0,0,1-.8-.93.91.91,0,0,1-.18-.21c-.27-.32-.52-.65-.76-1s-.51-.69-.74-1l-.11-.15-.43-.66c-.16-.25-.32-.51-.47-.78l0,0c-.21-.36-.42-.73-.62-1.11l-.05-.09c-.18-.33-.34-.67-.5-1s-.21-.44-.3-.66A20.73,20.73,0,0,1,1.87,720c-.13-.35-.24-.7-.35-1.06s-.25-.86-.36-1.3-.2-.81-.28-1.22-.11-.55-.15-.83-.08-.44-.11-.66c-.07-.46-.13-.92-.18-1.39,0-.18,0-.37,0-.55a5.21,5.21,0,0,0,0,.69,1.49,1.49,0,0,1,0,.21c0,.45.11.9.17,1.33s.16,1,.26,1.52a31.3,31.3,0,0,0,1.18,4.35c.17.48.34.95.54,1.4s.38.91.59,1.36.36.76.54,1.13l.11.2q.35.66.72,1.29c.22.39.45.77.69,1.15a.49.49,0,0,1,.07.11c.26.38.51.77.77,1.14a.21.21,0,0,1,.06.08c.22.31.46.61.69.91a1.92,1.92,0,0,0,.16.21c.09.12.19.24.29.35.22.28.45.57.68.83s.5.57.77.84a3,3,0,0,0,.24.26,3.5,3.5,0,0,0,.27.28c.17.18.35.36.53.53a31.67,31.67,0,0,0,2.55,2.24c.34.27.69.54,1,.79.2.13.39.27.57.41.83.56,1.67,1.08,2.55,1.57l.65.35A30.67,30.67,0,0,0,23.47,741l.64.17c.24.07.48.12.73.17a30,30,0,0,0,3.81.61l.74.07C30.16,742.1,31,742.13,31.74,742.13Z"/>
    <path class="cls-6" d="M566.63,710.69c0,.49,0,1,0,1.47C566.61,711.67,566.63,711.18,566.63,710.69Z"/>
    <path class="cls-10" d="M28.82,739.22h2.92A28.56,28.56,0,0,1,3.21,710.69V31.74A28.55,28.55,0,0,1,31.74,3.21H28.82a26.45,26.45,0,0,0-4.74.41,8.54,8.54,0,0,0-1,.17H23c-.44.09-.87.19-1.31.31h-.06c-.4.11-.79.21-1.18.34s-.78.24-1.16.38-.59.21-.88.33l-.57.23c-.6.24-1.18.52-1.74.8-.24.11-.49.24-.72.37-.39.2-.77.42-1.15.65a5.72,5.72,0,0,0-.56.35,5.72,5.72,0,0,0-.58.37,3.46,3.46,0,0,0-.46.32,10.19,10.19,0,0,0-.88.63q-.55.4-1.08.84l-.92.79-.24.22q-.43.4-.87.84c-.32.32-.64.65-.94,1s-.54.61-.8.93a.86.86,0,0,0-.18.2c-.26.32-.51.64-.76,1s-.51.69-.74,1l-.11.15c-.14.21-.29.43-.43.66s-.32.51-.47.77l0,.05c-.21.37-.42.74-.62,1.12a.56.56,0,0,1-.05.08c-.18.33-.34.67-.5,1s-.21.44-.3.66a20.9,20.9,0,0,0-.86,2.2c-.13.35-.24.7-.35,1.06s-.25.86-.36,1.3S1,25.58.88,26c-.06.27-.11.54-.15.82s-.08.44-.11.66c-.07.46-.13.93-.18,1.39,0,.19,0,.37,0,.56s0,.56,0,.84c0,.49,0,1,0,1.47v679c0,.49,0,1,0,1.47,0,.28,0,.56,0,.84s0,.37,0,.55c0,.47.11.93.18,1.39,0,.22.06.45.11.66s.09.55.15.83.17.82.28,1.22.23.87.36,1.3.22.71.35,1.06a20.73,20.73,0,0,0,.86,2.19c.09.22.2.45.3.66s.32.68.5,1l.05.09c.2.38.41.75.62,1.11l0,0c.15.27.31.53.47.78l.43.66.11.15c.23.34.48.69.74,1s.5.66.76,1a.91.91,0,0,0,.18.21c.26.32.52.63.8.93s.62.67.94,1l.87.83.24.23.92.78c.35.3.71.58,1.08.85s.58.44.88.63a4.73,4.73,0,0,0,.46.32c.18.13.38.25.58.37l.56.35c.38.22.76.44,1.15.65l.72.37c.56.28,1.14.55,1.74.79l.57.24.88.33c.38.13.77.26,1.16.37s.78.24,1.18.34h.06c.44.12.87.23,1.31.31h.07c.33.07.66.14,1,.18A27.4,27.4,0,0,0,28.82,739.22Z"/>
    <path class="cls-11" d="M535.19,739.22h2.91a28,28,0,0,0,4.7-.4c.34-.05.69-.11,1-.19s.94-.19,1.38-.32.84-.22,1.25-.35.81-.25,1.2-.39l.72-.27.7-.28c.59-.25,1.16-.51,1.72-.79l.72-.37c.39-.21.77-.43,1.15-.65l.56-.35.58-.37a4.73,4.73,0,0,0,.46-.32c.3-.19.59-.41.88-.63s.73-.55,1.08-.85l.92-.78.24-.23c.3-.27.59-.55.87-.83s.52-.53.78-.82a2.5,2.5,0,0,0,.31-.34c.22-.24.42-.48.63-.72l.2-.25c.26-.32.52-.64.77-1s.39-.53.59-.81.27-.39.4-.58.43-.67.64-1,.3-.51.43-.77.16-.26.23-.4l.39-.75c.17-.33.34-.68.48-1l.34-.76c.23-.56.45-1.14.65-1.73.11-.31.21-.62.3-.94s.23-.76.32-1.15.23-.91.32-1.37c.06-.28.11-.55.15-.83a4.78,4.78,0,0,0,.11-.66c.07-.46.13-.92.18-1.39,0-.12,0-.25,0-.38,0-.34.05-.68.07-1l0-.66c0-.28,0-.54,0-.81V31.74c0-.28,0-.54,0-.81l0-.66c0-.34,0-.68-.07-1,0-.12,0-.25,0-.38-.05-.46-.11-.93-.18-1.39a5,5,0,0,0-.11-.66c0-.28-.09-.55-.15-.82,0,0,0,0,0-.05-.06-.33-.13-.66-.22-1l-.09-.35a.5.5,0,0,0,0-.13,8.89,8.89,0,0,0-.28-1c-.09-.32-.19-.64-.3-.95a1,1,0,0,1,0-.1c-.06-.18-.11-.35-.18-.52s-.21-.55-.31-.82l-.12-.28c-.11-.26-.22-.51-.34-.76s-.31-.7-.48-1-.26-.5-.39-.76-.15-.27-.23-.39-.26-.48-.39-.71l0-.06c-.21-.35-.43-.69-.64-1l-.4-.58-.06-.08c-.17-.25-.35-.51-.53-.74s-.51-.66-.77-1l-.2-.24c-.21-.24-.41-.49-.63-.72a2.59,2.59,0,0,0-.31-.35l0-.06-.74-.75c-.25-.26-.52-.51-.78-.76l-.09-.08-.24-.22-.11-.1-.81-.69q-.53-.44-1.08-.84a10.19,10.19,0,0,0-.88-.63,3.46,3.46,0,0,0-.46-.32c-.19-.13-.39-.26-.58-.37a4.73,4.73,0,0,0-.56-.35c-.38-.23-.76-.45-1.15-.65s-.47-.26-.72-.37c-.56-.28-1.13-.55-1.72-.8l-.05,0-.65-.25-.08,0a6,6,0,0,0-.59-.22l-.05,0c-.39-.15-.8-.27-1.2-.4s-.83-.24-1.25-.35l-.38-.1-.89-.2-.11,0-.29-.06a6,6,0,0,0-.61-.1l-.13,0-1-.16-.36,0-.76-.09-.89,0c-.56,0-1.13-.06-1.69-.06h-2.91a28.55,28.55,0,0,1,28.52,28.53v679A28.56,28.56,0,0,1,535.19,739.22Z"/>
  </g>
</svg>
